AcariSans-ThinItalic.ufo
<glyph name="exclam" format="2">
  <advance width="654"/>
  <unicode hex="0021"/>
  <outline>
    <contour>
      <point x="328" y="363" type="line"/>
      <point x="616" y="1469" type="line"/>
      <point x="484" y="1469" type="line"/>
      <point x="257" y="363" type="line"/>
    </contour>
    <contour>
      <point x="288" y="0" type="line"/>
      <point x="323" y="152" type="line"/>
      <point x="169" y="152" type="line"/>
      <point x="133" y="0" type="line"/>
    </contour>
  </outline>
</glyph>
<glyph name="quotedbl" format="2">
  <advance width="725"/>
  <unicode hex="0022"/>
  <outline>
    <contour>
      <point x="306" y="1082" type="line"/>
      <point x="398" y="1082" type="line"/>
      <point x="481" y="1448" type="line"/>
      <point x="389" y="1448" type="line"/>
    </contour>
    <contour>
      <point x="590" y="1082" type="line"/>
      <point x="681" y="1082" type="line"/>
      <point x="766" y="1448" type="line"/>
      <point x="675" y="1448" type="line"/>
    </contour>
  </outline>
</glyph>
<glyph name="numbersign" format="2">
  <advance width="1409"/>
  <unicode hex="0023"/>
  <outline>
    <contour>
      <point x="704" y="0" type="line"/>
      <point x="908" y="475" type="line"/>
      <point x="1181" y="475" type="line"/>
      <point x="1196" y="541" type="line"/>
      <point x="938" y="541" type="line"/>
      <point x="1107" y="928" type="line"/>
      <point x="1370" y="928" type="line"/>
      <point x="1387" y="1003" type="line"/>
      <point x="1138" y="1003" type="line"/>
      <point x="1339" y="1468" type="line"/>
      <point x="1262" y="1468" type="line"/>
      <point x="1055" y="997" type="line"/>
      <point x="682" y="997" type="line"/>
      <point x="889" y="1468" type="line"/>
      <point x="812" y="1468" type="line"/>
      <point x="605" y="997" type="line"/>
      <point x="332" y="997" type="line"/>
      <point x="316" y="928" type="line"/>
      <point x="576" y="928" type="line"/>
      <point x="407" y="541" type="line"/>
      <point x="142" y="541" type="line"/>
      <point x="127" y="465" type="line"/>
      <point x="374" y="465" type="line"/>
      <point x="176" y="0" type="line"/>
      <point x="253" y="0" type="line"/>
      <point x="458" y="465" type="line"/>
      <point x="831" y="465" type="line"/>
      <point x="625" y="0" type="line"/>
    </contour>
    <contour>
      <point x="860" y="541" type="line"/>
      <point x="487" y="541" type="line"/>
      <point x="656" y="928" type="line"/>
      <point x="1028" y="928" type="line"/>
    </contour>
  </outline>
</glyph>
<glyph name="dollar" format="2">
  <advance width="1229"/>
  <unicode hex="0024"/>
  <outline>
    <contour>
      <point x="444" y="-254" type="line"/>
      <point x="505" y="-14" type="line"/>
      <point x="661" y="-17"/>
      <point x="790" y="16"/>
      <point x="880" y="87" type="curve" smooth="yes"/>
      <point x="968" y="158"/>
      <point x="1019" y="268"/>
      <point x="1019" y="419" type="curve" smooth="yes"/>
      <point x="1019" y="522"/>
      <point x="984" y="594"/>
      <point x="933" y="647" type="curve" smooth="yes"/>
      <point x="881" y="700"/>
      <point x="812" y="735"/>
      <point x="744" y="769" type="curve" smooth="yes"/>
      <point x="676" y="804"/>
      <point x="608" y="836"/>
      <point x="557" y="883" type="curve" smooth="yes"/>
      <point x="505" y="930"/>
      <point x="472" y="991"/>
      <point x="472" y="1082" type="curve" smooth="yes"/>
      <point x="472" y="1168"/>
      <point x="505" y="1237"/>
      <point x="564" y="1283" type="curve" smooth="yes"/>
      <point x="622" y="1330"/>
      <point x="702" y="1354"/>
      <point x="794" y="1354" type="curve" smooth="yes"/>
      <point x="849" y="1354"/>
      <point x="904" y="1336"/>
      <point x="947" y="1305" type="curve" smooth="yes"/>
      <point x="990" y="1274"/>
      <point x="1022" y="1230"/>
      <point x="1037" y="1182" type="curve"/>
      <point x="1143" y="1238" type="line"/>
      <point x="1122" y="1300"/>
      <point x="1082" y="1355"/>
      <point x="1027" y="1395" type="curve" smooth="yes"/>
      <point x="972" y="1435"/>
      <point x="906" y="1460"/>
      <point x="834" y="1465" type="curve"/>
      <point x="895" y="1699" type="line"/>
      <point x="822" y="1699" type="line"/>
      <point x="759" y="1464" type="line"/>
      <point x="638" y="1461"/>
      <point x="533" y="1421"/>
      <point x="459" y="1351" type="curve" smooth="yes"/>
      <point x="385" y="1281"/>
      <point x="342" y="1184"/>
      <point x="342" y="1069" type="curve" smooth="yes"/>
      <point x="342" y="963"/>
      <point x="376" y="892"/>
      <point x="428" y="840" type="curve" smooth="yes"/>
      <point x="479" y="787"/>
      <point x="547" y="750"/>
      <point x="616" y="717" type="curve" smooth="yes"/>
      <point x="685" y="684"/>
      <point x="754" y="650"/>
      <point x="805" y="604" type="curve" smooth="yes"/>
      <point x="857" y="556"/>
      <point x="891" y="495"/>
      <point x="891" y="403" type="curve" smooth="yes"/>
      <point x="891" y="294"/>
      <point x="854" y="220"/>
      <point x="787" y="173" type="curve" smooth="yes"/>
      <point x="719" y="126"/>
      <point x="620" y="106"/>
      <point x="496" y="106" type="curve" smooth="yes"/>
      <point x="406" y="106"/>
      <point x="336" y="128"/>
      <point x="285" y="172" type="curve" smooth="yes"/>
      <point x="234" y="216"/>
      <point x="208" y="275"/>
      <point x="208" y="353" type="curve" smooth="yes"/>
      <point x="208" y="369"/>
      <point x="208" y="384"/>
      <point x="211" y="400" type="curve"/>
      <point x="84" y="374" type="line"/>
      <point x="84" y="365" type="line" smooth="yes"/>
      <point x="84" y="254"/>
      <point x="121" y="168"/>
      <point x="184" y="104" type="curve" smooth="yes"/>
      <point x="247" y="41"/>
      <point x="333" y="0"/>
      <point x="430" y="-13" type="curve"/>
      <point x="369" y="-254" type="line"/>
    </contour>
  </outline>
</glyph>
<glyph name="percent" format="2">
  <advance width="1646"/>
  <unicode hex="0025"/>
  <outline>
    <contour>
      <point x="1147" y="8" type="qcurve" smooth="yes"/>
      <point x="1209" y="8"/>
      <point x="1323" y="74"/>
      <point x="1407" y="185"/>
      <point x="1457" y="332"/>
      <point x="1457" y="413" type="qcurve" smooth="yes"/>
      <point x="1457" y="465"/>
      <point x="1435" y="547"/>
      <point x="1390" y="604"/>
      <point x="1325" y="635"/>
      <point x="1282" y="635" type="qcurve" smooth="yes"/>
      <point x="1210" y="635"/>
      <point x="1094" y="576"/>
      <point x="1009" y="467"/>
      <point x="962" y="316"/>
      <point x="962" y="224" type="qcurve" smooth="yes"/>
      <point x="962" y="118"/>
      <point x="1057" y="8"/>
    </contour>
    <contour>
      <point x="1158" y="71" type="qcurve" smooth="yes"/>
      <point x="1105" y="71"/>
      <point x="1038" y="146"/>
      <point x="1038" y="216" type="qcurve" smooth="yes"/>
      <point x="1038" y="296"/>
      <point x="1071" y="427"/>
      <point x="1130" y="522"/>
      <point x="1214" y="574"/>
      <point x="1264" y="574" type="qcurve" smooth="yes"/>
      <point x="1316" y="574"/>
      <point x="1381" y="494"/>
      <point x="1382" y="426" type="qcurve"/>
      <point x="1382" y="353"/>
      <point x="1347" y="224"/>
      <point x="1286" y="127"/>
      <point x="1204" y="71"/>
    </contour>
    <contour>
      <point x="375" y="12" type="line"/>
      <point x="1452" y="1419" type="line"/>
      <point x="1353" y="1419" type="line"/>
      <point x="277" y="12" type="line"/>
    </contour>
    <contour>
      <point x="481" y="843" type="qcurve" smooth="yes"/>
      <point x="544" y="843"/>
      <point x="657" y="909"/>
      <point x="742" y="1020"/>
      <point x="791" y="1167"/>
      <point x="791" y="1248" type="qcurve" smooth="yes"/>
      <point x="791" y="1299"/>
      <point x="769" y="1382"/>
      <point x="725" y="1439"/>
      <point x="659" y="1470"/>
      <point x="616" y="1470" type="qcurve" smooth="yes"/>
      <point x="544" y="1470"/>
      <point x="428" y="1411"/>
      <point x="343" y="1302"/>
      <point x="297" y="1150"/>
      <point x="297" y="1059" type="qcurve" smooth="yes"/>
      <point x="297" y="953"/>
      <point x="391" y="843"/>
    </contour>
    <contour>
      <point x="493" y="906" type="qcurve" smooth="yes"/>
      <point x="439" y="906"/>
      <point x="372" y="980"/>
      <point x="372" y="1051" type="qcurve" smooth="yes"/>
      <point x="372" y="1131"/>
      <point x="405" y="1262"/>
      <point x="464" y="1357"/>
      <point x="549" y="1409"/>
      <point x="599" y="1409" type="qcurve" smooth="yes"/>
      <point x="650" y="1409"/>
      <point x="715" y="1329"/>
      <point x="717" y="1261" type="qcurve"/>
      <point x="717" y="1188"/>
      <point x="681" y="1058"/>
      <point x="621" y="962"/>
      <point x="539" y="906"/>
    </contour>
  </outline>
</glyph>
<glyph name="ampersand" format="2">
  <advance width="1401"/>
  <unicode hex="0026"/>
  <outline>
    <contour>
      <point x="1094" y="-42" type="line"/>
      <point x="1155" y="4" type="line"/>
      <point x="991" y="272" type="line"/>
      <point x="1076" y="381"/>
      <point x="1150" y="519"/>
      <point x="1209" y="688" type="curve"/>
      <point x="1142" y="708" type="line"/>
      <point x="1087" y="555"/>
      <point x="1029" y="435"/>
      <point x="953" y="337" type="curve"/>
      <point x="692" y="762" type="line"/>
      <point x="954" y="908"/>
      <point x="1096" y="1068"/>
      <point x="1096" y="1216" type="curve" smooth="yes"/>
      <point x="1096" y="1372"/>
      <point x="1009" y="1464"/>
      <point x="860" y="1464" type="curve" smooth="yes"/>
      <point x="657" y="1464"/>
      <point x="479" y="1306"/>
      <point x="479" y="1127" type="curve" smooth="yes"/>
      <point x="479" y="1039"/>
      <point x="513" y="941"/>
      <point x="603" y="788" type="curve"/>
      <point x="270" y="599"/>
      <point x="106" y="438"/>
      <point x="106" y="260" type="curve" smooth="yes"/>
      <point x="106" y="96"/>
      <point x="228" y="-22"/>
      <point x="397" y="-22" type="curve" smooth="yes"/>
      <point x="594" y="-22"/>
      <point x="796" y="80"/>
      <point x="944" y="207" type="curve"/>
    </contour>
    <contour>
      <point x="659" y="823" type="curve"/>
      <point x="583" y="945"/>
      <point x="542" y="1044"/>
      <point x="542" y="1113" type="curve" smooth="yes"/>
      <point x="542" y="1254"/>
      <point x="693" y="1381"/>
      <point x="864" y="1381" type="curve" smooth="yes"/>
      <point x="962" y="1381"/>
      <point x="1040" y="1309"/>
      <point x="1040" y="1218" type="curve" smooth="yes"/>
      <point x="1040" y="1100"/>
      <point x="907" y="965"/>
    </contour>
    <contour>
      <point x="411" y="42" type="curve" smooth="yes"/>
      <point x="279" y="42"/>
      <point x="176" y="134"/>
      <point x="176" y="263" type="curve" smooth="yes"/>
      <point x="176" y="418"/>
      <point x="324" y="550"/>
      <point x="629" y="722" type="curve"/>
      <point x="906" y="273" type="line"/>
      <point x="778" y="164"/>
      <point x="600" y="42"/>
    </contour>
  </outline>
</glyph>
<glyph name="quotesingle" format="2">
  <advance width="629"/>
  <unicode hex="0027"/>
  <outline>
    <contour>
      <point x="501" y="1080" type="line"/>
      <point x="592" y="1477" type="line"/>
      <point x="482" y="1477" type="line"/>
      <point x="391" y="1080" type="line"/>
    </contour>
  </outline>
</glyph>
<glyph name="parenleft" format="2">
  <advance width="580"/>
  <unicode hex="0028"/>
  <outline>
    <contour>
      <point x="357" y="14" type="line"/>
      <point x="301" y="116"/>
      <point x="258" y="336"/>
      <point x="258" y="454" type="qcurve" smooth="yes"/>
      <point x="258" y="586"/>
      <point x="327" y="858"/>
      <point x="444" y="1117"/>
      <point x="603" y="1352"/>
      <point x="693" y="1444" type="qcurve"/>
      <point x="601" y="1444" type="line"/>
      <point x="538" y="1381"/>
      <point x="426" y="1239"/>
      <point x="331" y="1087"/>
      <point x="257" y="925"/>
      <point x="204" y="754"/>
      <point x="177" y="576"/>
      <point x="177" y="484" type="qcurve" smooth="yes"/>
      <point x="177" y="431"/>
      <point x="187" y="304"/>
      <point x="213" y="177"/>
      <point x="253" y="58"/>
      <point x="281" y="14" type="qcurve"/>
    </contour>
  </outline>
</glyph>
<glyph name="parenright" format="2">
  <advance width="582"/>
  <unicode hex="0029"/>
  <outline>
    <contour>
      <point x="76" y="26" type="line"/>
      <point x="327" y="254"/>
      <point x="501" y="631"/>
      <point x="501" y="966" type="curve" smooth="yes"/>
      <point x="501" y="1114"/>
      <point x="476" y="1287"/>
      <point x="390" y="1432" type="curve"/>
      <point x="328" y="1432" type="line"/>
      <point x="394" y="1286"/>
      <point x="423" y="1116"/>
      <point x="423" y="960" type="curve" smooth="yes"/>
      <point x="423" y="627"/>
      <point x="224" y="256"/>
      <point x="0" y="26" type="curve"/>
    </contour>
  </outline>
</glyph>
<glyph name="asterisk" format="2">
  <advance width="698"/>
  <unicode hex="002A"/>
  <outline>
    <contour>
      <point x="265" y="856" type="line"/>
      <point x="483" y="1091" type="line"/>
      <point x="593" y="856" type="line"/>
      <point x="650" y="890" type="line"/>
      <point x="524" y="1118" type="line"/>
      <point x="820" y="1202" type="line"/>
      <point x="815" y="1259" type="line"/>
      <point x="522" y="1161" type="line"/>
      <point x="596" y="1447" type="line"/>
      <point x="535" y="1447" type="line"/>
      <point x="477" y="1161" type="line"/>
      <point x="231" y="1259" type="line"/>
      <point x="198" y="1202" type="line"/>
      <point x="455" y="1118" type="line"/>
      <point x="226" y="890" type="line"/>
    </contour>
  </outline>
</glyph>
<glyph name="plus" format="2">
  <advance width="1315"/>
  <unicode hex="002B"/>
  <outline>
    <contour>
      <point x="702" y="109" type="line"/>
      <point x="702" y="597" type="line"/>
      <point x="1172" y="597" type="line"/>
      <point x="1172" y="686" type="line"/>
      <point x="702" y="686" type="line"/>
      <point x="702" y="1169" type="line"/>
      <point x="612" y="1169" type="line"/>
      <point x="612" y="686" type="line"/>
      <point x="144" y="686" type="line"/>
      <point x="144" y="597" type="line"/>
      <point x="612" y="597" type="line"/>
      <point x="612" y="109" type="line"/>
    </contour>
  </outline>
</glyph>
<glyph name="comma" format="2">
  <advance width="614"/>
  <unicode hex="002C"/>
  <outline>
    <contour>
      <point x="44" y="-231" type="line"/>
      <point x="360" y="266" type="line"/>
      <point x="205" y="266" type="line"/>
      <point x="-16" y="-231" type="line"/>
    </contour>
  </outline>
</glyph>
<glyph name="hyphen" format="2">
  <advance width="882"/>
  <unicode hex="002D"/>
  <outline>
    <contour>
      <point x="705" y="610" type="line"/>
      <point x="720" y="680" type="line"/>
      <point x="239" y="680" type="line"/>
      <point x="224" y="610" type="line"/>
    </contour>
  </outline>
</glyph>
<glyph name="period" format="2">
  <advance width="614"/>
  <unicode hex="002E"/>
  <outline>
    <contour>
      <point x="301" y="0" type="line"/>
      <point x="341" y="171" type="line"/>
      <point x="158" y="171" type="line"/>
      <point x="117" y="0" type="line"/>
    </contour>
  </outline>
</glyph>
<glyph name="slash" format="2">
  <advance width="963"/>
  <unicode hex="002F"/>
  <outline>
    <contour>
      <point x="-56" y="-441" type="line"/>
      <point x="1162" y="1552" type="line"/>
      <point x="1043" y="1552" type="line"/>
      <point x="-181" y="-441" type="line"/>
    </contour>
  </outline>
</glyph>
<glyph name="zero" format="2">
  <advance width="1229"/>
  <unicode hex="0030"/>
  <outline>
    <contour>
      <point x="452" y="-20" type="curve" smooth="yes"/>
      <point x="524" y="-20"/>
      <point x="593" y="-4"/>
      <point x="656" y="28" type="curve" smooth="yes"/>
      <point x="782" y="92"/>
      <point x="886" y="199"/>
      <point x="967" y="334" type="curve" smooth="yes"/>
      <point x="1008" y="402"/>
      <point x="1042" y="472"/>
      <point x="1070" y="545" type="curve" smooth="yes"/>
      <point x="1126" y="691"/>
      <point x="1155" y="841"/>
      <point x="1155" y="963" type="curve" smooth="yes"/>
      <point x="1155" y="1083"/>
      <point x="1135" y="1211"/>
      <point x="1078" y="1307" type="curve" smooth="yes"/>
      <point x="1021" y="1403"/>
      <point x="926" y="1470"/>
      <point x="779" y="1470" type="curve" smooth="yes"/>
      <point x="705" y="1470"/>
      <point x="637" y="1454"/>
      <point x="574" y="1423" type="curve" smooth="yes"/>
      <point x="446" y="1361"/>
      <point x="341" y="1253"/>
      <point x="260" y="1119" type="curve" smooth="yes"/>
      <point x="219" y="1051"/>
      <point x="184" y="981"/>
      <point x="157" y="908" type="curve"/>
      <point x="101" y="763"/>
      <point x="71" y="610"/>
      <point x="71" y="486" type="curve" smooth="yes"/>
      <point x="71" y="359"/>
      <point x="89" y="232"/>
      <point x="146" y="138" type="curve" smooth="yes"/>
      <point x="203" y="44"/>
      <point x="297" y="-20"/>
    </contour>
    <contour>
      <point x="470" y="89" type="curve" smooth="yes"/>
      <point x="357" y="89"/>
      <point x="288" y="136"/>
      <point x="247" y="210" type="curve" smooth="yes"/>
      <point x="206" y="283"/>
      <point x="191" y="378"/>
      <point x="191" y="472" type="curve" smooth="yes"/>
      <point x="191" y="522"/>
      <point x="196" y="579"/>
      <point x="207" y="643" type="curve" smooth="yes"/>
      <point x="227" y="770"/>
      <point x="269" y="902"/>
      <point x="331" y="1028" type="curve" smooth="yes"/>
      <point x="362" y="1089"/>
      <point x="398" y="1145"/>
      <point x="440" y="1194" type="curve" smooth="yes"/>
      <point x="524" y="1291"/>
      <point x="629" y="1355"/>
      <point x="754" y="1355" type="curve" smooth="yes"/>
      <point x="860" y="1355"/>
      <point x="928" y="1306"/>
      <point x="968" y="1235" type="curve" smooth="yes"/>
      <point x="1008" y="1164"/>
      <point x="1022" y="1070"/>
      <point x="1022" y="981" type="curve" smooth="yes"/>
      <point x="1022" y="932"/>
      <point x="1017" y="876"/>
      <point x="1007" y="814" type="curve" smooth="yes"/>
      <point x="987" y="687"/>
      <point x="946" y="553"/>
      <point x="884" y="425" type="curve" smooth="yes"/>
      <point x="853" y="362"/>
      <point x="817" y="305"/>
      <point x="776" y="255" type="curve" smooth="yes"/>
      <point x="694" y="156"/>
      <point x="592" y="89"/>
    </contour>
  </outline>
</glyph>
<glyph name="one" format="2">
  <advance width="1229"/>
  <unicode hex="0031"/>
  <outline>
    <contour>
      <point x="612" y="0" type="line"/>
      <point x="944" y="1447" type="line"/>
      <point x="832" y="1447" type="line"/>
      <point x="820" y="1387"/>
      <point x="790" y="1333"/>
      <point x="750" y="1296" type="curve" smooth="yes"/>
      <point x="710" y="1259"/>
      <point x="655" y="1236"/>
      <point x="591" y="1236" type="curve" smooth="yes"/>
      <point x="380" y="1236" type="line"/>
      <point x="357" y="1131" type="line"/>
      <point x="745" y="1131" type="line"/>
      <point x="485" y="0" type="line"/>
    </contour>
  </outline>
</glyph>
<glyph name="two" format="2">
  <advance width="1229"/>
  <unicode hex="0032"/>
  <outline>
    <contour>
      <point x="-16" y="0" type="line"/>
      <point x="923" y="0" type="line"/>
      <point x="940" y="78" type="line"/>
      <point x="116" y="78" type="line"/>
      <point x="793" y="451"/>
      <point x="1168" y="843"/>
      <point x="1168" y="1158" type="curve" smooth="yes"/>
      <point x="1168" y="1338"/>
      <point x="1037" y="1468"/>
      <point x="819" y="1468" type="curve" smooth="yes"/>
      <point x="559" y="1468"/>
      <point x="354" y="1296"/>
      <point x="286" y="1014" type="curve"/>
      <point x="378" y="1000" type="line"/>
      <point x="436" y="1228"/>
      <point x="614" y="1382"/>
      <point x="816" y="1382" type="curve" smooth="yes"/>
      <point x="963" y="1382"/>
      <point x="1058" y="1276"/>
      <point x="1058" y="1147" type="curve" smooth="yes"/>
      <point x="1058" y="846"/>
      <point x="651" y="445"/>
      <point x="7" y="103" type="curve"/>
    </contour>
  </outline>
</glyph>
<glyph name="three" format="2">
  <advance width="1229"/>
  <unicode hex="0033"/>
  <outline>
    <contour>
      <point x="449" y="-20" type="curve" smooth="yes"/>
      <point x="614" y="-20"/>
      <point x="756" y="36"/>
      <point x="858" y="130" type="curve" smooth="yes"/>
      <point x="960" y="224"/>
      <point x="1021" y="355"/>
      <point x="1021" y="505" type="curve" smooth="yes"/>
      <point x="1021" y="649"/>
      <point x="961" y="734"/>
      <point x="831" y="775" type="curve"/>
      <point x="916" y="816"/>
      <point x="984" y="875"/>
      <point x="1031" y="947" type="curve" smooth="yes"/>
      <point x="1077" y="1018"/>
      <point x="1104" y="1103"/>
      <point x="1104" y="1190" type="curve" smooth="yes"/>
      <point x="1104" y="1272"/>
      <point x="1070" y="1342"/>
      <point x="1013" y="1392" type="curve"/>
      <point x="955" y="1440"/>
      <point x="874" y="1468"/>
      <point x="778" y="1468" type="curve" smooth="yes"/>
      <point x="663" y="1468"/>
      <point x="556" y="1432"/>
      <point x="473" y="1369" type="curve" smooth="yes"/>
      <point x="391" y="1306"/>
      <point x="329" y="1216"/>
      <point x="304" y="1110" type="curve"/>
      <point x="409" y="1089" type="line"/>
      <point x="428" y="1167"/>
      <point x="475" y="1235"/>
      <point x="539" y="1283" type="curve" smooth="yes"/>
      <point x="601" y="1331"/>
      <point x="681" y="1360"/>
      <point x="764" y="1360" type="curve" smooth="yes"/>
      <point x="827" y="1360"/>
      <point x="884" y="1339"/>
      <point x="924" y="1304" type="curve"/>
      <point x="963" y="1268"/>
      <point x="986" y="1218"/>
      <point x="986" y="1160" type="curve" smooth="yes"/>
      <point x="986" y="1061"/>
      <point x="948" y="976"/>
      <point x="882" y="917" type="curve" smooth="yes"/>
      <point x="816" y="858"/>
      <point x="721" y="824"/>
      <point x="609" y="824" type="curve" smooth="yes"/>
      <point x="577" y="824" type="line"/>
      <point x="552" y="712" type="line"/>
      <point x="652" y="712" type="line" smooth="yes"/>
      <point x="724" y="712"/>
      <point x="789" y="688"/>
      <point x="835" y="650" type="curve" smooth="yes"/>
      <point x="881" y="610"/>
      <point x="910" y="553"/>
      <point x="910" y="491" type="curve" smooth="yes"/>
      <point x="910" y="381"/>
      <point x="858" y="279"/>
      <point x="776" y="205" type="curve" smooth="yes"/>
      <point x="694" y="131"/>
      <point x="584" y="84"/>
      <point x="462" y="84" type="curve" smooth="yes"/>
      <point x="377" y="84"/>
      <point x="304" y="108"/>
      <point x="253" y="151" type="curve" smooth="yes"/>
      <point x="202" y="194"/>
      <point x="172" y="254"/>
      <point x="172" y="325" type="curve" smooth="yes"/>
      <point x="172" y="350"/>
      <point x="174" y="376"/>
      <point x="182" y="401" type="curve"/>
      <point x="70" y="393" type="line"/>
      <point x="59" y="354"/>
      <point x="55" y="319"/>
      <point x="55" y="286" type="curve" smooth="yes"/>
      <point x="55" y="193"/>
      <point x="94" y="116"/>
      <point x="162" y="63" type="curve" smooth="yes"/>
      <point x="230" y="10"/>
      <point x="329" y="-20"/>
    </contour>
  </outline>
</glyph>
<glyph name="four" format="2">
  <advance width="1229"/>
  <unicode hex="0034"/>
  <outline>
    <contour>
      <point x="688" y="0" type="line"/>
      <point x="785" y="421" type="line"/>
      <point x="1016" y="421" type="line"/>
      <point x="1035" y="496" type="line"/>
      <point x="803" y="496" type="line"/>
      <point x="1024" y="1447" type="line"/>
      <point x="925" y="1447" type="line"/>
      <point x="28" y="475" type="line"/>
      <point x="14" y="421" type="line"/>
      <point x="689" y="421" type="line"/>
      <point x="592" y="0" type="line"/>
    </contour>
    <contour>
      <point x="705" y="496" type="line"/>
      <point x="153" y="496" type="line"/>
      <point x="887" y="1284" type="line"/>
    </contour>
  </outline>
</glyph>
<glyph name="five" format="2">
  <advance width="1229"/>
  <unicode hex="0035"/>
  <outline>
    <contour>
      <point x="497" y="-20" type="curve" smooth="yes"/>
      <point x="847" y="-20"/>
      <point x="1082" y="323"/>
      <point x="1082" y="598" type="curve" smooth="yes"/>
      <point x="1082" y="808"/>
      <point x="949" y="955"/>
      <point x="732" y="955" type="curve" smooth="yes"/>
      <point x="600" y="955"/>
      <point x="459" y="895"/>
      <point x="329" y="764" type="curve"/>
      <point x="353" y="762" type="line"/>
      <point x="597" y="1400" type="line"/>
      <point x="531" y="1353" type="line"/>
      <point x="1192" y="1353" type="line"/>
      <point x="1213" y="1447" type="line"/>
      <point x="515" y="1447" type="line"/>
      <point x="231" y="706" type="line"/>
      <point x="333" y="671" type="line"/>
      <point x="437" y="790"/>
      <point x="568" y="862"/>
      <point x="702" y="862" type="curve" smooth="yes"/>
      <point x="877" y="862"/>
      <point x="975" y="745"/>
      <point x="975" y="581" type="curve" smooth="yes"/>
      <point x="975" y="358"/>
      <point x="784" y="76"/>
      <point x="508" y="76" type="curve" smooth="yes"/>
      <point x="334" y="76"/>
      <point x="213" y="243"/>
      <point x="222" y="406" type="curve"/>
      <point x="117" y="387" type="line"/>
      <point x="117" y="147"/>
      <point x="266" y="-20"/>
    </contour>
  </outline>
</glyph>
<glyph name="six" format="2">
  <advance width="1229"/>
  <unicode hex="0036"/>
  <outline>
    <contour>
      <point x="460" y="-20" type="qcurve" smooth="yes"/>
      <point x="535" y="-20"/>
      <point x="677" y="25"/>
      <point x="805" y="104"/>
      <point x="912" y="213"/>
      <point x="991" y="342"/>
      <point x="1035" y="486"/>
      <point x="1035" y="559" type="qcurve" smooth="yes"/>
      <point x="1035" y="655"/>
      <point x="968" y="783"/>
      <point x="860" y="864"/>
      <point x="723" y="898"/>
      <point x="651" y="898" type="qcurve" smooth="yes"/>
      <point x="608" y="898"/>
      <point x="509" y="876"/>
      <point x="466" y="852" type="qcurve"/>
      <point x="942" y="1447" type="line"/>
      <point x="824" y="1447" type="line"/>
      <point x="232" y="702" type="line"/>
      <point x="174" y="626"/>
      <point x="99" y="442"/>
      <point x="99" y="343" type="qcurve" smooth="yes"/>
      <point x="99" y="263"/>
      <point x="152" y="130"/>
      <point x="247" y="34"/>
      <point x="380" y="-20"/>
    </contour>
    <contour>
      <point x="479" y="77" type="qcurve" smooth="yes"/>
      <point x="418" y="77"/>
      <point x="318" y="120"/>
      <point x="246" y="195"/>
      <point x="208" y="299"/>
      <point x="208" y="360" type="qcurve" smooth="yes"/>
      <point x="208" y="450"/>
      <point x="280" y="612"/>
      <point x="403" y="736"/>
      <point x="565" y="810"/>
      <point x="653" y="810" type="qcurve" smooth="yes"/>
      <point x="714" y="810"/>
      <point x="814" y="772"/>
      <point x="887" y="704"/>
      <point x="927" y="604"/>
      <point x="927" y="542" type="qcurve" smooth="yes"/>
      <point x="927" y="457"/>
      <point x="852" y="290"/>
      <point x="728" y="158"/>
      <point x="566" y="77"/>
    </contour>
  </outline>
</glyph>
<glyph name="seven" format="2">
  <advance width="1229"/>
  <unicode hex="0037"/>
  <outline>
    <contour>
      <point x="296" y="0" type="line"/>
      <point x="1234" y="1399" type="line"/>
      <point x="1244" y="1447" type="line"/>
      <point x="334" y="1447" type="line"/>
      <point x="314" y="1365" type="line"/>
      <point x="1117" y="1365" type="line"/>
      <point x="185" y="0" type="line"/>
    </contour>
  </outline>
</glyph>
<glyph name="eight" format="2">
  <advance width="1229"/>
  <unicode hex="0038"/>
  <outline>
    <contour>
      <point x="464" y="-20" type="qcurve" smooth="yes"/>
      <point x="539" y="-20"/>
      <point x="680" y="13"/>
      <point x="805" y="73"/>
      <point x="910" y="162"/>
      <point x="986" y="276"/>
      <point x="1028" y="412"/>
      <point x="1028" y="490" type="qcurve" smooth="yes"/>
      <point x="1028" y="594"/>
      <point x="930" y="739"/>
      <point x="832" y="779" type="qcurve"/>
      <point x="895" y="808"/>
      <point x="1001" y="891"/>
      <point x="1077" y="997"/>
      <point x="1119" y="1124"/>
      <point x="1119" y="1197" type="qcurve" smooth="yes"/>
      <point x="1119" y="1266"/>
      <point x="1067" y="1367"/>
      <point x="979" y="1434"/>
      <point x="865" y="1468"/>
      <point x="802" y="1468" type="qcurve" smooth="yes"/>
      <point x="709" y="1468"/>
      <point x="534" y="1403"/>
      <point x="400" y="1284"/>
      <point x="320" y="1121"/>
      <point x="320" y="1024" type="qcurve" smooth="yes"/>
      <point x="320" y="945"/>
      <point x="387" y="822"/>
      <point x="460" y="781" type="qcurve"/>
      <point x="378" y="751"/>
      <point x="239" y="657"/>
      <point x="136" y="531"/>
      <point x="78" y="377"/>
      <point x="78" y="287" type="qcurve" smooth="yes"/>
      <point x="78" y="204"/>
      <point x="144" y="88"/>
      <point x="253" y="14"/>
      <point x="391" y="-20"/>
    </contour>
    <contour>
      <point x="653" y="806" type="qcurve"/>
      <point x="606" y="806"/>
      <point x="523" y="832"/>
      <point x="463" y="885"/>
      <point x="428" y="964"/>
      <point x="428" y="1017" type="qcurve" smooth="yes"/>
      <point x="428" y="1089"/>
      <point x="487" y="1219"/>
      <point x="586" y="1318"/>
      <point x="719" y="1376"/>
      <point x="791" y="1376" type="qcurve" smooth="yes"/>
      <point x="837" y="1376"/>
      <point x="919" y="1348"/>
      <point x="978" y="1295"/>
      <point x="1013" y="1218"/>
      <point x="1013" y="1167" type="qcurve" smooth="yes"/>
      <point x="1013" y="1094"/>
      <point x="954" y="964"/>
      <point x="856" y="865"/>
      <point x="725" y="807"/>
    </contour>
    <contour>
      <point x="474" y="67" type="qcurve" smooth="yes"/>
      <point x="422" y="67"/>
      <point x="319" y="97"/>
      <point x="238" y="156"/>
      <point x="190" y="250"/>
      <point x="190" y="311" type="qcurve" smooth="yes"/>
      <point x="190" y="402"/>
      <point x="264" y="557"/>
      <point x="388" y="671"/>
      <point x="550" y="735"/>
      <point x="638" y="735" type="qcurve" smooth="yes"/>
      <point x="694" y="735"/>
      <point x="794" y="702"/>
      <point x="871" y="640"/>
      <point x="918" y="549"/>
      <point x="918" y="489" type="qcurve" smooth="yes"/>
      <point x="918" y="399"/>
      <point x="844" y="246"/>
      <point x="722" y="132"/>
      <point x="562" y="67"/>
    </contour>
  </outline>
</glyph>
<glyph name="nine" format="2">
  <advance width="1229"/>
  <unicode hex="0039"/>
  <outline>
    <contour>
      <point x="835" y="1468" type="curve" smooth="yes"/>
      <point x="540" y="1468"/>
      <point x="266" y="1185"/>
      <point x="266" y="890" type="curve" smooth="yes"/>
      <point x="266" y="636"/>
      <point x="460" y="557"/>
      <point x="648" y="557" type="curve" smooth="yes"/>
      <point x="705" y="557"/>
      <point x="784" y="573"/>
      <point x="844" y="606" type="curve"/>
      <point x="365" y="1" type="line"/>
      <point x="466" y="1" type="line"/>
      <point x="1058" y="750" type="line" smooth="yes"/>
      <point x="1136" y="850"/>
      <point x="1190" y="976"/>
      <point x="1190" y="1109" type="curve" smooth="yes"/>
      <point x="1190" y="1317"/>
      <point x="1047" y="1468"/>
    </contour>
    <contour>
      <point x="818" y="1384" type="curve" smooth="yes"/>
      <point x="987" y="1384"/>
      <point x="1094" y="1257"/>
      <point x="1094" y="1092" type="curve" smooth="yes"/>
      <point x="1094" y="850"/>
      <point x="885" y="632"/>
      <point x="641" y="632" type="curve" smooth="yes"/>
      <point x="474" y="632"/>
      <point x="361" y="738"/>
      <point x="361" y="907" type="curve" smooth="yes"/>
      <point x="361" y="1139"/>
      <point x="580" y="1384"/>
    </contour>
  </outline>
</glyph>
<glyph name="colon" format="2">
  <advance width="614"/>
  <unicode hex="003A"/>
  <outline>
    <contour>
      <point x="461" y="805" type="line"/>
      <point x="500" y="976" type="line"/>
      <point x="326" y="976" type="line"/>
      <point x="286" y="805" type="line"/>
    </contour>
    <contour>
      <point x="275" y="0" type="line"/>
      <point x="316" y="171" type="line"/>
      <point x="143" y="171" type="line"/>
      <point x="103" y="0" type="line"/>
    </contour>
  </outline>
</glyph>
<glyph name="semicolon" format="2">
  <advance width="614"/>
  <unicode hex="003B"/>
  <outline>
    <contour>
      <point x="463" y="805" type="line"/>
      <point x="503" y="976" type="line"/>
      <point x="330" y="976" type="line"/>
      <point x="289" y="805" type="line"/>
    </contour>
    <contour>
      <point x="37" y="-231" type="line"/>
      <point x="352" y="266" type="line"/>
      <point x="185" y="266" type="line"/>
      <point x="-34" y="-231" type="line"/>
    </contour>
  </outline>
</glyph>
<glyph name="less" format="2">
  <advance width="1249"/>
  <unicode hex="003C"/>
  <outline>
    <contour>
      <point x="1023" y="183" type="line"/>
      <point x="1076" y="272" type="line"/>
      <point x="326" y="690" type="line"/>
      <point x="1076" y="1108" type="line"/>
      <point x="1023" y="1196" type="line"/>
      <point x="146" y="690" type="line"/>
    </contour>
  </outline>
</glyph>
<glyph name="equal" format="2">
  <advance width="1304"/>
  <unicode hex="003D"/>
  <outline>
    <contour>
      <point x="1023" y="805" type="line"/>
      <point x="1023" y="910" type="line"/>
      <point x="280" y="910" type="line"/>
      <point x="280" y="805" type="line"/>
    </contour>
    <contour>
      <point x="1023" y="467" type="line"/>
      <point x="1023" y="568" type="line"/>
      <point x="280" y="568" type="line"/>
      <point x="280" y="467" type="line"/>
    </contour>
  </outline>
</glyph>
<glyph name="greater" format="2">
  <advance width="1248"/>
  <unicode hex="003E"/>
  <outline>
    <contour>
      <point x="224" y="181" type="line"/>
      <point x="1113" y="690" type="line"/>
      <point x="224" y="1198" type="line"/>
      <point x="169" y="1102" type="line"/>
      <point x="913" y="690" type="line"/>
      <point x="169" y="278" type="line"/>
    </contour>
  </outline>
</glyph>
<glyph name="question" format="2">
  <advance width="1072"/>
  <unicode hex="003F"/>
  <outline>
    <contour>
      <point x="545" y="387" type="line"/>
      <point x="586" y="565" type="line" smooth="yes"/>
      <point x="614" y="685"/>
      <point x="707" y="740"/>
      <point x="807" y="796" type="curve" smooth="yes"/>
      <point x="968" y="887"/>
      <point x="1087" y="978"/>
      <point x="1094" y="1189" type="curve" smooth="yes"/>
      <point x="1100" y="1369"/>
      <point x="969" y="1468"/>
      <point x="752" y="1468" type="curve" smooth="yes"/>
      <point x="508" y="1468"/>
      <point x="310" y="1324"/>
      <point x="255" y="1091" type="curve"/>
      <point x="335" y="1091" type="line"/>
      <point x="380" y="1275"/>
      <point x="532" y="1392"/>
      <point x="734" y="1392" type="curve" smooth="yes"/>
      <point x="921" y="1392"/>
      <point x="1016" y="1314"/>
      <point x="1012" y="1177" type="curve" smooth="yes"/>
      <point x="1006" y="1005"/>
      <point x="905" y="929"/>
      <point x="756" y="847" type="curve"/>
      <point x="652" y="786"/>
      <point x="544" y="724"/>
      <point x="509" y="571" type="curve" smooth="yes"/>
      <point x="467" y="387" type="line"/>
    </contour>
    <contour>
      <point x="513" y="0" type="line"/>
      <point x="548" y="152" type="line"/>
      <point x="392" y="152" type="line"/>
      <point x="357" y="0" type="line"/>
    </contour>
  </outline>
</glyph>
<glyph name="at" format="2">
  <advance width="2127"/>
  <unicode hex="0040"/>
  <outline>
    <contour>
      <point x="865" y="-357" type="curve" smooth="yes"/>
      <point x="973" y="-357"/>
      <point x="1074" y="-340"/>
      <point x="1178" y="-307" type="curve"/>
      <point x="1145" y="-183" type="line"/>
      <point x="1057" y="-211"/>
      <point x="966" y="-224"/>
      <point x="874" y="-224" type="curve" smooth="yes"/>
      <point x="706" y="-224"/>
      <point x="556" y="-179"/>
      <point x="446" y="-89" type="curve" smooth="yes"/>
      <point x="336" y="3"/>
      <point x="268" y="138"/>
      <point x="268" y="317" type="curve" smooth="yes"/>
      <point x="268" y="405"/>
      <point x="281" y="493"/>
      <point x="306" y="579" type="curve" smooth="yes"/>
      <point x="356" y="749"/>
      <point x="447" y="903"/>
      <point x="572" y="1031" type="curve" smooth="yes"/>
      <point x="634" y="1095"/>
      <point x="703" y="1150"/>
      <point x="778" y="1196" type="curve" smooth="yes"/>
      <point x="927" y="1287"/>
      <point x="1098" y="1343"/>
      <point x="1278" y="1343" type="curve" smooth="yes"/>
      <point x="1450" y="1343"/>
      <point x="1600" y="1293"/>
      <point x="1707" y="1199" type="curve" smooth="yes"/>
      <point x="1814" y="1103"/>
      <point x="1877" y="964"/>
      <point x="1877" y="785" type="curve" smooth="yes"/>
      <point x="1877" y="740"/>
      <point x="1873" y="692"/>
      <point x="1865" y="639" type="curve" smooth="yes"/>
      <point x="1848" y="533"/>
      <point x="1814" y="423"/>
      <point x="1762" y="324" type="curve" smooth="yes"/>
      <point x="1736" y="275"/>
      <point x="1705" y="231"/>
      <point x="1671" y="193" type="curve" smooth="yes"/>
      <point x="1601" y="116"/>
      <point x="1510" y="66"/>
      <point x="1403" y="66" type="curve" smooth="yes"/>
      <point x="1368" y="66"/>
      <point x="1338" y="78"/>
      <point x="1320" y="103" type="curve"/>
      <point x="1300" y="128"/>
      <point x="1288" y="164"/>
      <point x="1288" y="210" type="curve" smooth="yes"/>
      <point x="1288" y="244"/>
      <point x="1291" y="269"/>
      <point x="1300" y="297" type="curve"/>
      <point x="1308" y="325"/>
      <point x="1324" y="359"/>
      <point x="1348" y="407" type="curve"/>
      <point x="1622" y="998" type="line"/>
      <point x="1488" y="1004" type="line"/>
      <point x="1413" y="827" type="line"/>
      <point x="1415" y="903"/>
      <point x="1390" y="959"/>
      <point x="1349" y="997" type="curve" smooth="yes"/>
      <point x="1308" y="1035"/>
      <point x="1246" y="1054"/>
      <point x="1178" y="1054" type="curve" smooth="yes"/>
      <point x="1127" y="1054"/>
      <point x="1076" y="1043"/>
      <point x="1025" y="1021" type="curve" smooth="yes"/>
      <point x="925" y="977"/>
      <point x="833" y="903"/>
      <point x="758" y="806" type="curve" smooth="yes"/>
      <point x="720" y="757"/>
      <point x="688" y="707"/>
      <point x="660" y="654" type="curve" smooth="yes"/>
      <point x="606" y="548"/>
      <point x="572" y="435"/>
      <point x="572" y="338" type="curve" smooth="yes"/>
      <point x="572" y="260"/>
      <point x="592" y="193"/>
      <point x="634" y="148" type="curve"/>
      <point x="674" y="102"/>
      <point x="736" y="76"/>
      <point x="820" y="76" type="curve" smooth="yes"/>
      <point x="890" y="76"/>
      <point x="961" y="96"/>
      <point x="1024" y="128" type="curve" smooth="yes"/>
      <point x="1086" y="160"/>
      <point x="1145" y="205"/>
      <point x="1190" y="257" type="curve"/>
      <point x="1167" y="177"/>
      <point x="1177" y="102"/>
      <point x="1214" y="46" type="curve" smooth="yes"/>
      <point x="1252" y="-11"/>
      <point x="1316" y="-46"/>
      <point x="1395" y="-46" type="curve" smooth="yes"/>
      <point x="1461" y="-46"/>
      <point x="1522" y="-33"/>
      <point x="1578" y="-7" type="curve" smooth="yes"/>
      <point x="1690" y="45"/>
      <point x="1780" y="135"/>
      <point x="1849" y="249" type="curve" smooth="yes"/>
      <point x="1883" y="306"/>
      <point x="1911" y="365"/>
      <point x="1934" y="427" type="curve" smooth="yes"/>
      <point x="1979" y="551"/>
      <point x="2002" y="683"/>
      <point x="2002" y="796" type="curve" smooth="yes"/>
      <point x="2002" y="1010"/>
      <point x="1926" y="1177"/>
      <point x="1799" y="1291" type="curve" smooth="yes"/>
      <point x="1672" y="1405"/>
      <point x="1495" y="1466"/>
      <point x="1294" y="1466" type="curve" smooth="yes"/>
      <point x="1191" y="1466"/>
      <point x="1092" y="1452"/>
      <point x="995" y="1424" type="curve" smooth="yes"/>
      <point x="801" y="1367"/>
      <point x="627" y="1262"/>
      <point x="485" y="1118" type="curve" smooth="yes"/>
      <point x="414" y="1046"/>
      <point x="354" y="967"/>
      <point x="303" y="881" type="curve" smooth="yes"/>
      <point x="202" y="709"/>
      <point x="142" y="510"/>
      <point x="142" y="301" type="curve" smooth="yes"/>
      <point x="142" y="88"/>
      <point x="223" y="-78"/>
      <point x="353" y="-189" type="curve" smooth="yes"/>
      <point x="483" y="-300"/>
      <point x="663" y="-357"/>
    </contour>
    <contour>
      <point x="848" y="209" type="curve" smooth="yes"/>
      <point x="747" y="209"/>
      <point x="690" y="249"/>
      <point x="690" y="354" type="curve" smooth="yes"/>
      <point x="690" y="394"/>
      <point x="696" y="437"/>
      <point x="709" y="481" type="curve" smooth="yes"/>
      <point x="735" y="571"/>
      <point x="781" y="659"/>
      <point x="844" y="742" type="curve" smooth="yes"/>
      <point x="875" y="782"/>
      <point x="909" y="819"/>
      <point x="946" y="849" type="curve" smooth="yes"/>
      <point x="1020" y="912"/>
      <point x="1102" y="952"/>
      <point x="1184" y="952" type="curve" smooth="yes"/>
      <point x="1232" y="952"/>
      <point x="1274" y="933"/>
      <point x="1303" y="903" type="curve" smooth="yes"/>
      <point x="1332" y="872"/>
      <point x="1349" y="828"/>
      <point x="1349" y="777" type="curve" smooth="yes"/>
      <point x="1349" y="736"/>
      <point x="1342" y="695"/>
      <point x="1329" y="651" type="curve" smooth="yes"/>
      <point x="1302" y="564"/>
      <point x="1255" y="477"/>
      <point x="1192" y="402" type="curve" smooth="yes"/>
      <point x="1160" y="364"/>
      <point x="1126" y="331"/>
      <point x="1089" y="302" type="curve" smooth="yes"/>
      <point x="1014" y="245"/>
      <point x="932" y="209"/>
    </contour>
  </outline>
</glyph>
<glyph name="A" format="2">
  <advance width="1323"/>
  <unicode hex="0041"/>
  <anchor x="835" y="1620" name="top"/>
  <anchor x="1104" y="0" name="ogonek"/>
  <anchor x="543" y="-120" name="bottom"/>
  <outline>
    <contour>
      <point x="1104" y="0" type="line"/>
      <point x="918" y="1448" type="line"/>
      <point x="838" y="1448" type="line"/>
      <point x="-19" y="0" type="line"/>
      <point x="95" y="0" type="line"/>
      <point x="850" y="1300" type="line"/>
      <point x="998" y="0" type="line"/>
    </contour>
    <contour>
      <point x="981" y="416" type="line"/>
      <point x="300" y="416" type="line"/>
      <point x="244" y="320" type="line"/>
      <point x="992" y="320" type="line"/>
    </contour>
  </outline>
  <guideline angle="90" name="vertical" x="837" y="0"/>
</glyph>
<glyph name="B" format="2">
  <advance width="1270"/>
  <unicode hex="0042"/>
  <outline>
    <contour>
      <point x="581" y="0" type="line" smooth="yes"/>
      <point x="877" y="0"/>
      <point x="1073" y="139"/>
      <point x="1131" y="395" type="curve" smooth="yes"/>
      <point x="1178" y="599"/>
      <point x="1106" y="730"/>
      <point x="938" y="767" type="curve"/>
      <point x="1082" y="817"/>
      <point x="1182" y="934"/>
      <point x="1217" y="1089" type="curve" smooth="yes"/>
      <point x="1267" y="1315"/>
      <point x="1142" y="1448"/>
      <point x="879" y="1448" type="curve" smooth="yes"/>
      <point x="459" y="1448" type="line"/>
      <point x="125" y="0" type="line"/>
    </contour>
    <contour>
      <point x="390" y="704" type="line"/>
      <point x="799" y="704" type="line" smooth="yes"/>
      <point x="973" y="704"/>
      <point x="1078" y="607"/>
      <point x="1031" y="401" type="curve" smooth="yes"/>
      <point x="985" y="198"/>
      <point x="842" y="93"/>
      <point x="596" y="93" type="curve" smooth="yes"/>
      <point x="249" y="93" type="line"/>
    </contour>
    <contour>
      <point x="539" y="1355" type="line"/>
      <point x="856" y="1355" type="line" smooth="yes"/>
      <point x="1060" y="1355"/>
      <point x="1153" y="1255"/>
      <point x="1113" y="1079" type="curve" smooth="yes"/>
      <point x="1074" y="908"/>
      <point x="941" y="800"/>
      <point x="774" y="800" type="curve" smooth="yes"/>
      <point x="411" y="800" type="line"/>
    </contour>
  </outline>
</glyph>
<glyph name="C" format="2">
  <advance width="1458"/>
  <unicode hex="0043"/>
  <outline>
    <contour>
      <point x="641" y="-20" type="qcurve" smooth="yes"/>
      <point x="742" y="-20"/>
      <point x="927" y="34"/>
      <point x="1090" y="130"/>
      <point x="1228" y="265"/>
      <point x="1285" y="347" type="qcurve"/>
      <point x="1191" y="401" type="line"/>
      <point x="1101" y="251"/>
      <point x="833" y="93"/>
      <point x="656" y="93" type="qcurve" smooth="yes"/>
      <point x="557" y="93"/>
      <point x="410" y="144"/>
      <point x="312" y="246"/>
      <point x="265" y="397"/>
      <point x="265" y="494" type="qcurve" smooth="yes"/>
      <point x="265" y="592"/>
      <point x="303" y="796"/>
      <point x="380" y="989"/>
      <point x="493" y="1159"/>
      <point x="643" y="1286"/>
      <point x="830" y="1360"/>
      <point x="940" y="1360" type="qcurve" smooth="yes"/>
      <point x="1014" y="1360"/>
      <point x="1154" y="1328"/>
      <point x="1264" y="1254"/>
      <point x="1335" y="1139"/>
      <point x="1343" y="1056" type="qcurve"/>
      <point x="1446" y="1100" type="line"/>
      <point x="1429" y="1195"/>
      <point x="1342" y="1334"/>
      <point x="1213" y="1425"/>
      <point x="1050" y="1470"/>
      <point x="958" y="1470" type="qcurve" smooth="yes"/>
      <point x="828" y="1470"/>
      <point x="608" y="1389"/>
      <point x="427" y="1246"/>
      <point x="288" y="1056"/>
      <point x="194" y="837"/>
      <point x="145" y="602"/>
      <point x="145" y="488" type="qcurve" smooth="yes"/>
      <point x="145" y="368"/>
      <point x="210" y="180"/>
      <point x="335" y="49"/>
      <point x="520" y="-20"/>
    </contour>
  </outline>
</glyph>
<glyph name="D" format="2">
  <advance width="1450"/>
  <unicode hex="0044"/>
  <outline>
    <contour>
      <point x="467" y="0" type="line" smooth="yes"/>
      <point x="677" y="0"/>
      <point x="1013" y="146"/>
      <point x="1249" y="400"/>
      <point x="1375" y="743"/>
      <point x="1375" y="940" type="qcurve" smooth="yes"/>
      <point x="1375" y="1096"/>
      <point x="1269" y="1292"/>
      <point x="1093" y="1406"/>
      <point x="862" y="1447"/>
      <point x="738" y="1447" type="qcurve" smooth="yes"/>
      <point x="454" y="1447" type="line"/>
      <point x="121" y="0" type="line"/>
    </contour>
    <contour>
      <point x="458" y="104" type="qcurve" smooth="yes"/>
      <point x="260" y="104" type="line"/>
      <point x="547" y="1348" type="line"/>
      <point x="776" y="1348" type="line" smooth="yes"/>
      <point x="881" y="1348"/>
      <point x="1058" y="1302"/>
      <point x="1189" y="1202"/>
      <point x="1262" y="1041"/>
      <point x="1262" y="928" type="qcurve" smooth="yes"/>
      <point x="1262" y="759"/>
      <point x="1141" y="458"/>
      <point x="927" y="234"/>
      <point x="633" y="104"/>
    </contour>
  </outline>
</glyph>
<glyph name="E" format="2">
  <advance width="1279"/>
  <unicode hex="0045"/>
  <anchor x="881" y="1620" name="top"/>
  <anchor x="1046" y="0" name="ogonek"/>
  <anchor x="550" y="-120" name="bottom"/>
  <outline>
    <contour>
      <point x="1046" y="0" type="line"/>
      <point x="1065" y="88" type="line"/>
      <point x="247" y="88" type="line"/>
      <point x="384" y="682" type="line"/>
      <point x="1071" y="682" type="line"/>
      <point x="1089" y="765" type="line"/>
      <point x="404" y="765" type="line"/>
      <point x="542" y="1368" type="line"/>
      <point x="1361" y="1368" type="line"/>
      <point x="1379" y="1448" type="line"/>
      <point x="458" y="1448" type="line"/>
      <point x="125" y="0" type="line"/>
    </contour>
  </outline>
  <guideline angle="90" name="vertical" x="871" y="0"/>
</glyph>
<glyph name="F" format="2">
  <advance width="1226"/>
  <unicode hex="0046"/>
  <outline>
    <contour>
      <point x="244" y="0" type="line"/>
      <point x="398" y="675" type="line"/>
      <point x="1076" y="675" type="line"/>
      <point x="1100" y="774" type="line"/>
      <point x="424" y="774" type="line"/>
      <point x="553" y="1343" type="line"/>
      <point x="1320" y="1343" type="line"/>
      <point x="1346" y="1448" type="line"/>
      <point x="451" y="1448" type="line"/>
      <point x="118" y="0" type="line"/>
    </contour>
  </outline>
</glyph>
<glyph name="G" format="2">
  <advance width="1542"/>
  <unicode hex="0047"/>
  <outline>
    <contour>
      <point x="667" y="-20" type="curve" smooth="yes"/>
      <point x="778" y="-20"/>
      <point x="888" y="7"/>
      <point x="985" y="60" type="curve" smooth="yes"/>
      <point x="1081" y="114"/>
      <point x="1163" y="191"/>
      <point x="1220" y="290" type="curve"/>
      <point x="1145" y="0" type="line"/>
      <point x="1255" y="0" type="line"/>
      <point x="1419" y="713" type="line"/>
      <point x="870" y="713" type="line"/>
      <point x="848" y="623" type="line"/>
      <point x="1281" y="623" type="line"/>
      <point x="1247" y="478"/>
      <point x="1172" y="346"/>
      <point x="1067" y="253" type="curve" smooth="yes"/>
      <point x="962" y="159"/>
      <point x="827" y="101"/>
      <point x="671" y="101" type="curve" smooth="yes"/>
      <point x="542" y="101"/>
      <point x="448" y="140"/>
      <point x="385" y="208" type="curve" smooth="yes"/>
      <point x="322" y="276"/>
      <point x="292" y="377"/>
      <point x="292" y="503" type="curve" smooth="yes"/>
      <point x="292" y="569"/>
      <point x="299" y="635"/>
      <point x="312" y="702" type="curve" smooth="yes"/>
      <point x="340" y="836"/>
      <point x="394" y="962"/>
      <point x="471" y="1071" type="curve" smooth="yes"/>
      <point x="510" y="1125"/>
      <point x="554" y="1173"/>
      <point x="605" y="1214" type="curve" smooth="yes"/>
      <point x="708" y="1295"/>
      <point x="832" y="1345"/>
      <point x="977" y="1345" type="curve" smooth="yes"/>
      <point x="1077" y="1345"/>
      <point x="1160" y="1321"/>
      <point x="1224" y="1272" type="curve" smooth="yes"/>
      <point x="1288" y="1223"/>
      <point x="1333" y="1150"/>
      <point x="1357" y="1050" type="curve"/>
      <point x="1482" y="1091" type="line"/>
      <point x="1453" y="1216"/>
      <point x="1391" y="1311"/>
      <point x="1306" y="1376" type="curve" smooth="yes"/>
      <point x="1221" y="1439"/>
      <point x="1111" y="1470"/>
      <point x="986" y="1470" type="curve" smooth="yes"/>
      <point x="902" y="1470"/>
      <point x="823" y="1456"/>
      <point x="749" y="1429" type="curve" smooth="yes"/>
      <point x="601" y="1375"/>
      <point x="481" y="1278"/>
      <point x="386" y="1151" type="curve" smooth="yes"/>
      <point x="338" y="1088"/>
      <point x="298" y="1019"/>
      <point x="266" y="947" type="curve" smooth="yes"/>
      <point x="200" y="800"/>
      <point x="166" y="640"/>
      <point x="166" y="489" type="curve" smooth="yes"/>
      <point x="166" y="328"/>
      <point x="209" y="201"/>
      <point x="294" y="113" type="curve" smooth="yes"/>
      <point x="379" y="26"/>
      <point x="504" y="-20"/>
    </contour>
  </outline>
</glyph>
<glyph name="H" format="2">
  <advance width="1489"/>
  <unicode hex="0048"/>
  <outline>
    <contour>
      <point x="1133" y="0" type="line"/>
      <point x="1467" y="1448" type="line"/>
      <point x="1351" y="1448" type="line"/>
      <point x="1197" y="767" type="line"/>
      <point x="416" y="767" type="line"/>
      <point x="570" y="1448" type="line"/>
      <point x="456" y="1448" type="line"/>
      <point x="123" y="0" type="line"/>
      <point x="237" y="0" type="line"/>
      <point x="392" y="682" type="line"/>
      <point x="1173" y="682" type="line"/>
      <point x="1019" y="0" type="line"/>
    </contour>
  </outline>
</glyph>
<glyph name="I" format="2">
  <advance width="591"/>
  <unicode hex="0049"/>
  <anchor x="524" y="1620" name="top"/>
  <anchor x="232" y="0" name="ogonek"/>
  <anchor x="163" y="-120" name="bottom"/>
  <outline>
    <contour>
      <point x="230" y="0" type="line"/>
      <point x="563" y="1448" type="line"/>
      <point x="461" y="1448" type="line"/>
      <point x="128" y="0" type="line"/>
    </contour>
  </outline>
  <guideline angle="90" name="vertical" x="519" y="0"/>
</glyph>
<glyph name="J" format="2">
  <advance width="1153"/>
  <unicode hex="004A"/>
  <outline>
    <contour>
      <point x="430" y="-20" type="qcurve" smooth="yes"/>
      <point x="569" y="-20"/>
      <point x="751" y="97"/>
      <point x="875" y="311"/>
      <point x="960" y="610"/>
      <point x="1001" y="792" type="qcurve" smooth="yes"/>
      <point x="1152" y="1447" type="line"/>
      <point x="1036" y="1447" type="line"/>
      <point x="816" y="491" type="line" smooth="yes"/>
      <point x="796" y="404"/>
      <point x="733" y="254"/>
      <point x="631" y="140"/>
      <point x="490" y="73"/>
      <point x="392" y="73" type="qcurve" smooth="yes"/>
      <point x="337" y="73"/>
      <point x="256" y="111"/>
      <point x="205" y="175"/>
      <point x="180" y="264"/>
      <point x="180" y="316" type="qcurve" smooth="yes"/>
      <point x="180" y="335"/>
      <point x="183" y="374"/>
      <point x="186" y="395" type="qcurve"/>
      <point x="75" y="386" type="line"/>
      <point x="71" y="368"/>
      <point x="67" y="328"/>
      <point x="67" y="306" type="qcurve" smooth="yes"/>
      <point x="67" y="218"/>
      <point x="122" y="93"/>
      <point x="218" y="15"/>
      <point x="351" y="-20"/>
    </contour>
  </outline>
</glyph>
<glyph name="K" format="2">
  <advance width="1483"/>
  <unicode hex="004B"/>
  <outline>
    <contour>
      <point x="1245" y="0" type="line"/>
      <point x="878" y="885" type="line"/>
      <point x="1544" y="1447" type="line"/>
      <point x="1377" y="1447" type="line"/>
      <point x="344" y="568" type="line"/>
      <point x="548" y="1447" type="line"/>
      <point x="421" y="1447" type="line"/>
      <point x="87" y="0" type="line"/>
      <point x="214" y="0" type="line"/>
      <point x="308" y="406" type="line"/>
      <point x="774" y="795" type="line"/>
      <point x="1102" y="0" type="line"/>
    </contour>
  </outline>
</glyph>
<glyph name="L" format="2">
  <advance width="1062"/>
  <unicode hex="004C"/>
  <outline>
    <contour>
      <point x="848" y="0" type="line"/>
      <point x="867" y="88" type="line"/>
      <point x="248" y="88" type="line"/>
      <point x="562" y="1448" type="line"/>
      <point x="459" y="1448" type="line"/>
      <point x="126" y="0" type="line"/>
    </contour>
  </outline>
  <guideline angle="90" name="vertical" x="504" y="0"/>
</glyph>
<glyph name="M" format="2">
  <advance width="1797"/>
  <unicode hex="004D"/>
  <outline>
    <contour>
      <point x="1406" y="0" type="line"/>
      <point x="1739" y="1447" type="line"/>
      <point x="1561" y="1447" type="line"/>
      <point x="789" y="200" type="line"/>
      <point x="593" y="1447" type="line"/>
      <point x="426" y="1447" type="line"/>
      <point x="92" y="0" type="line"/>
      <point x="198" y="0" type="line"/>
      <point x="522" y="1377" type="line"/>
      <point x="712" y="126" type="line"/>
      <point x="841" y="126" type="line"/>
      <point x="1621" y="1377" type="line"/>
      <point x="1301" y="0" type="line"/>
    </contour>
  </outline>
</glyph>
<glyph name="N" format="2">
  <advance width="1448"/>
  <unicode hex="004E"/>
  <outline>
    <contour>
      <point x="1072" y="0" type="line"/>
      <point x="1405" y="1447" type="line"/>
      <point x="1278" y="1447" type="line"/>
      <point x="968" y="112" type="line"/>
      <point x="629" y="1447" type="line"/>
      <point x="421" y="1447" type="line"/>
      <point x="87" y="0" type="line"/>
      <point x="216" y="0" type="line"/>
      <point x="524" y="1337" type="line"/>
      <point x="860" y="0" type="line"/>
    </contour>
  </outline>
</glyph>
<glyph name="O" format="2">
  <advance width="1604"/>
  <unicode hex="004F"/>
  <outline>
    <contour>
      <point x="679" y="-14" type="curve" smooth="yes"/>
      <point x="1192" y="-14"/>
      <point x="1522" y="475"/>
      <point x="1522" y="948" type="curve" smooth="yes"/>
      <point x="1522" y="1247"/>
      <point x="1360" y="1454"/>
      <point x="1018" y="1454" type="curve" smooth="yes"/>
      <point x="505" y="1454"/>
      <point x="174" y="966"/>
      <point x="174" y="493" type="curve" smooth="yes"/>
      <point x="174" y="193"/>
      <point x="337" y="-14"/>
    </contour>
    <contour>
      <point x="700" y="76" type="curve" smooth="yes"/>
      <point x="411" y="76"/>
      <point x="276" y="254"/>
      <point x="276" y="510" type="curve" smooth="yes"/>
      <point x="276" y="916"/>
      <point x="550" y="1364"/>
      <point x="997" y="1364" type="curve" smooth="yes"/>
      <point x="1285" y="1364"/>
      <point x="1420" y="1186"/>
      <point x="1420" y="930" type="curve" smooth="yes"/>
      <point x="1420" y="524"/>
      <point x="1147" y="76"/>
    </contour>
  </outline>
</glyph>
<glyph name="P" format="2">
  <advance width="1182"/>
  <unicode hex="0050"/>
  <outline>
    <contour>
      <point x="229" y="0" type="line"/>
      <point x="384" y="686" type="line"/>
      <point x="577" y="686" type="line" smooth="yes"/>
      <point x="886" y="686"/>
      <point x="1192" y="798"/>
      <point x="1192" y="1159" type="curve" smooth="yes"/>
      <point x="1192" y="1366"/>
      <point x="1013" y="1447"/>
      <point x="832" y="1447" type="curve" smooth="yes"/>
      <point x="459" y="1447" type="line"/>
      <point x="126" y="0" type="line"/>
    </contour>
    <contour>
      <point x="678" y="768" type="curve" smooth="yes"/>
      <point x="404" y="768" type="line"/>
      <point x="544" y="1363" type="line"/>
      <point x="822" y="1363" type="line" smooth="yes"/>
      <point x="944" y="1363"/>
      <point x="1093" y="1328"/>
      <point x="1093" y="1154" type="curve" smooth="yes"/>
      <point x="1093" y="913"/>
      <point x="909" y="768"/>
    </contour>
  </outline>
</glyph>
<glyph name="Q" format="2">
  <advance width="1589"/>
  <unicode hex="0051"/>
  <outline>
    <contour>
      <point x="1240" y="-89" type="line"/>
      <point x="1324" y="-13" type="line"/>
      <point x="1164" y="205" type="line"/>
      <point x="1231" y="271"/>
      <point x="1339" y="452"/>
      <point x="1414" y="653"/>
      <point x="1453" y="861"/>
      <point x="1453" y="955" type="qcurve" smooth="yes"/>
      <point x="1453" y="1073"/>
      <point x="1389" y="1264"/>
      <point x="1265" y="1398"/>
      <point x="1080" y="1469"/>
      <point x="960" y="1469" type="qcurve" smooth="yes"/>
      <point x="833" y="1469"/>
      <point x="614" y="1390"/>
      <point x="433" y="1250"/>
      <point x="293" y="1061"/>
      <point x="196" y="843"/>
      <point x="145" y="608"/>
      <point x="145" y="492" type="qcurve" smooth="yes"/>
      <point x="145" y="374"/>
      <point x="208" y="184"/>
      <point x="332" y="50"/>
      <point x="516" y="-20"/>
      <point x="638" y="-20" type="qcurve" smooth="yes"/>
      <point x="760" y="-20"/>
      <point x="983" y="46"/>
      <point x="1081" y="125" type="qcurve"/>
    </contour>
    <contour>
      <point x="655" y="86" type="qcurve" smooth="yes"/>
      <point x="558" y="86"/>
      <point x="414" y="142"/>
      <point x="317" y="246"/>
      <point x="268" y="396"/>
      <point x="268" y="489" type="qcurve" smooth="yes"/>
      <point x="268" y="588"/>
      <point x="305" y="793"/>
      <point x="378" y="988"/>
      <point x="491" y="1159"/>
      <point x="640" y="1287"/>
      <point x="829" y="1361"/>
      <point x="942" y="1361" type="qcurve" smooth="yes"/>
      <point x="1043" y="1361"/>
      <point x="1190" y="1305"/>
      <point x="1287" y="1195"/>
      <point x="1334" y="1041"/>
      <point x="1334" y="945" type="qcurve" smooth="yes"/>
      <point x="1334" y="864"/>
      <point x="1301" y="685"/>
      <point x="1240" y="511"/>
      <point x="1154" y="352"/>
      <point x="1100" y="289" type="qcurve"/>
      <point x="954" y="486" type="line"/>
      <point x="873" y="406" type="line"/>
      <point x="1017" y="207" type="line"/>
      <point x="937" y="144"/>
      <point x="756" y="86"/>
    </contour>
  </outline>
</glyph>
<glyph name="R" format="2">
  <advance width="1241"/>
  <unicode hex="0052"/>
  <outline>
    <contour>
      <point x="992" y="-2" type="line"/>
      <point x="772" y="683" type="line"/>
      <point x="1004" y="713"/>
      <point x="1188" y="905"/>
      <point x="1188" y="1144" type="curve" smooth="yes"/>
      <point x="1188" y="1343"/>
      <point x="1020" y="1448"/>
      <point x="837" y="1448" type="curve" smooth="yes"/>
      <point x="460" y="1448" type="line"/>
      <point x="126" y="-2" type="line"/>
      <point x="227" y="-2" type="line"/>
      <point x="382" y="665" type="line"/>
      <point x="676" y="665" type="line"/>
      <point x="885" y="-2" type="line"/>
    </contour>
    <contour>
      <point x="727" y="749" type="curve" smooth="yes"/>
      <point x="403" y="749" type="line"/>
      <point x="543" y="1360" type="line"/>
      <point x="827" y="1360" type="line" smooth="yes"/>
      <point x="949" y="1360"/>
      <point x="1093" y="1307"/>
      <point x="1093" y="1142" type="curve" smooth="yes"/>
      <point x="1093" y="912"/>
      <point x="941" y="749"/>
    </contour>
  </outline>
  <guideline angle="90" name="vertical" x="798" y="0"/>
</glyph>
<glyph name="S" format="2">
  <advance width="1140"/>
  <unicode hex="0053"/>
  <outline>
    <contour>
      <point x="491" y="-16" type="curve" smooth="yes"/>
      <point x="620" y="-16"/>
      <point x="747" y="30"/>
      <point x="841" y="111" type="curve" smooth="yes"/>
      <point x="936" y="192"/>
      <point x="996" y="306"/>
      <point x="996" y="443" type="curve" smooth="yes"/>
      <point x="996" y="541"/>
      <point x="962" y="608"/>
      <point x="912" y="661" type="curve" smooth="yes"/>
      <point x="862" y="713"/>
      <point x="795" y="749"/>
      <point x="727" y="783" type="curve" smooth="yes"/>
      <point x="660" y="816"/>
      <point x="592" y="848"/>
      <point x="542" y="889" type="curve" smooth="yes"/>
      <point x="491" y="931"/>
      <point x="457" y="983"/>
      <point x="457" y="1060" type="curve" smooth="yes"/>
      <point x="457" y="1149"/>
      <point x="500" y="1224"/>
      <point x="563" y="1275" type="curve" smooth="yes"/>
      <point x="626" y="1327"/>
      <point x="710" y="1356"/>
      <point x="792" y="1356" type="curve" smooth="yes"/>
      <point x="847" y="1356"/>
      <point x="896" y="1341"/>
      <point x="937" y="1315" type="curve" smooth="yes"/>
      <point x="977" y="1289"/>
      <point x="1008" y="1249"/>
      <point x="1028" y="1197" type="curve"/>
      <point x="1129" y="1249" type="line"/>
      <point x="1102" y="1323"/>
      <point x="1058" y="1378"/>
      <point x="1000" y="1414" type="curve" smooth="yes"/>
      <point x="942" y="1451"/>
      <point x="874" y="1468"/>
      <point x="797" y="1468" type="curve" smooth="yes"/>
      <point x="676" y="1468"/>
      <point x="560" y="1423"/>
      <point x="475" y="1346" type="curve" smooth="yes"/>
      <point x="389" y="1269"/>
      <point x="332" y="1161"/>
      <point x="332" y="1036" type="curve" smooth="yes"/>
      <point x="332" y="944"/>
      <point x="366" y="881"/>
      <point x="416" y="830" type="curve" smooth="yes"/>
      <point x="467" y="778"/>
      <point x="533" y="744"/>
      <point x="601" y="709" type="curve" smooth="yes"/>
      <point x="669" y="674"/>
      <point x="737" y="641"/>
      <point x="787" y="596" type="curve" smooth="yes"/>
      <point x="837" y="551"/>
      <point x="870" y="495"/>
      <point x="870" y="415" type="curve" smooth="yes"/>
      <point x="870" y="310"/>
      <point x="824" y="232"/>
      <point x="752" y="180" type="curve" smooth="yes"/>
      <point x="680" y="127"/>
      <point x="585" y="101"/>
      <point x="491" y="101" type="curve" smooth="yes"/>
      <point x="400" y="101"/>
      <point x="324" y="127"/>
      <point x="273" y="176" type="curve" smooth="yes"/>
      <point x="220" y="225"/>
      <point x="191" y="296"/>
      <point x="191" y="386" type="curve"/>
      <point x="70" y="361" type="line"/>
      <point x="70" y="238"/>
      <point x="117" y="145"/>
      <point x="193" y="81" type="curve" smooth="yes"/>
      <point x="270" y="16"/>
      <point x="374" y="-16"/>
    </contour>
  </outline>
</glyph>
<glyph name="T" format="2">
  <advance width="1082"/>
  <unicode hex="0054"/>
  <outline>
    <contour>
      <point x="484" y="0" type="line"/>
      <point x="798" y="1356" type="line"/>
      <point x="1303" y="1356" type="line"/>
      <point x="1323" y="1448" type="line"/>
      <point x="195" y="1448" type="line"/>
      <point x="175" y="1356" type="line"/>
      <point x="681" y="1356" type="line"/>
      <point x="367" y="0" type="line"/>
    </contour>
  </outline>
</glyph>
<glyph name="U" format="2">
  <advance width="1385"/>
  <unicode hex="0055"/>
  <outline>
    <contour>
      <point x="580" y="-20" type="curve" smooth="yes"/>
      <point x="755" y="-20"/>
      <point x="891" y="47"/>
      <point x="992" y="154" type="curve" smooth="yes"/>
      <point x="1093" y="261"/>
      <point x="1158" y="405"/>
      <point x="1194" y="559" type="curve" smooth="yes"/>
      <point x="1398" y="1447" type="line"/>
      <point x="1271" y="1447" type="line"/>
      <point x="1069" y="576" type="line" smooth="yes"/>
      <point x="1040" y="450"/>
      <point x="993" y="330"/>
      <point x="916" y="242" type="curve" smooth="yes"/>
      <point x="839" y="153"/>
      <point x="732" y="97"/>
      <point x="585" y="97" type="curve" smooth="yes"/>
      <point x="494" y="97"/>
      <point x="426" y="120"/>
      <point x="383" y="164" type="curve" smooth="yes"/>
      <point x="340" y="209"/>
      <point x="319" y="278"/>
      <point x="319" y="370" type="curve" smooth="yes"/>
      <point x="319" y="409"/>
      <point x="331" y="480"/>
      <point x="346" y="558" type="curve" smooth="yes"/>
      <point x="361" y="636"/>
      <point x="381" y="722"/>
      <point x="397" y="790" type="curve" smooth="yes"/>
      <point x="549" y="1447" type="line"/>
      <point x="422" y="1447" type="line"/>
      <point x="266" y="781" type="line" smooth="yes"/>
      <point x="250" y="712"/>
      <point x="230" y="627"/>
      <point x="215" y="549" type="curve" smooth="yes"/>
      <point x="200" y="471"/>
      <point x="189" y="402"/>
      <point x="189" y="363" type="curve" smooth="yes"/>
      <point x="189" y="236"/>
      <point x="226" y="141"/>
      <point x="294" y="77" type="curve" smooth="yes"/>
      <point x="363" y="12"/>
      <point x="460" y="-20"/>
    </contour>
  </outline>
</glyph>
<glyph name="V" format="2">
  <advance width="1304"/>
  <unicode hex="0056"/>
  <outline>
    <contour>
      <point x="585" y="0" type="line"/>
      <point x="1440" y="1448" type="line"/>
      <point x="1339" y="1448" type="line"/>
      <point x="554" y="92" type="line"/>
      <point x="391" y="1448" type="line"/>
      <point x="290" y="1448" type="line"/>
      <point x="480" y="0" type="line"/>
    </contour>
  </outline>
</glyph>
<glyph name="W" format="2">
  <advance width="2016"/>
  <unicode hex="0057"/>
  <outline>
    <contour>
      <point x="1357" y="0" type="line"/>
      <point x="2089" y="1447" type="line"/>
      <point x="1960" y="1447" type="line"/>
      <point x="1302" y="136" type="line"/>
      <point x="1228" y="1447" type="line"/>
      <point x="1123" y="1447" type="line"/>
      <point x="446" y="136" type="line"/>
      <point x="389" y="1447" type="line"/>
      <point x="263" y="1447" type="line"/>
      <point x="326" y="0" type="line"/>
      <point x="483" y="0" type="line"/>
      <point x="1128" y="1237" type="line"/>
      <point x="1200" y="0" type="line"/>
    </contour>
  </outline>
</glyph>
<glyph name="X" format="2">
  <advance width="1318"/>
  <unicode hex="0058"/>
  <anchor x="562" y="0" name="bottom"/>
  <anchor x="840" y="1427" name="top"/>
  <outline>
    <contour>
      <point x="119" y="0" type="line"/>
      <point x="747" y="680" type="line"/>
      <point x="714" y="684" type="line"/>
      <point x="1037" y="0" type="line"/>
      <point x="1150" y="0" type="line"/>
      <point x="805" y="734" type="line"/>
      <point x="1472" y="1448" type="line"/>
      <point x="1341" y="1448" type="line"/>
      <point x="724" y="781" type="line"/>
      <point x="755" y="775" type="line"/>
      <point x="443" y="1448" type="line"/>
      <point x="334" y="1448" type="line"/>
      <point x="668" y="734" type="line"/>
      <point x="-12" y="0" type="line"/>
    </contour>
  </outline>
</glyph>
<glyph name="Y" format="2">
  <advance width="1351"/>
  <unicode hex="0059"/>
  <anchor x="849" y="1620" name="top"/>
  <anchor x="532" y="-120" name="bottom"/>
  <outline>
    <contour>
      <point x="607" y="0" type="line"/>
      <point x="739" y="567" type="line"/>
      <point x="1467" y="1448" type="line"/>
      <point x="1353" y="1448" type="line"/>
      <point x="712" y="684" type="line"/>
      <point x="432" y="1448" type="line"/>
      <point x="320" y="1448" type="line"/>
      <point x="644" y="567" type="line"/>
      <point x="513" y="0" type="line"/>
    </contour>
  </outline>
  <guideline angle="90" name="vertical" x="842" y="0"/>
</glyph>
<glyph name="Z" format="2">
  <advance width="1320"/>
  <unicode hex="005A"/>
  <outline>
    <contour>
      <point x="1084" y="0" type="line"/>
      <point x="1112" y="105" type="line"/>
      <point x="170" y="105" type="line"/>
      <point x="1395" y="1335" type="line"/>
      <point x="1419" y="1448" type="line"/>
      <point x="369" y="1448" type="line"/>
      <point x="344" y="1343" type="line"/>
      <point x="1243" y="1343" type="line"/>
      <point x="11" y="96" type="line"/>
      <point x="-10" y="0" type="line"/>
    </contour>
  </outline>
</glyph>
<glyph name="bracketleft" format="2">
  <advance width="657"/>
  <unicode hex="005B"/>
  <outline>
    <contour>
      <point x="434" y="-72" type="line"/>
      <point x="451" y="-4" type="line"/>
      <point x="209" y="-4" type="line"/>
      <point x="544" y="1451" type="line"/>
      <point x="786" y="1451" type="line"/>
      <point x="799" y="1517" type="line"/>
      <point x="457" y="1517" type="line"/>
      <point x="90" y="-72" type="line"/>
    </contour>
  </outline>
</glyph>
<glyph name="backslash" format="2">
  <advance width="962"/>
  <unicode hex="005C"/>
  <outline>
    <contour>
      <point x="690" y="-441" type="line"/>
      <point x="399" y="1552" type="line"/>
      <point x="289" y="1552" type="line"/>
      <point x="588" y="-441" type="line"/>
    </contour>
  </outline>
</glyph>
<glyph name="bracketright" format="2">
  <advance width="657"/>
  <unicode hex="005D"/>
  <outline>
    <contour>
      <point x="304" y="-53" type="line"/>
      <point x="661" y="1499" type="line"/>
      <point x="326" y="1499" type="line"/>
      <point x="313" y="1421" type="line"/>
      <point x="556" y="1421" type="line"/>
      <point x="226" y="26" type="line"/>
      <point x="-16" y="26" type="line"/>
      <point x="-31" y="-53" type="line"/>
    </contour>
  </outline>
</glyph>
<glyph name="asciicircum" format="2">
  <advance width="1011"/>
  <unicode hex="005E"/>
  <outline>
    <contour>
      <point x="923" y="881" type="line"/>
      <point x="710" y="1418" type="line"/>
      <point x="258" y="881" type="line"/>
      <point x="369" y="881" type="line"/>
      <point x="678" y="1247" type="line"/>
      <point x="818" y="881" type="line"/>
    </contour>
  </outline>
</glyph>
<glyph name="underscore" format="2">
  <advance width="1274"/>
  <unicode hex="005F"/>
  <outline>
    <contour>
      <point x="885" y="-93" type="line"/>
      <point x="904" y="-4" type="line"/>
      <point x="133" y="-4" type="line"/>
      <point x="111" y="-93" type="line"/>
    </contour>
  </outline>
</glyph>
<glyph name="grave" format="2">
  <advance width="554"/>
  <unicode hex="0060"/>
  <outline>
    <contour>
      <point x="591" y="1192" type="line"/>
      <point x="438" y="1480" type="line"/>
      <point x="299" y="1480" type="line"/>
      <point x="486" y="1192" type="line"/>
    </contour>
  </outline>
</glyph>
<glyph name="a" format="2">
  <advance width="1162"/>
  <unicode hex="0061"/>
  <outline>
    <contour>
      <point x="406" y="-20" type="curve" smooth="yes"/>
      <point x="546" y="-20"/>
      <point x="679" y="44"/>
      <point x="775" y="147" type="curve"/>
      <point x="743" y="0" type="line"/>
      <point x="864" y="0" type="line"/>
      <point x="1107" y="1064" type="line"/>
      <point x="987" y="1064" type="line"/>
      <point x="947" y="900" type="line"/>
      <point x="916" y="966"/>
      <point x="874" y="1011"/>
      <point x="822" y="1041" type="curve" smooth="yes"/>
      <point x="770" y="1071"/>
      <point x="708" y="1084"/>
      <point x="637" y="1084" type="curve" smooth="yes"/>
      <point x="579" y="1084"/>
      <point x="525" y="1073"/>
      <point x="476" y="1051" type="curve" smooth="yes"/>
      <point x="377" y="1008"/>
      <point x="294" y="931"/>
      <point x="233" y="834" type="curve" smooth="yes"/>
      <point x="201" y="785"/>
      <point x="175" y="733"/>
      <point x="154" y="679" type="curve" smooth="yes"/>
      <point x="111" y="570"/>
      <point x="88" y="457"/>
      <point x="88" y="355" type="curve" smooth="yes"/>
      <point x="88" y="255"/>
      <point x="112" y="160"/>
      <point x="163" y="91" type="curve" smooth="yes"/>
      <point x="214" y="23"/>
      <point x="294" y="-20"/>
    </contour>
    <contour>
      <point x="439" y="85" type="curve" smooth="yes"/>
      <point x="354" y="85"/>
      <point x="296" y="114"/>
      <point x="260" y="163" type="curve" smooth="yes"/>
      <point x="223" y="212"/>
      <point x="206" y="280"/>
      <point x="206" y="355" type="curve" smooth="yes"/>
      <point x="206" y="399"/>
      <point x="211" y="445"/>
      <point x="220" y="492" type="curve" smooth="yes"/>
      <point x="238" y="586"/>
      <point x="272" y="679"/>
      <point x="324" y="762" type="curve" smooth="yes"/>
      <point x="350" y="804"/>
      <point x="379" y="840"/>
      <point x="414" y="872" type="curve" smooth="yes"/>
      <point x="481" y="934"/>
      <point x="566" y="976"/>
      <point x="666" y="976" type="curve" smooth="yes"/>
      <point x="749" y="976"/>
      <point x="807" y="947"/>
      <point x="844" y="900" type="curve" smooth="yes"/>
      <point x="881" y="853"/>
      <point x="897" y="787"/>
      <point x="897" y="710" type="curve" smooth="yes"/>
      <point x="897" y="666"/>
      <point x="893" y="621"/>
      <point x="884" y="574" type="curve" smooth="yes"/>
      <point x="868" y="479"/>
      <point x="832" y="385"/>
      <point x="781" y="301" type="curve" smooth="yes"/>
      <point x="756" y="259"/>
      <point x="726" y="223"/>
      <point x="692" y="190" type="curve" smooth="yes"/>
      <point x="624" y="126"/>
      <point x="540" y="85"/>
    </contour>
  </outline>
</glyph>
<glyph name="b" format="2">
  <advance width="1167"/>
  <unicode hex="0062"/>
  <outline>
    <contour>
      <point x="541" y="-20" type="qcurve" smooth="yes"/>
      <point x="627" y="-20"/>
      <point x="775" y="48"/>
      <point x="896" y="161"/>
      <point x="988" y="310"/>
      <point x="1051" y="473"/>
      <point x="1084" y="639"/>
      <point x="1084" y="712" type="qcurve" smooth="yes"/>
      <point x="1084" y="789"/>
      <point x="1048" y="924"/>
      <point x="971" y="1028"/>
      <point x="852" y="1087"/>
      <point x="767" y="1087" type="qcurve" smooth="yes"/>
      <point x="651" y="1087"/>
      <point x="466" y="990"/>
      <point x="388" y="902" type="qcurve"/>
      <point x="530" y="1448" type="line"/>
      <point x="426" y="1448" type="line"/>
      <point x="79" y="0" type="line"/>
      <point x="183" y="0" type="line"/>
      <point x="224" y="171" type="line"/>
      <point x="245" y="116"/>
      <point x="308" y="43"/>
      <point x="389" y="-1"/>
      <point x="486" y="-20"/>
    </contour>
    <contour>
      <point x="503" y="66" type="qcurve" smooth="yes"/>
      <point x="440" y="66"/>
      <point x="351" y="110"/>
      <point x="295" y="186"/>
      <point x="272" y="288"/>
      <point x="272" y="345" type="qcurve" smooth="yes"/>
      <point x="272" y="412"/>
      <point x="298" y="558"/>
      <point x="351" y="704"/>
      <point x="430" y="837"/>
      <point x="533" y="938"/>
      <point x="663" y="999"/>
      <point x="740" y="999" type="qcurve" smooth="yes"/>
      <point x="807" y="999"/>
      <point x="897" y="951"/>
      <point x="954" y="869"/>
      <point x="979" y="764"/>
      <point x="979" y="704" type="qcurve" smooth="yes"/>
      <point x="979" y="639"/>
      <point x="951" y="492"/>
      <point x="897" y="350"/>
      <point x="817" y="222"/>
      <point x="712" y="125"/>
      <point x="581" y="66"/>
    </contour>
  </outline>
</glyph>
<glyph name="c" format="2">
  <advance width="1020"/>
  <unicode hex="0063"/>
  <outline>
    <contour>
      <point x="441" y="-20" type="curve" smooth="yes"/>
      <point x="534" y="-20"/>
      <point x="620" y="7"/>
      <point x="694" y="53" type="curve" smooth="yes"/>
      <point x="768" y="98"/>
      <point x="831" y="163"/>
      <point x="877" y="244" type="curve"/>
      <point x="784" y="298" type="line"/>
      <point x="755" y="238"/>
      <point x="704" y="184"/>
      <point x="646" y="145" type="curve" smooth="yes"/>
      <point x="588" y="106"/>
      <point x="517" y="82"/>
      <point x="449" y="82" type="curve" smooth="yes"/>
      <point x="360" y="82"/>
      <point x="302" y="113"/>
      <point x="266" y="164" type="curve" smooth="yes"/>
      <point x="229" y="216"/>
      <point x="214" y="286"/>
      <point x="214" y="365" type="curve" smooth="yes"/>
      <point x="214" y="406"/>
      <point x="218" y="450"/>
      <point x="227" y="497" type="curve" smooth="yes"/>
      <point x="244" y="589"/>
      <point x="275" y="681"/>
      <point x="325" y="764" type="curve" smooth="yes"/>
      <point x="350" y="805"/>
      <point x="378" y="841"/>
      <point x="411" y="873" type="curve" smooth="yes"/>
      <point x="475" y="936"/>
      <point x="556" y="977"/>
      <point x="653" y="977" type="curve" smooth="yes"/>
      <point x="716" y="977"/>
      <point x="773" y="956"/>
      <point x="815" y="920" type="curve" smooth="yes"/>
      <point x="856" y="884"/>
      <point x="884" y="831"/>
      <point x="888" y="768" type="curve"/>
      <point x="1007" y="816" type="line"/>
      <point x="984" y="904"/>
      <point x="943" y="970"/>
      <point x="885" y="1014" type="curve" smooth="yes"/>
      <point x="827" y="1058"/>
      <point x="752" y="1081"/>
      <point x="666" y="1081" type="curve" smooth="yes"/>
      <point x="606" y="1081"/>
      <point x="551" y="1071"/>
      <point x="500" y="1051" type="curve" smooth="yes"/>
      <point x="397" y="1011"/>
      <point x="313" y="939"/>
      <point x="247" y="845" type="curve" smooth="yes"/>
      <point x="214" y="798"/>
      <point x="187" y="748"/>
      <point x="164" y="695" type="curve" smooth="yes"/>
      <point x="118" y="591"/>
      <point x="95" y="476"/>
      <point x="95" y="370" type="curve" smooth="yes"/>
      <point x="95" y="259"/>
      <point x="122" y="163"/>
      <point x="179" y="93" type="curve" smooth="yes"/>
      <point x="236" y="22"/>
      <point x="323" y="-20"/>
    </contour>
  </outline>
</glyph>
<glyph name="d" format="2">
  <advance width="1176"/>
  <unicode hex="0064"/>
  <outline>
    <contour>
      <point x="408" y="-20" type="qcurve" smooth="yes"/>
      <point x="523" y="-20"/>
      <point x="703" y="64"/>
      <point x="781" y="151" type="qcurve"/>
      <point x="747" y="0" type="line"/>
      <point x="857" y="0" type="line"/>
      <point x="1205" y="1447" type="line"/>
      <point x="1099" y="1447" type="line"/>
      <point x="1084" y="1397"/>
      <point x="1059" y="1305"/>
      <point x="1035" y="1216"/>
      <point x="1011" y="1129"/>
      <point x="988" y="1040"/>
      <point x="964" y="948"/>
      <point x="950" y="896" type="qcurve"/>
      <point x="929" y="947"/>
      <point x="866" y="1018"/>
      <point x="786" y="1064"/>
      <point x="692" y="1085"/>
      <point x="639" y="1085" type="qcurve" smooth="yes"/>
      <point x="553" y="1085"/>
      <point x="405" y="1019"/>
      <point x="283" y="906"/>
      <point x="191" y="757"/>
      <point x="127" y="596"/>
      <point x="93" y="429"/>
      <point x="93" y="353" type="qcurve" smooth="yes"/>
      <point x="93" y="279"/>
      <point x="127" y="142"/>
      <point x="203" y="40"/>
      <point x="323" y="-20"/>
    </contour>
    <contour>
      <point x="437" y="73" type="qcurve" smooth="yes"/>
      <point x="371" y="73"/>
      <point x="282" y="116"/>
      <point x="226" y="192"/>
      <point x="199" y="293"/>
      <point x="199" y="351" type="qcurve" smooth="yes"/>
      <point x="199" y="418"/>
      <point x="226" y="562"/>
      <point x="279" y="705"/>
      <point x="358" y="832"/>
      <point x="462" y="929"/>
      <point x="591" y="988"/>
      <point x="668" y="988" type="qcurve" smooth="yes"/>
      <point x="731" y="988"/>
      <point x="822" y="946"/>
      <point x="878" y="872"/>
      <point x="904" y="772"/>
      <point x="904" y="714" type="qcurve" smooth="yes"/>
      <point x="904" y="648"/>
      <point x="877" y="503"/>
      <point x="825" y="361"/>
      <point x="746" y="230"/>
      <point x="642" y="132"/>
      <point x="513" y="73"/>
    </contour>
  </outline>
</glyph>
<glyph name="e" format="2">
  <advance width="1077"/>
  <unicode hex="0065"/>
  <outline>
    <contour>
      <point x="452" y="-20" type="qcurve" smooth="yes"/>
      <point x="564" y="-20"/>
      <point x="782" y="52"/>
      <point x="870" y="128" type="qcurve"/>
      <point x="803" y="185" type="line"/>
      <point x="767" y="152"/>
      <point x="685" y="108"/>
      <point x="597" y="81"/>
      <point x="504" y="69"/>
      <point x="458" y="69" type="qcurve" smooth="yes"/>
      <point x="394" y="69"/>
      <point x="298" y="111"/>
      <point x="234" y="188"/>
      <point x="201" y="295"/>
      <point x="201" y="358" type="qcurve" smooth="yes"/>
      <point x="201" y="375"/>
      <point x="205" y="409"/>
      <point x="209" y="444"/>
      <point x="215" y="478"/>
      <point x="218" y="495" type="qcurve"/>
      <point x="963" y="495" type="line"/>
      <point x="972" y="526"/>
      <point x="986" y="587"/>
      <point x="997" y="646"/>
      <point x="1003" y="710"/>
      <point x="1003" y="744" type="qcurve" smooth="yes"/>
      <point x="1003" y="829"/>
      <point x="958" y="956"/>
      <point x="872" y="1041"/>
      <point x="744" y="1084"/>
      <point x="662" y="1084" type="qcurve" smooth="yes"/>
      <point x="572" y="1084"/>
      <point x="419" y="1022"/>
      <point x="293" y="913"/>
      <point x="196" y="768"/>
      <point x="129" y="607"/>
      <point x="94" y="438"/>
      <point x="94" y="360" type="qcurve" smooth="yes"/>
      <point x="94" y="274"/>
      <point x="140" y="134"/>
      <point x="230" y="34"/>
      <point x="364" y="-20"/>
    </contour>
    <contour>
      <point x="887" y="594" type="qcurve"/>
      <point x="240" y="594" type="line"/>
      <point x="259" y="667"/>
      <point x="329" y="809"/>
      <point x="431" y="918"/>
      <point x="565" y="986"/>
      <point x="648" y="986" type="qcurve" smooth="yes"/>
      <point x="706" y="986"/>
      <point x="804" y="958"/>
      <point x="874" y="901"/>
      <point x="914" y="813"/>
      <point x="914" y="750" type="qcurve" smooth="yes"/>
      <point x="914" y="709"/>
      <point x="897" y="631"/>
    </contour>
  </outline>
</glyph>
<glyph name="f" format="2">
  <advance width="712"/>
  <unicode hex="0066"/>
  <outline>
    <contour>
      <point x="166" y="0" type="line"/>
      <point x="262" y="0" type="line"/>
      <point x="485" y="986" type="line"/>
      <point x="801" y="986" type="line"/>
      <point x="817" y="1064" type="line"/>
      <point x="504" y="1064" type="line"/>
      <point x="530" y="1185" type="line" smooth="yes"/>
      <point x="558" y="1316"/>
      <point x="633" y="1380"/>
      <point x="741" y="1380" type="curve" smooth="yes"/>
      <point x="788" y="1380"/>
      <point x="823" y="1370"/>
      <point x="855" y="1351" type="curve"/>
      <point x="903" y="1425" type="line"/>
      <point x="865" y="1449"/>
      <point x="816" y="1464"/>
      <point x="750" y="1464" type="curve" smooth="yes"/>
      <point x="599" y="1464"/>
      <point x="483" y="1385"/>
      <point x="436" y="1187" type="curve" smooth="yes"/>
      <point x="407" y="1064" type="line"/>
      <point x="184" y="1064" type="line"/>
      <point x="168" y="986" type="line"/>
      <point x="389" y="986" type="line"/>
    </contour>
  </outline>
</glyph>
<glyph name="g" format="2">
  <advance width="1166"/>
  <unicode hex="0067"/>
  <outline>
    <contour>
      <point x="341" y="-443" type="curve" smooth="yes"/>
      <point x="496" y="-443"/>
      <point x="613" y="-395"/>
      <point x="699" y="-310" type="curve" smooth="yes"/>
      <point x="784" y="-225"/>
      <point x="839" y="-107"/>
      <point x="872" y="37" type="curve"/>
      <point x="1114" y="1064" type="line"/>
      <point x="988" y="1064" type="line"/>
      <point x="948" y="899" type="line"/>
      <point x="920" y="965"/>
      <point x="879" y="1011"/>
      <point x="828" y="1042" type="curve" smooth="yes"/>
      <point x="778" y="1072"/>
      <point x="718" y="1085"/>
      <point x="648" y="1085" type="curve" smooth="yes"/>
      <point x="589" y="1085"/>
      <point x="534" y="1074"/>
      <point x="483" y="1053" type="curve" smooth="yes"/>
      <point x="381" y="1010"/>
      <point x="297" y="934"/>
      <point x="234" y="837" type="curve" smooth="yes"/>
      <point x="203" y="788"/>
      <point x="176" y="737"/>
      <point x="154" y="682" type="curve" smooth="yes"/>
      <point x="111" y="574"/>
      <point x="89" y="457"/>
      <point x="89" y="352" type="curve" smooth="yes"/>
      <point x="89" y="247"/>
      <point x="112" y="153"/>
      <point x="166" y="86" type="curve" smooth="yes"/>
      <point x="219" y="20"/>
      <point x="302" y="-22"/>
      <point x="416" y="-22" type="curve" smooth="yes"/>
      <point x="559" y="-22"/>
      <point x="687" y="46"/>
      <point x="783" y="155" type="curve"/>
      <point x="746" y="5" type="line"/>
      <point x="720" y="-90"/>
      <point x="672" y="-178"/>
      <point x="604" y="-240" type="curve" smooth="yes"/>
      <point x="537" y="-303"/>
      <point x="446" y="-343"/>
      <point x="341" y="-343" type="curve" smooth="yes"/>
      <point x="287" y="-343"/>
      <point x="233" y="-331"/>
      <point x="188" y="-307" type="curve"/>
      <point x="144" y="-282"/>
      <point x="109" y="-242"/>
      <point x="86" y="-185" type="curve"/>
      <point x="-19" y="-244" type="line"/>
      <point x="10" y="-317"/>
      <point x="63" y="-368"/>
      <point x="127" y="-399" type="curve" smooth="yes"/>
      <point x="191" y="-430"/>
      <point x="267" y="-443"/>
    </contour>
    <contour>
      <point x="440" y="77" type="curve" smooth="yes"/>
      <point x="356" y="77"/>
      <point x="299" y="107"/>
      <point x="262" y="157" type="curve" smooth="yes"/>
      <point x="224" y="207"/>
      <point x="207" y="276"/>
      <point x="207" y="352" type="curve" smooth="yes"/>
      <point x="207" y="396"/>
      <point x="212" y="441"/>
      <point x="221" y="489" type="curve" smooth="yes"/>
      <point x="240" y="585"/>
      <point x="275" y="680"/>
      <point x="327" y="764" type="curve" smooth="yes"/>
      <point x="353" y="806"/>
      <point x="383" y="844"/>
      <point x="417" y="877" type="curve" smooth="yes"/>
      <point x="486" y="942"/>
      <point x="570" y="983"/>
      <point x="672" y="983" type="curve" smooth="yes"/>
      <point x="755" y="983"/>
      <point x="812" y="953"/>
      <point x="848" y="904" type="curve" smooth="yes"/>
      <point x="884" y="855"/>
      <point x="900" y="787"/>
      <point x="900" y="713" type="curve" smooth="yes"/>
      <point x="900" y="670"/>
      <point x="896" y="624"/>
      <point x="887" y="577" type="curve" smooth="yes"/>
      <point x="870" y="480"/>
      <point x="834" y="386"/>
      <point x="783" y="300" type="curve" smooth="yes"/>
      <point x="757" y="256"/>
      <point x="727" y="218"/>
      <point x="693" y="186" type="curve" smooth="yes"/>
      <point x="625" y="120"/>
      <point x="538" y="77"/>
    </contour>
  </outline>
</glyph>
<glyph name="h" format="2">
  <advance width="1179"/>
  <unicode hex="0068"/>
  <outline>
    <contour>
      <point x="769" y="0" type="line"/>
      <point x="880" y="0" type="line"/>
      <point x="1029" y="659" type="line" smooth="yes"/>
      <point x="1037" y="693"/>
      <point x="1044" y="765"/>
      <point x="1044" y="800" type="qcurve" smooth="yes"/>
      <point x="1044" y="857"/>
      <point x="1016" y="960"/>
      <point x="954" y="1038"/>
      <point x="851" y="1084"/>
      <point x="774" y="1084" type="qcurve" smooth="yes"/>
      <point x="721" y="1084"/>
      <point x="614" y="1045"/>
      <point x="514" y="983"/>
      <point x="423" y="903"/>
      <point x="384" y="860" type="qcurve"/>
      <point x="324" y="860" type="line"/>
      <point x="263" y="579" type="line"/>
      <point x="310" y="579" type="line"/>
      <point x="330" y="654"/>
      <point x="414" y="799"/>
      <point x="531" y="913"/>
      <point x="676" y="984"/>
      <point x="758" y="984" type="qcurve" smooth="yes"/>
      <point x="853" y="984"/>
      <point x="935" y="880"/>
      <point x="935" y="789" type="qcurve" smooth="yes"/>
      <point x="935" y="770"/>
      <point x="933" y="731"/>
      <point x="925" y="673"/>
      <point x="908" y="588"/>
      <point x="891" y="522" type="qcurve"/>
    </contour>
    <contour>
      <point x="67" y="0" type="line"/>
      <point x="171" y="0" type="line"/>
      <point x="518" y="1448" type="line"/>
      <point x="415" y="1448" type="line"/>
    </contour>
  </outline>
</glyph>
<glyph name="i" format="2">
  <advance width="493"/>
  <unicode hex="0069"/>
  <outline>
    <contour>
      <point x="471" y="1265" type="line"/>
      <point x="514" y="1447" type="line"/>
      <point x="392" y="1447" type="line"/>
      <point x="349" y="1265" type="line"/>
    </contour>
    <contour>
      <point x="203" y="0" type="line"/>
      <point x="436" y="1064" type="line"/>
      <point x="314" y="1064" type="line"/>
      <point x="80" y="0" type="line"/>
    </contour>
  </outline>
</glyph>
<glyph name="j" format="2">
  <advance width="528"/>
  <unicode hex="006A"/>
  <outline>
    <contour>
      <point x="498" y="1265" type="line"/>
      <point x="543" y="1454" type="line"/>
      <point x="408" y="1454" type="line"/>
      <point x="363" y="1265" type="line"/>
    </contour>
    <contour>
      <point x="-158" y="-451" type="curve" smooth="yes"/>
      <point x="-69" y="-451"/>
      <point x="2" y="-421"/>
      <point x="55" y="-372" type="curve" smooth="yes"/>
      <point x="108" y="-324"/>
      <point x="144" y="-252"/>
      <point x="164" y="-170" type="curve"/>
      <point x="452" y="1064" type="line"/>
      <point x="318" y="1064" type="line"/>
      <point x="28" y="-184" type="line"/>
      <point x="16" y="-228"/>
      <point x="-1" y="-264"/>
      <point x="-29" y="-291" type="curve" smooth="yes"/>
      <point x="-56" y="-318"/>
      <point x="-93" y="-334"/>
      <point x="-141" y="-334" type="curve" smooth="yes"/>
      <point x="-181" y="-334"/>
      <point x="-222" y="-330"/>
      <point x="-262" y="-317" type="curve"/>
      <point x="-307" y="-419" type="line"/>
      <point x="-260" y="-437"/>
      <point x="-210" y="-451"/>
    </contour>
  </outline>
</glyph>
<glyph name="k" format="2">
  <advance width="1093"/>
  <unicode hex="006B"/>
  <outline>
    <contour>
      <point x="1081" y="1064" type="line"/>
      <point x="949" y="1064" type="line"/>
      <point x="274" y="439" type="line"/>
      <point x="242" y="290" type="line"/>
    </contour>
    <contour>
      <point x="910" y="0" type="line"/>
      <point x="657" y="707" type="line"/>
      <point x="573" y="615" type="line"/>
      <point x="781" y="0" type="line"/>
    </contour>
    <contour>
      <point x="73" y="0" type="line"/>
      <point x="177" y="0" type="line"/>
      <point x="524" y="1448" type="line"/>
      <point x="420" y="1448" type="line"/>
    </contour>
  </outline>
</glyph>
<glyph name="l" format="2">
  <advance width="523"/>
  <unicode hex="006C"/>
  <anchor x="433" y="1620" name="top"/>
  <anchor x="133" y="-120" name="bottom"/>
  <anchor x="624" y="774" name="center"/>
  <outline>
    <contour>
      <point x="199" y="213" type="curve"/>
      <point x="489" y="1448" type="line"/>
      <point x="391" y="1448" type="line"/>
      <point x="101" y="203" type="line"/>
      <point x="71" y="53"/>
      <point x="123" y="-14"/>
      <point x="234" y="-14" type="curve" smooth="yes"/>
      <point x="269" y="-14"/>
      <point x="316" y="-6"/>
      <point x="371" y="12" type="curve"/>
      <point x="381" y="90" type="line"/>
      <point x="340" y="76"/>
      <point x="304" y="70"/>
      <point x="277" y="70" type="curve" smooth="yes"/>
      <point x="205" y="70"/>
      <point x="180" y="111"/>
    </contour>
  </outline>
  <guideline angle="90" name="vertical" x="436" y="0"/>
</glyph>
<glyph name="m" format="2">
  <advance width="1801"/>
  <unicode hex="006D"/>
  <outline>
    <contour>
      <point x="1502" y="0" type="line"/>
      <point x="1646" y="643" type="line" smooth="yes"/>
      <point x="1655" y="682"/>
      <point x="1663" y="757"/>
      <point x="1663" y="793" type="qcurve" smooth="yes"/>
      <point x="1663" y="865"/>
      <point x="1627" y="973"/>
      <point x="1555" y="1046"/>
      <point x="1449" y="1084"/>
      <point x="1378" y="1084" type="qcurve" smooth="yes"/>
      <point x="1311" y="1084"/>
      <point x="1203" y="1048"/>
      <point x="1113" y="982"/>
      <point x="1040" y="893"/>
      <point x="1008" y="841" type="qcurve"/>
      <point x="1005" y="956"/>
      <point x="854" y="1084"/>
      <point x="721" y="1084" type="qcurve" smooth="yes"/>
      <point x="671" y="1084"/>
      <point x="592" y="1068"/>
      <point x="517" y="1027"/>
      <point x="443" y="959"/>
      <point x="397" y="908" type="qcurve"/>
      <point x="389" y="908" type="line"/>
      <point x="423" y="1064" type="line"/>
      <point x="313" y="1064" type="line"/>
      <point x="70" y="0" type="line"/>
      <point x="180" y="0" type="line"/>
      <point x="320" y="614" type="line" smooth="yes"/>
      <point x="336" y="683"/>
      <point x="407" y="821"/>
      <point x="509" y="932"/>
      <point x="641" y="1003"/>
      <point x="717" y="1003" type="qcurve" smooth="yes"/>
      <point x="815" y="1003"/>
      <point x="897" y="895"/>
      <point x="897" y="804" type="qcurve" smooth="yes"/>
      <point x="897" y="766"/>
      <point x="888" y="691"/>
      <point x="878" y="652" type="qcurve"/>
      <point x="728" y="0" type="line"/>
      <point x="838" y="0" type="line"/>
      <point x="980" y="614" type="line"/>
      <point x="997" y="683"/>
      <point x="1065" y="821"/>
      <point x="1166" y="932"/>
      <point x="1295" y="1003"/>
      <point x="1371" y="1003" type="qcurve" smooth="yes"/>
      <point x="1474" y="1003"/>
      <point x="1558" y="888"/>
      <point x="1558" y="793" type="qcurve" smooth="yes"/>
      <point x="1558" y="780"/>
      <point x="1557" y="750"/>
      <point x="1551" y="704"/>
      <point x="1538" y="636"/>
      <point x="1527" y="583" type="qcurve"/>
      <point x="1388" y="0" type="line"/>
    </contour>
  </outline>
</glyph>
<glyph name="n" format="2">
  <advance width="1181"/>
  <unicode hex="006E"/>
  <outline>
    <contour>
      <point x="772" y="0" type="line"/>
      <point x="883" y="0" type="line"/>
      <point x="1032" y="659" type="line" smooth="yes"/>
      <point x="1040" y="693"/>
      <point x="1047" y="765"/>
      <point x="1047" y="800" type="qcurve" smooth="yes"/>
      <point x="1047" y="857"/>
      <point x="1020" y="960"/>
      <point x="957" y="1038"/>
      <point x="854" y="1084"/>
      <point x="777" y="1084" type="qcurve" smooth="yes"/>
      <point x="724" y="1084"/>
      <point x="617" y="1045"/>
      <point x="517" y="983"/>
      <point x="426" y="903"/>
      <point x="387" y="860" type="qcurve"/>
      <point x="327" y="860" type="line"/>
      <point x="266" y="579" type="line"/>
      <point x="314" y="579" type="line"/>
      <point x="333" y="654"/>
      <point x="417" y="799"/>
      <point x="534" y="913"/>
      <point x="679" y="984"/>
      <point x="761" y="984" type="qcurve" smooth="yes"/>
      <point x="856" y="984"/>
      <point x="939" y="880"/>
      <point x="939" y="789" type="qcurve" smooth="yes"/>
      <point x="939" y="770"/>
      <point x="937" y="731"/>
      <point x="928" y="673"/>
      <point x="911" y="588"/>
      <point x="894" y="522" type="qcurve"/>
    </contour>
    <contour>
      <point x="171" y="0" type="line"/>
      <point x="421" y="1064" type="line"/>
      <point x="316" y="1064" type="line"/>
      <point x="66" y="0" type="line"/>
    </contour>
  </outline>
</glyph>
<glyph name="o" format="2">
  <advance width="1100"/>
  <unicode hex="006F"/>
  <anchor x="719" y="1192" name="top"/>
  <anchor x="515" y="0" name="ogonek"/>
  <anchor x="1277" y="1064" name="pos"/>
  <anchor x="425" y="-120" name="bottom"/>
  <outline>
    <contour>
      <point x="444.651" y="-20" type="curve" smooth="yes"/>
      <point x="764.651" y="-20"/>
      <point x="1020.06" y="347"/>
      <point x="1025.68" y="669" type="curve" smooth="yes"/>
      <point x="1029.52" y="889"/>
      <point x="900.921" y="1084"/>
      <point x="678.921" y="1084" type="curve" smooth="yes"/>
      <point x="350.921" y="1084"/>
      <point x="104.306" y="705"/>
      <point x="98.6155" y="379" type="curve" smooth="yes"/>
      <point x="94.723" y="156"/>
      <point x="222.651" y="-20"/>
    </contour>
    <contour>
      <point x="446.222" y="70" type="curve" smooth="yes"/>
      <point x="284.222" y="70"/>
      <point x="196.508" y="201"/>
      <point x="199.458" y="370" type="curve" smooth="yes"/>
      <point x="204.276" y="646"/>
      <point x="395.35" y="994"/>
      <point x="676.35" y="994" type="curve" smooth="yes"/>
      <point x="840.35" y="994"/>
      <point x="927.099" y="865"/>
      <point x="924.061" y="691" type="curve" smooth="yes"/>
      <point x="919.157" y="410"/>
      <point x="734.222" y="70"/>
    </contour>
  </outline>
  <guideline angle="90" name="vertical" x="693" y="0"/>
</glyph>
<glyph name="p" format="2">
  <advance width="1170"/>
  <unicode hex="0070"/>
  <outline>
    <contour>
      <point x="81" y="-451" type="line"/>
      <point x="231" y="167" type="line"/>
      <point x="259" y="99"/>
      <point x="301" y="53"/>
      <point x="353" y="23" type="curve" smooth="yes"/>
      <point x="404" y="-8"/>
      <point x="467" y="-20"/>
      <point x="537" y="-20" type="curve" smooth="yes"/>
      <point x="596" y="-20"/>
      <point x="651" y="-9"/>
      <point x="701" y="14" type="curve" smooth="yes"/>
      <point x="801" y="57"/>
      <point x="882" y="132"/>
      <point x="947" y="230" type="curve" smooth="yes"/>
      <point x="978" y="279"/>
      <point x="1005" y="331"/>
      <point x="1026" y="384" type="curve" smooth="yes"/>
      <point x="1069" y="492"/>
      <point x="1092" y="607"/>
      <point x="1092" y="710" type="curve" smooth="yes"/>
      <point x="1092" y="813"/>
      <point x="1067" y="906"/>
      <point x="1015" y="975" type="curve" smooth="yes"/>
      <point x="962" y="1043"/>
      <point x="881" y="1084"/>
      <point x="768" y="1084" type="curve" smooth="yes"/>
      <point x="618" y="1084"/>
      <point x="496" y="1024"/>
      <point x="396" y="909" type="curve"/>
      <point x="435" y="1064" type="line"/>
      <point x="314" y="1064" type="line"/>
      <point x="-40" y="-451" type="line"/>
    </contour>
    <contour>
      <point x="505" y="78" type="curve" smooth="yes"/>
      <point x="420" y="78"/>
      <point x="363" y="111"/>
      <point x="327" y="161" type="curve" smooth="yes"/>
      <point x="292" y="212"/>
      <point x="277" y="281"/>
      <point x="277" y="355" type="curve" smooth="yes"/>
      <point x="277" y="398"/>
      <point x="282" y="442"/>
      <point x="291" y="490" type="curve" smooth="yes"/>
      <point x="309" y="585"/>
      <point x="344" y="681"/>
      <point x="396" y="765" type="curve" smooth="yes"/>
      <point x="422" y="807"/>
      <point x="451" y="844"/>
      <point x="486" y="877" type="curve" smooth="yes"/>
      <point x="553" y="942"/>
      <point x="637" y="983"/>
      <point x="735" y="983" type="curve" smooth="yes"/>
      <point x="821" y="983"/>
      <point x="880" y="952"/>
      <point x="920" y="902" type="curve"/>
      <point x="958" y="851"/>
      <point x="976" y="782"/>
      <point x="976" y="703" type="curve" smooth="yes"/>
      <point x="976" y="660"/>
      <point x="971" y="615"/>
      <point x="961" y="567" type="curve" smooth="yes"/>
      <point x="942" y="471"/>
      <point x="906" y="378"/>
      <point x="853" y="294" type="curve" smooth="yes"/>
      <point x="825" y="252"/>
      <point x="794" y="215"/>
      <point x="760" y="183" type="curve" smooth="yes"/>
      <point x="690" y="120"/>
      <point x="604" y="78"/>
    </contour>
  </outline>
</glyph>
<glyph name="q" format="2">
  <advance width="1181"/>
  <unicode hex="0071"/>
  <outline>
    <contour>
      <point x="754" y="-451" type="line"/>
      <point x="1106" y="1064" type="line"/>
      <point x="1010" y="1064" type="line"/>
      <point x="968" y="890" type="line"/>
      <point x="910" y="1032"/>
      <point x="803" y="1084"/>
      <point x="655" y="1084" type="curve" smooth="yes"/>
      <point x="308" y="1084"/>
      <point x="110" y="653"/>
      <point x="110" y="352" type="curve" smooth="yes"/>
      <point x="110" y="151"/>
      <point x="195" y="-20"/>
      <point x="421" y="-20" type="curve" smooth="yes"/>
      <point x="582" y="-20"/>
      <point x="698" y="48"/>
      <point x="807" y="168" type="curve"/>
      <point x="657" y="-451" type="line"/>
    </contour>
    <contour>
      <point x="441" y="53" type="curve" smooth="yes"/>
      <point x="260" y="53"/>
      <point x="203" y="185"/>
      <point x="203" y="344" type="curve" smooth="yes"/>
      <point x="203" y="613"/>
      <point x="365" y="1007"/>
      <point x="683" y="1007" type="curve" smooth="yes"/>
      <point x="858" y="1007"/>
      <point x="920" y="878"/>
      <point x="920" y="721" type="curve" smooth="yes"/>
      <point x="920" y="453"/>
      <point x="756" y="53"/>
    </contour>
  </outline>
</glyph>
<glyph name="r" format="2">
  <advance width="845"/>
  <unicode hex="0072"/>
  <outline>
    <contour>
      <point x="183" y="0" type="line"/>
      <point x="318" y="564" type="line" smooth="yes"/>
      <point x="334" y="635"/>
      <point x="410" y="788"/>
      <point x="520" y="916"/>
      <point x="662" y="999"/>
      <point x="745" y="999" type="qcurve" smooth="yes"/>
      <point x="780" y="999"/>
      <point x="844" y="978"/>
      <point x="867" y="953" type="qcurve"/>
      <point x="904" y="1038" type="line"/>
      <point x="871" y="1059"/>
      <point x="788" y="1079"/>
      <point x="751" y="1079" type="qcurve" smooth="yes"/>
      <point x="687" y="1079"/>
      <point x="572" y="1044"/>
      <point x="476" y="977"/>
      <point x="401" y="885"/>
      <point x="374" y="831" type="qcurve"/>
      <point x="430" y="1064" type="line"/>
      <point x="313" y="1064" type="line"/>
      <point x="69" y="0" type="line"/>
    </contour>
  </outline>
</glyph>
<glyph name="s" format="2">
  <advance width="894"/>
  <unicode hex="0073"/>
  <outline>
    <contour>
      <point x="38" y="217" type="line"/>
      <point x="74" y="146"/>
      <point x="128" y="85"/>
      <point x="193" y="44" type="curve" smooth="yes"/>
      <point x="258" y="3"/>
      <point x="332" y="-22"/>
      <point x="406" y="-22" type="curve" smooth="yes"/>
      <point x="501" y="-22"/>
      <point x="590" y="16"/>
      <point x="654" y="75" type="curve" smooth="yes"/>
      <point x="718" y="133"/>
      <point x="760" y="212"/>
      <point x="760" y="299" type="curve" smooth="yes"/>
      <point x="760" y="350"/>
      <point x="744" y="394"/>
      <point x="709" y="436" type="curve" smooth="yes"/>
      <point x="673" y="479"/>
      <point x="615" y="519"/>
      <point x="530" y="565" type="curve" smooth="yes"/>
      <point x="361" y="659" type="line"/>
      <point x="319" y="681"/>
      <point x="296" y="726"/>
      <point x="296" y="782" type="curve" smooth="yes"/>
      <point x="296" y="837"/>
      <point x="319" y="884"/>
      <point x="354" y="916" type="curve" smooth="yes"/>
      <point x="390" y="949"/>
      <point x="441" y="969"/>
      <point x="500" y="969" type="curve" smooth="yes"/>
      <point x="552" y="969"/>
      <point x="601" y="954"/>
      <point x="641" y="928" type="curve" smooth="yes"/>
      <point x="681" y="901"/>
      <point x="714" y="863"/>
      <point x="731" y="819" type="curve"/>
      <point x="837" y="877" type="line"/>
      <point x="813" y="939"/>
      <point x="768" y="990"/>
      <point x="711" y="1026" type="curve" smooth="yes"/>
      <point x="654" y="1062"/>
      <point x="587" y="1083"/>
      <point x="515" y="1083" type="curve" smooth="yes"/>
      <point x="420" y="1083"/>
      <point x="337" y="1048"/>
      <point x="275" y="991" type="curve" smooth="yes"/>
      <point x="214" y="934"/>
      <point x="175" y="856"/>
      <point x="175" y="770" type="curve" smooth="yes"/>
      <point x="175" y="716"/>
      <point x="189" y="673"/>
      <point x="221" y="633" type="curve" smooth="yes"/>
      <point x="253" y="593"/>
      <point x="302" y="556"/>
      <point x="374" y="516" type="curve" smooth="yes"/>
      <point x="558" y="418" type="line" smooth="yes"/>
      <point x="608" y="392"/>
      <point x="636" y="342"/>
      <point x="636" y="284" type="curve" smooth="yes"/>
      <point x="636" y="231"/>
      <point x="608" y="182"/>
      <point x="566" y="145" type="curve" smooth="yes"/>
      <point x="523" y="107"/>
      <point x="462" y="85"/>
      <point x="399" y="85" type="curve" smooth="yes"/>
      <point x="343" y="85"/>
      <point x="290" y="104"/>
      <point x="244" y="140" type="curve" smooth="yes"/>
      <point x="199" y="174"/>
      <point x="161" y="223"/>
      <point x="138" y="282" type="curve"/>
    </contour>
  </outline>
</glyph>
<glyph name="t" format="2">
  <advance width="630"/>
  <unicode hex="0074"/>
  <anchor x="268" y="0" name="bottom"/>
  <anchor x="315" y="507" name="center"/>
  <anchor x="447" y="1010" name="top"/>
  <anchor x="765" y="1188" name="topright"/>
  <outline>
    <contour>
      <point x="312.511" y="-14" type="curve" smooth="yes"/>
      <point x="353.511" y="-14"/>
      <point x="402.86" y="-4"/>
      <point x="459.419" y="12" type="curve"/>
      <point x="474.143" y="90" type="line"/>
      <point x="424.584" y="74"/>
      <point x="383.305" y="66"/>
      <point x="348.305" y="66" type="curve" smooth="yes"/>
      <point x="278.305" y="66"/>
      <point x="253.492" y="100"/>
      <point x="255.727" y="164" type="curve" smooth="yes"/>
      <point x="256.356" y="182"/>
      <point x="259.159" y="205"/>
      <point x="263.927" y="227" type="curve" smooth="yes"/>
      <point x="438.432" y="986" type="line"/>
      <point x="679.432" y="986" type="line"/>
      <point x="698.156" y="1064" type="line"/>
      <point x="456.156" y="1064" type="line"/>
      <point x="529.261" y="1382" type="line"/>
      <point x="419.2" y="1323" type="line"/>
      <point x="360.156" y="1064" type="line"/>
      <point x="192.156" y="1064" type="line"/>
      <point x="173.432" y="986" type="line"/>
      <point x="342.432" y="986" type="line"/>
      <point x="167.717" y="221" type="line" smooth="yes"/>
      <point x="160.635" y="190"/>
      <point x="155.727" y="164"/>
      <point x="154.854" y="139" type="curve" smooth="yes"/>
      <point x="151.083" y="31"/>
      <point x="212.511" y="-14"/>
    </contour>
  </outline>
</glyph>
<glyph name="u" format="2">
  <advance width="1172"/>
  <unicode hex="0075"/>
  <outline>
    <contour>
      <point x="411" y="-24" type="curve" smooth="yes"/>
      <point x="485" y="-24"/>
      <point x="562" y="1"/>
      <point x="631" y="41" type="curve" smooth="yes"/>
      <point x="699" y="80"/>
      <point x="757" y="136"/>
      <point x="793" y="198" type="curve"/>
      <point x="745" y="0" type="line"/>
      <point x="864" y="0" type="line"/>
      <point x="1109" y="1064" type="line"/>
      <point x="991" y="1064" type="line"/>
      <point x="816" y="344" type="line" smooth="yes"/>
      <point x="804" y="297"/>
      <point x="754" y="229"/>
      <point x="679" y="172" type="curve" smooth="yes"/>
      <point x="605" y="116"/>
      <point x="509" y="70"/>
      <point x="406" y="70" type="curve" smooth="yes"/>
      <point x="344" y="70"/>
      <point x="302" y="90"/>
      <point x="278" y="124" type="curve" smooth="yes"/>
      <point x="253" y="158"/>
      <point x="242" y="206"/>
      <point x="242" y="262" type="curve" smooth="yes"/>
      <point x="242" y="312"/>
      <point x="249" y="363"/>
      <point x="260" y="411" type="curve" smooth="yes"/>
      <point x="408" y="1064" type="line"/>
      <point x="288" y="1064" type="line"/>
      <point x="148" y="437" type="line"/>
      <point x="143" y="410"/>
      <point x="137" y="383"/>
      <point x="134" y="356" type="curve" smooth="yes"/>
      <point x="131" y="329"/>
      <point x="129" y="300"/>
      <point x="129" y="271" type="curve" smooth="yes"/>
      <point x="129" y="179"/>
      <point x="152" y="104"/>
      <point x="198" y="54" type="curve" smooth="yes"/>
      <point x="243" y="4"/>
      <point x="316" y="-24"/>
    </contour>
  </outline>
</glyph>
<glyph name="v" format="2">
  <advance width="998"/>
  <unicode hex="0076"/>
  <outline>
    <contour>
      <point x="425" y="0" type="line"/>
      <point x="1048" y="1064" type="line"/>
      <point x="945" y="1064" type="line"/>
      <point x="404" y="122" type="line"/>
      <point x="305" y="1064" type="line"/>
      <point x="201" y="1064" type="line"/>
      <point x="331" y="0" type="line"/>
    </contour>
  </outline>
</glyph>
<glyph name="w" format="2">
  <advance width="1491"/>
  <unicode hex="0077"/>
  <outline>
    <contour>
      <point x="352" y="-1" type="line"/>
      <point x="842" y="923" type="line"/>
      <point x="895" y="0" type="line"/>
      <point x="1011" y="0" type="line"/>
      <point x="1541" y="1064" type="line"/>
      <point x="1422" y="1064" type="line"/>
      <point x="977" y="143" type="line"/>
      <point x="924" y="1064" type="line"/>
      <point x="816" y="1064" type="line"/>
      <point x="335" y="141" type="line"/>
      <point x="313" y="1064" type="line"/>
      <point x="202" y="1064" type="line"/>
      <point x="237" y="-1" type="line"/>
    </contour>
  </outline>
</glyph>
<glyph name="x" format="2">
  <advance width="983"/>
  <unicode hex="0078"/>
  <anchor x="377" y="-0" name="bottom"/>
  <anchor x="594" y="1010" name="top"/>
  <outline>
    <contour>
      <point x="-37" y="0" type="line"/>
      <point x="87" y="0" type="line"/>
      <point x="497.924" y="456" type="line"/>
      <point x="713" y="0" type="line"/>
      <point x="836" y="0" type="line"/>
      <point x="576.613" y="533" type="line"/>
      <point x="1065.16" y="1064" type="line"/>
      <point x="941.156" y="1064" type="line"/>
      <point x="530.267" y="609" type="line"/>
      <point x="315.156" y="1064" type="line"/>
      <point x="193.156" y="1064" type="line"/>
      <point x="449.613" y="533" type="line"/>
    </contour>
  </outline>
</glyph>
<glyph name="y" format="2">
  <advance width="1029"/>
  <unicode hex="0079"/>
  <outline>
    <contour>
      <point x="177" y="-441" type="line"/>
      <point x="1076" y="1064" type="line"/>
      <point x="971" y="1064" type="line"/>
      <point x="422" y="120" type="line"/>
      <point x="307" y="1064" type="line"/>
      <point x="201" y="1064" type="line"/>
      <point x="359" y="1" type="line"/>
      <point x="78" y="-441" type="line"/>
    </contour>
  </outline>
  <guideline angle="90" name="vertical" x="620" y="0"/>
</glyph>
<glyph name="z" format="2">
  <advance width="981"/>
  <unicode hex="007A"/>
  <outline>
    <contour>
      <point x="764" y="0" type="line"/>
      <point x="789" y="102" type="line"/>
      <point x="131" y="102" type="line"/>
      <point x="985" y="957" type="line"/>
      <point x="1008" y="1064" type="line"/>
      <point x="237" y="1064" type="line"/>
      <point x="217" y="969" type="line"/>
      <point x="851" y="969" type="line"/>
      <point x="-17" y="96" type="line"/>
      <point x="-39" y="0" type="line"/>
    </contour>
  </outline>
</glyph>
<glyph name="braceleft" format="2">
  <advance width="614"/>
  <unicode hex="007B"/>
  <outline>
    <contour>
      <point x="400" y="-107" type="line"/>
      <point x="409" y="-58" type="line"/>
      <point x="355" y="-58" type="line" smooth="yes"/>
      <point x="303" y="-58"/>
      <point x="243" y="-25"/>
      <point x="243" y="9" type="qcurve" smooth="yes"/>
      <point x="243" y="35"/>
      <point x="249" y="75"/>
      <point x="257" y="113" type="qcurve" smooth="yes"/>
      <point x="317" y="388" type="line" smooth="yes"/>
      <point x="323" y="416"/>
      <point x="330" y="464"/>
      <point x="330" y="482" type="qcurve" smooth="yes"/>
      <point x="330" y="541"/>
      <point x="261" y="614"/>
      <point x="172" y="645" type="qcurve"/>
      <point x="247" y="670"/>
      <point x="341" y="716"/>
      <point x="402" y="781"/>
      <point x="436" y="878"/>
      <point x="452" y="953" type="qcurve"/>
      <point x="508" y="1227" type="line" smooth="yes"/>
      <point x="522" y="1294"/>
      <point x="556" y="1380"/>
      <point x="603" y="1434"/>
      <point x="668" y="1454"/>
      <point x="714" y="1454" type="qcurve" smooth="yes"/>
      <point x="720" y="1454" type="line"/>
      <point x="730" y="1507" type="line"/>
      <point x="688" y="1507" type="line" smooth="yes"/>
      <point x="628" y="1507"/>
      <point x="539" y="1486"/>
      <point x="476" y="1438"/>
      <point x="436" y="1364"/>
      <point x="424" y="1310" type="qcurve" smooth="yes"/>
      <point x="327" y="873" type="line"/>
      <point x="321" y="841"/>
      <point x="289" y="786"/>
      <point x="243" y="743"/>
      <point x="183" y="713"/>
      <point x="147" y="706" type="qcurve"/>
      <point x="138" y="611" type="line"/>
      <point x="165" y="598"/>
      <point x="198" y="570"/>
      <point x="219" y="536"/>
      <point x="226" y="499"/>
      <point x="226" y="477" type="qcurve" smooth="yes"/>
      <point x="226" y="453"/>
      <point x="217" y="399"/>
      <point x="210" y="372" type="qcurve"/>
      <point x="150" y="103" type="line" smooth="yes"/>
      <point x="146" y="86"/>
      <point x="141" y="51"/>
      <point x="141" y="35" type="qcurve" smooth="yes"/>
      <point x="141" y="3"/>
      <point x="170" y="-49"/>
      <point x="217" y="-86"/>
      <point x="276" y="-107"/>
      <point x="304" y="-107" type="qcurve" smooth="yes"/>
    </contour>
  </outline>
</glyph>
<glyph name="bar" format="2">
  <advance width="646"/>
  <unicode hex="007C"/>
  <outline>
    <contour>
      <point x="116" y="-525" type="line"/>
      <point x="601" y="1571" type="line"/>
      <point x="534" y="1571" type="line"/>
      <point x="50" y="-525" type="line"/>
    </contour>
  </outline>
</glyph>
<glyph name="braceright" format="2">
  <advance width="613"/>
  <unicode hex="007D"/>
  <outline>
    <contour>
      <point x="13" y="-101" type="line" smooth="yes"/>
      <point x="223" y="-101"/>
      <point x="267" y="55"/>
      <point x="277" y="110" type="curve"/>
      <point x="355" y="470" type="line" smooth="yes"/>
      <point x="368" y="526"/>
      <point x="407" y="570"/>
      <point x="526" y="607" type="curve"/>
      <point x="536" y="696" type="line"/>
      <point x="474" y="710"/>
      <point x="438" y="748"/>
      <point x="438" y="798" type="curve" smooth="yes"/>
      <point x="438" y="808"/>
      <point x="440" y="826"/>
      <point x="447" y="862" type="curve"/>
      <point x="546" y="1300" type="line"/>
      <point x="551" y="1327"/>
      <point x="555" y="1349"/>
      <point x="555" y="1369" type="curve" smooth="yes"/>
      <point x="555" y="1450"/>
      <point x="511" y="1497"/>
      <point x="393" y="1497" type="curve" smooth="yes"/>
      <point x="321" y="1497" type="line"/>
      <point x="310" y="1434" type="line"/>
      <point x="382" y="1434" type="line" smooth="yes"/>
      <point x="439" y="1434"/>
      <point x="461" y="1401"/>
      <point x="461" y="1351" type="curve" smooth="yes"/>
      <point x="461" y="1327"/>
      <point x="458" y="1314"/>
      <point x="453" y="1291" type="curve"/>
      <point x="370" y="960" type="line" smooth="yes"/>
      <point x="351" y="879"/>
      <point x="349" y="852"/>
      <point x="349" y="813" type="curve" smooth="yes"/>
      <point x="349" y="741"/>
      <point x="370" y="689"/>
      <point x="481" y="648" type="curve"/>
      <point x="328" y="630"/>
      <point x="289" y="584"/>
      <point x="265" y="482" type="curve" smooth="yes"/>
      <point x="181" y="129" type="line" smooth="yes"/>
      <point x="155" y="18"/>
      <point x="88" y="-42"/>
      <point x="-31" y="-42" type="curve" smooth="yes"/>
      <point x="-55" y="-42" type="line"/>
      <point x="-66" y="-101" type="line"/>
    </contour>
  </outline>
  <guideline angle="0" x="0" y="1640"/>
  <guideline angle="78.1402" x="148" y="942"/>
</glyph>
<glyph name="asciitilde" format="2">
  <advance width="1201"/>
  <unicode hex="007E"/>
  <outline>
    <contour>
      <point x="763" y="389" type="curve" smooth="yes"/>
      <point x="919" y="389"/>
      <point x="961" y="533"/>
      <point x="961" y="657" type="curve"/>
      <point x="896" y="657" type="line"/>
      <point x="896" y="574"/>
      <point x="880" y="448"/>
      <point x="770" y="448" type="curve" smooth="yes"/>
      <point x="618" y="448"/>
      <point x="610" y="665"/>
      <point x="419" y="665" type="curve" smooth="yes"/>
      <point x="288" y="665"/>
      <point x="242" y="526"/>
      <point x="242" y="418" type="curve"/>
      <point x="299" y="418" type="line"/>
      <point x="299" y="498"/>
      <point x="318" y="610"/>
      <point x="421" y="610" type="curve" smooth="yes"/>
      <point x="548" y="610"/>
      <point x="620" y="389"/>
    </contour>
  </outline>
</glyph>
<glyph name="exclamdown" format="2">
  <advance width="651"/>
  <unicode hex="00A1"/>
  <outline>
    <contour>
      <point x="484" y="871" type="line"/>
      <point x="516" y="1022" type="line"/>
      <point x="364" y="1022" type="line"/>
      <point x="328" y="871" type="line"/>
    </contour>
    <contour>
      <point x="165" y="-448" type="line"/>
      <point x="394" y="660" type="line"/>
      <point x="323" y="660" type="line"/>
      <point x="37" y="-448" type="line"/>
    </contour>
  </outline>
</glyph>
<glyph name="cent" format="2">
  <advance width="1229"/>
  <unicode hex="00A2"/>
  <outline>
    <contour>
      <point x="505" y="-211" type="line"/>
      <point x="552" y="-16" type="line"/>
      <point x="617" y="-12"/>
      <point x="730" y="27"/>
      <point x="826" y="89"/>
      <point x="905" y="175"/>
      <point x="938" y="230" type="qcurve"/>
      <point x="842" y="285" type="line"/>
      <point x="822" y="246"/>
      <point x="753" y="178"/>
      <point x="670" y="125"/>
      <point x="574" y="95"/>
      <point x="527" y="95" type="qcurve" smooth="yes"/>
      <point x="467" y="95"/>
      <point x="383" y="133"/>
      <point x="332" y="202"/>
      <point x="308" y="296"/>
      <point x="308" y="350" type="qcurve" smooth="yes"/>
      <point x="308" y="410"/>
      <point x="334" y="542"/>
      <point x="384" y="669"/>
      <point x="458" y="785"/>
      <point x="554" y="871"/>
      <point x="672" y="923"/>
      <point x="741" y="923" type="qcurve" smooth="yes"/>
      <point x="781" y="923"/>
      <point x="854" y="899"/>
      <point x="912" y="851"/>
      <point x="949" y="784"/>
      <point x="952" y="743" type="qcurve"/>
      <point x="1073" y="782" type="line"/>
      <point x="1063" y="833"/>
      <point x="1011" y="920"/>
      <point x="935" y="986"/>
      <point x="840" y="1028"/>
      <point x="785" y="1034" type="qcurve"/>
      <point x="837" y="1228" type="line"/>
      <point x="759" y="1228" type="line"/>
      <point x="709" y="1034" type="line"/>
      <point x="588" y="1021"/>
      <point x="395" y="890"/>
      <point x="259" y="696"/>
      <point x="186" y="465"/>
      <point x="186" y="351" type="qcurve" smooth="yes"/>
      <point x="186" y="279"/>
      <point x="220" y="153"/>
      <point x="291" y="54"/>
      <point x="402" y="-8"/>
      <point x="480" y="-14" type="qcurve"/>
      <point x="427" y="-211" type="line"/>
    </contour>
  </outline>
</glyph>
<glyph name="sterling" format="2">
  <advance width="1229"/>
  <unicode hex="00A3"/>
  <outline>
    <contour>
      <point x="1063" y="0" type="line"/>
      <point x="1087" y="104" type="line"/>
      <point x="219" y="104" type="line"/>
      <point x="328" y="178"/>
      <point x="399" y="254"/>
      <point x="446" y="346" type="curve" smooth="yes"/>
      <point x="492" y="436"/>
      <point x="511" y="540"/>
      <point x="511" y="670" type="curve"/>
      <point x="969" y="670" type="line"/>
      <point x="992" y="771" type="line"/>
      <point x="507" y="771" type="line"/>
      <point x="500" y="807"/>
      <point x="501" y="843"/>
      <point x="501" y="880" type="curve" smooth="yes"/>
      <point x="501" y="986"/>
      <point x="527" y="1105"/>
      <point x="586" y="1198" type="curve" smooth="yes"/>
      <point x="645" y="1290"/>
      <point x="734" y="1356"/>
      <point x="860" y="1356" type="curve" smooth="yes"/>
      <point x="923" y="1356"/>
      <point x="978" y="1335"/>
      <point x="1018" y="1299" type="curve" smooth="yes"/>
      <point x="1058" y="1263"/>
      <point x="1086" y="1211"/>
      <point x="1094" y="1149" type="curve"/>
      <point x="1199" y="1177" type="line"/>
      <point x="1187" y="1261"/>
      <point x="1147" y="1333"/>
      <point x="1088" y="1383" type="curve" smooth="yes"/>
      <point x="1030" y="1434"/>
      <point x="953" y="1463"/>
      <point x="867" y="1463" type="curve" smooth="yes"/>
      <point x="715" y="1463"/>
      <point x="598" y="1390"/>
      <point x="519" y="1283" type="curve" smooth="yes"/>
      <point x="440" y="1175"/>
      <point x="398" y="1034"/>
      <point x="398" y="897" type="curve" smooth="yes"/>
      <point x="398" y="853"/>
      <point x="401" y="813"/>
      <point x="409" y="771" type="curve"/>
      <point x="210" y="771" type="line"/>
      <point x="184" y="670" type="line"/>
      <point x="409" y="670" type="line"/>
      <point x="409" y="523"/>
      <point x="374" y="415"/>
      <point x="310" y="325" type="curve" smooth="yes"/>
      <point x="247" y="234"/>
      <point x="159" y="161"/>
      <point x="50" y="82" type="curve"/>
      <point x="31" y="0" type="line"/>
    </contour>
  </outline>
</glyph>
<glyph name="currency" format="2">
  <advance width="1229"/>
  <unicode hex="00A4"/>
  <outline>
    <contour>
      <point x="869" y="193" type="line"/>
      <point x="953" y="268" type="line"/>
      <point x="877" y="369" type="line"/>
      <point x="967" y="462"/>
      <point x="1044" y="593"/>
      <point x="1044" y="738" type="curve" smooth="yes"/>
      <point x="1044" y="799"/>
      <point x="1030" y="863"/>
      <point x="999" y="917" type="curve"/>
      <point x="1125" y="1024" type="line"/>
      <point x="1071" y="1093" type="line"/>
      <point x="939" y="987" type="line"/>
      <point x="865" y="1059"/>
      <point x="781" y="1089"/>
      <point x="684" y="1089" type="curve" smooth="yes"/>
      <point x="578" y="1089"/>
      <point x="476" y="1052"/>
      <point x="392" y="993" type="curve"/>
      <point x="313" y="1095" type="line"/>
      <point x="227" y="1019" type="line"/>
      <point x="306" y="921" type="line"/>
      <point x="205" y="832"/>
      <point x="139" y="704"/>
      <point x="139" y="558" type="curve" smooth="yes"/>
      <point x="139" y="497"/>
      <point x="154" y="432"/>
      <point x="186" y="377" type="curve"/>
      <point x="50" y="268" type="line"/>
      <point x="109" y="193" type="line"/>
      <point x="241" y="304" type="line"/>
      <point x="314" y="231"/>
      <point x="402" y="201"/>
      <point x="500" y="201" type="curve" smooth="yes"/>
      <point x="605" y="201"/>
      <point x="702" y="239"/>
      <point x="788" y="296" type="curve"/>
    </contour>
    <contour>
      <point x="487" y="300" type="curve" smooth="yes"/>
      <point x="339" y="300"/>
      <point x="230" y="393"/>
      <point x="230" y="542" type="curve" smooth="yes"/>
      <point x="230" y="763"/>
      <point x="463" y="987"/>
      <point x="682" y="987" type="curve" smooth="yes"/>
      <point x="830" y="987"/>
      <point x="943" y="890"/>
      <point x="943" y="737" type="curve" smooth="yes"/>
      <point x="943" y="516"/>
      <point x="705" y="300"/>
    </contour>
  </outline>
</glyph>
<glyph name="yen" format="2">
  <advance width="1229"/>
  <unicode hex="00A5"/>
  <outline>
    <contour>
      <point x="554" y="0" type="line"/>
      <point x="632" y="353" type="line"/>
      <point x="943" y="353" type="line"/>
      <point x="962" y="437" type="line"/>
      <point x="653" y="437" type="line"/>
      <point x="683" y="563" type="line"/>
      <point x="992" y="563" type="line"/>
      <point x="1011" y="648" type="line"/>
      <point x="743" y="648" type="line"/>
      <point x="1416" y="1447" type="line"/>
      <point x="1285" y="1447" type="line"/>
      <point x="658" y="712" type="line"/>
      <point x="372" y="1447" type="line"/>
      <point x="247" y="1447" type="line"/>
      <point x="550" y="645" type="line"/>
      <point x="282" y="645" type="line"/>
      <point x="262" y="563" type="line"/>
      <point x="571" y="563" type="line"/>
      <point x="541" y="437" type="line"/>
      <point x="234" y="437" type="line"/>
      <point x="213" y="353" type="line"/>
      <point x="520" y="353" type="line"/>
      <point x="441" y="0" type="line"/>
    </contour>
  </outline>
</glyph>
<glyph name="brokenbar" format="2">
  <advance width="634"/>
  <unicode hex="00A6"/>
  <outline>
    <contour>
      <point x="397" y="751" type="line"/>
      <point x="573" y="1510" type="line"/>
      <point x="524" y="1510" type="line"/>
      <point x="348" y="751" type="line"/>
    </contour>
    <contour>
      <point x="150" y="-315" type="line"/>
      <point x="322" y="427" type="line"/>
      <point x="272" y="427" type="line"/>
      <point x="101" y="-315" type="line"/>
    </contour>
  </outline>
</glyph>
<glyph name="section" format="2">
  <advance width="1167"/>
  <unicode hex="00A7"/>
  <outline>
    <contour>
      <point x="517" y="-18" type="curve" smooth="yes"/>
      <point x="637" y="-18"/>
      <point x="734" y="11"/>
      <point x="802" y="63" type="curve" smooth="yes"/>
      <point x="870" y="114"/>
      <point x="906" y="189"/>
      <point x="906" y="281" type="curve" smooth="yes"/>
      <point x="906" y="359"/>
      <point x="884" y="416"/>
      <point x="838" y="459" type="curve"/>
      <point x="790" y="501"/>
      <point x="719" y="529"/>
      <point x="621" y="552" type="curve"/>
      <point x="602" y="556" type="line"/>
      <point x="552" y="568"/>
      <point x="499" y="580"/>
      <point x="458" y="602" type="curve" smooth="yes"/>
      <point x="416" y="624"/>
      <point x="388" y="655"/>
      <point x="388" y="705" type="curve" smooth="yes"/>
      <point x="388" y="765"/>
      <point x="417" y="820"/>
      <point x="457" y="865" type="curve" smooth="yes"/>
      <point x="497" y="909"/>
      <point x="551" y="941"/>
      <point x="599" y="954" type="curve"/>
      <point x="508" y="1009" type="line"/>
      <point x="360" y="924"/>
      <point x="279" y="806"/>
      <point x="279" y="682" type="curve" smooth="yes"/>
      <point x="279" y="604"/>
      <point x="316" y="558"/>
      <point x="369" y="527" type="curve" smooth="yes"/>
      <point x="422" y="496"/>
      <point x="490" y="482"/>
      <point x="553" y="467" type="curve"/>
      <point x="592" y="460" type="line"/>
      <point x="647" y="448"/>
      <point x="697" y="433"/>
      <point x="733" y="406" type="curve"/>
      <point x="767" y="378"/>
      <point x="789" y="336"/>
      <point x="789" y="271" type="curve" smooth="yes"/>
      <point x="789" y="223"/>
      <point x="769" y="177"/>
      <point x="725" y="144" type="curve" smooth="yes"/>
      <point x="681" y="110"/>
      <point x="615" y="89"/>
      <point x="522" y="89" type="curve" smooth="yes"/>
      <point x="459" y="89"/>
      <point x="386" y="105"/>
      <point x="331" y="138" type="curve" smooth="yes"/>
      <point x="276" y="171"/>
      <point x="237" y="224"/>
      <point x="239" y="297" type="curve"/>
      <point x="123" y="278" type="line"/>
      <point x="125" y="184"/>
      <point x="184" y="109"/>
      <point x="262" y="59" type="curve" smooth="yes"/>
      <point x="339" y="8"/>
      <point x="436" y="-18"/>
    </contour>
    <contour>
      <point x="771" y="461" type="line"/>
      <point x="845" y="489"/>
      <point x="905" y="532"/>
      <point x="945" y="583" type="curve" smooth="yes"/>
      <point x="985" y="635"/>
      <point x="1008" y="694"/>
      <point x="1008" y="757" type="curve" smooth="yes"/>
      <point x="1008" y="871"/>
      <point x="957" y="935"/>
      <point x="848" y="963" type="curve"/>
      <point x="718" y="993" type="line"/>
      <point x="618" y="1018"/>
      <point x="562" y="1041"/>
      <point x="530" y="1070" type="curve"/>
      <point x="497" y="1098"/>
      <point x="490" y="1133"/>
      <point x="490" y="1178" type="curve" smooth="yes"/>
      <point x="490" y="1235"/>
      <point x="520" y="1285"/>
      <point x="567" y="1319" type="curve" smooth="yes"/>
      <point x="614" y="1354"/>
      <point x="678" y="1374"/>
      <point x="744" y="1374" type="curve" smooth="yes"/>
      <point x="810" y="1374"/>
      <point x="864" y="1354"/>
      <point x="905" y="1319" type="curve" smooth="yes"/>
      <point x="945" y="1284"/>
      <point x="972" y="1237"/>
      <point x="985" y="1180" type="curve"/>
      <point x="1098" y="1222" type="line"/>
      <point x="1084" y="1296"/>
      <point x="1048" y="1360"/>
      <point x="990" y="1403" type="curve" smooth="yes"/>
      <point x="931" y="1445"/>
      <point x="847" y="1468"/>
      <point x="740" y="1468" type="curve" smooth="yes"/>
      <point x="645" y="1468"/>
      <point x="553" y="1441"/>
      <point x="488" y="1389" type="curve" smooth="yes"/>
      <point x="424" y="1337"/>
      <point x="383" y="1262"/>
      <point x="383" y="1164" type="curve" smooth="yes"/>
      <point x="383" y="1098"/>
      <point x="415" y="1044"/>
      <point x="462" y="1004" type="curve" smooth="yes"/>
      <point x="509" y="963"/>
      <point x="570" y="936"/>
      <point x="628" y="923" type="curve"/>
      <point x="797" y="883" type="line"/>
      <point x="830" y="874"/>
      <point x="856" y="860"/>
      <point x="874" y="836" type="curve" smooth="yes"/>
      <point x="892" y="812"/>
      <point x="900" y="784"/>
      <point x="900" y="747" type="curve" smooth="yes"/>
      <point x="900" y="693"/>
      <point x="881" y="647"/>
      <point x="845" y="608" type="curve" smooth="yes"/>
      <point x="809" y="569"/>
      <point x="755" y="538"/>
      <point x="685" y="518" type="curve"/>
    </contour>
  </outline>
</glyph>
<glyph name="dieresis" format="2">
  <advance width="692"/>
  <unicode hex="00A8"/>
  <outline>
    <contour>
      <point x="547" y="1193" type="line"/>
      <point x="589" y="1367" type="line"/>
      <point x="440" y="1367" type="line"/>
      <point x="401" y="1193" type="line"/>
    </contour>
    <contour>
      <point x="884" y="1193" type="line"/>
      <point x="926" y="1367" type="line"/>
      <point x="778" y="1367" type="line"/>
      <point x="737" y="1193" type="line"/>
    </contour>
  </outline>
</glyph>
<glyph name="copyright" format="2">
  <advance width="1858"/>
  <unicode hex="00A9"/>
  <outline>
    <contour>
      <point x="977" y="-53" type="curve" smooth="yes"/>
      <point x="1387" y="-53"/>
      <point x="1728" y="299"/>
      <point x="1728" y="724" type="curve" smooth="yes"/>
      <point x="1728" y="1145"/>
      <point x="1384" y="1500"/>
      <point x="977" y="1500" type="curve" smooth="yes"/>
      <point x="569" y="1500"/>
      <point x="228" y="1147"/>
      <point x="228" y="724" type="curve" smooth="yes"/>
      <point x="228" y="297"/>
      <point x="567" y="-53"/>
    </contour>
    <contour>
      <point x="977" y="23" type="curve" smooth="yes"/>
      <point x="616" y="23"/>
      <point x="303" y="348"/>
      <point x="303" y="724" type="curve" smooth="yes"/>
      <point x="303" y="1099"/>
      <point x="616" y="1423"/>
      <point x="977" y="1423" type="curve" smooth="yes"/>
      <point x="1336" y="1423"/>
      <point x="1650" y="1094"/>
      <point x="1650" y="724" type="curve" smooth="yes"/>
      <point x="1650" y="348"/>
      <point x="1339" y="23"/>
    </contour>
    <contour>
      <point x="994" y="329" type="curve" smooth="yes"/>
      <point x="1120" y="329"/>
      <point x="1231" y="393"/>
      <point x="1277" y="491" type="curve"/>
      <point x="1207" y="522" type="line"/>
      <point x="1178" y="459"/>
      <point x="1082" y="405"/>
      <point x="992" y="405" type="curve" smooth="yes"/>
      <point x="832" y="405"/>
      <point x="728" y="531"/>
      <point x="728" y="722" type="curve" smooth="yes"/>
      <point x="728" y="910"/>
      <point x="834" y="1037"/>
      <point x="994" y="1037" type="curve" smooth="yes"/>
      <point x="1085" y="1037"/>
      <point x="1171" y="992"/>
      <point x="1209" y="925" type="curve"/>
      <point x="1277" y="954" type="line"/>
      <point x="1230" y="1048"/>
      <point x="1113" y="1111"/>
      <point x="994" y="1111" type="curve" smooth="yes"/>
      <point x="789" y="1111"/>
      <point x="656" y="959"/>
      <point x="656" y="722" type="curve" smooth="yes"/>
      <point x="656" y="481"/>
      <point x="786" y="329"/>
    </contour>
  </outline>
  <guideline angle="0" x="0" y="2002"/>
  <guideline angle="90" x="976" y="0"/>
  <guideline angle="0" x="0" y="724"/>
</glyph>
<glyph name="ordfeminine" format="2">
  <advance width="1056"/>
  <unicode hex="00AA"/>
  <outline>
    <contour>
      <point x="505" y="727" type="curve" smooth="yes"/>
      <point x="569" y="727"/>
      <point x="617" y="739"/>
      <point x="662" y="762" type="curve" smooth="yes"/>
      <point x="707" y="785"/>
      <point x="746" y="821"/>
      <point x="789" y="870" type="curve"/>
      <point x="763" y="741" type="line"/>
      <point x="847" y="741" type="line"/>
      <point x="948" y="1177" type="line"/>
      <point x="955" y="1204"/>
      <point x="958" y="1232"/>
      <point x="958" y="1262" type="curve" smooth="yes"/>
      <point x="958" y="1331"/>
      <point x="933" y="1383"/>
      <point x="892" y="1418" type="curve" smooth="yes"/>
      <point x="850" y="1453"/>
      <point x="793" y="1468"/>
      <point x="728" y="1468" type="curve" smooth="yes"/>
      <point x="667" y="1468"/>
      <point x="615" y="1459"/>
      <point x="567" y="1436" type="curve" smooth="yes"/>
      <point x="518" y="1414"/>
      <point x="474" y="1381"/>
      <point x="432" y="1337" type="curve"/>
      <point x="508" y="1277" type="line"/>
      <point x="531" y="1305"/>
      <point x="566" y="1332"/>
      <point x="605" y="1352" type="curve" smooth="yes"/>
      <point x="645" y="1372"/>
      <point x="688" y="1385"/>
      <point x="727" y="1385" type="curve" smooth="yes"/>
      <point x="770" y="1385"/>
      <point x="803" y="1375"/>
      <point x="826" y="1353" type="curve" smooth="yes"/>
      <point x="849" y="1330"/>
      <point x="861" y="1298"/>
      <point x="861" y="1253" type="curve" smooth="yes"/>
      <point x="861" y="1218"/>
      <point x="855" y="1189"/>
      <point x="848" y="1156" type="curve"/>
      <point x="562" y="1131" type="line" smooth="yes"/>
      <point x="484" y="1124"/>
      <point x="420" y="1101"/>
      <point x="377" y="1064" type="curve" smooth="yes"/>
      <point x="334" y="1026"/>
      <point x="308" y="972"/>
      <point x="308" y="899" type="curve" smooth="yes"/>
      <point x="308" y="843"/>
      <point x="331" y="801"/>
      <point x="367" y="772" type="curve" smooth="yes"/>
      <point x="403" y="743"/>
      <point x="452" y="727"/>
    </contour>
    <contour>
      <point x="530" y="815" type="curve" smooth="yes"/>
      <point x="506" y="815"/>
      <point x="478" y="823"/>
      <point x="456" y="838" type="curve"/>
      <point x="434" y="852"/>
      <point x="419" y="874"/>
      <point x="419" y="903" type="curve" smooth="yes"/>
      <point x="419" y="950"/>
      <point x="434" y="984"/>
      <point x="467" y="1011" type="curve" smooth="yes"/>
      <point x="500" y="1037"/>
      <point x="552" y="1051"/>
      <point x="629" y="1057" type="curve"/>
      <point x="828" y="1072" type="line"/>
      <point x="815" y="1010"/>
      <point x="770" y="946"/>
      <point x="715" y="897" type="curve" smooth="yes"/>
      <point x="659" y="848"/>
      <point x="592" y="815"/>
    </contour>
  </outline>
</glyph>
<glyph name="guillemotleft" format="2">
  <advance width="1005"/>
  <unicode hex="00AB"/>
  <outline>
    <contour>
      <point x="376" y="211" type="line"/>
      <point x="402" y="342" type="line"/>
      <point x="239" y="525" type="line"/>
      <point x="491" y="704" type="line"/>
      <point x="516" y="835" type="line"/>
      <point x="107" y="523" type="line"/>
    </contour>
    <contour>
      <point x="751" y="210" type="line"/>
      <point x="776" y="342" type="line"/>
      <point x="612" y="525" type="line"/>
      <point x="864" y="704" type="line"/>
      <point x="891" y="835" type="line"/>
      <point x="481" y="523" type="line"/>
    </contour>
  </outline>
</glyph>
<glyph name="logicalnot" format="2">
  <advance width="1323"/>
  <unicode hex="00AC"/>
  <outline>
    <contour>
      <point x="1034" y="298" type="line"/>
      <point x="1034" y="813" type="line"/>
      <point x="179" y="813" type="line"/>
      <point x="179" y="730" type="line"/>
      <point x="949" y="730" type="line"/>
      <point x="949" y="298" type="line"/>
    </contour>
  </outline>
</glyph>
<glyph name="softhyphen" format="2">
  <advance width="1000"/>
  <unicode hex="00AD"/>
  <outline>
    <contour>
      <point x="847" y="618" type="line"/>
      <point x="869" y="707" type="line"/>
      <point x="223" y="707" type="line"/>
      <point x="202" y="618" type="line"/>
    </contour>
  </outline>
</glyph>
<glyph name="registered" format="2">
  <advance width="1858"/>
  <unicode hex="00AE"/>
  <outline>
    <contour>
      <point x="979" y="-51" type="curve" smooth="yes"/>
      <point x="1400" y="-51"/>
      <point x="1730" y="315"/>
      <point x="1730" y="726" type="curve" smooth="yes"/>
      <point x="1730" y="1138"/>
      <point x="1396" y="1502"/>
      <point x="979" y="1502" type="curve" smooth="yes"/>
      <point x="560" y="1502"/>
      <point x="230" y="1137"/>
      <point x="230" y="726" type="curve" smooth="yes"/>
      <point x="230" y="311"/>
      <point x="557" y="-51"/>
    </contour>
    <contour>
      <point x="979" y="17" type="curve" smooth="yes"/>
      <point x="597" y="17"/>
      <point x="296" y="353"/>
      <point x="296" y="726" type="curve" smooth="yes"/>
      <point x="296" y="1100"/>
      <point x="599" y="1434"/>
      <point x="979" y="1434" type="curve" smooth="yes"/>
      <point x="1358" y="1434"/>
      <point x="1660" y="1094"/>
      <point x="1660" y="726" type="curve" smooth="yes"/>
      <point x="1660" y="351"/>
      <point x="1360" y="17"/>
    </contour>
    <contour>
      <point x="1309" y="320" type="line"/>
      <point x="1100" y="677" type="line"/>
      <point x="1233" y="690"/>
      <point x="1286" y="774"/>
      <point x="1286" y="892" type="curve" smooth="yes"/>
      <point x="1286" y="1057"/>
      <point x="1191" y="1116"/>
      <point x="1035" y="1116" type="curve" smooth="yes"/>
      <point x="737" y="1116" type="line"/>
      <point x="737" y="320" type="line"/>
      <point x="823" y="320" type="line"/>
      <point x="823" y="672" type="line"/>
      <point x="1025" y="672" type="line"/>
      <point x="1209" y="320" type="line"/>
    </contour>
    <contour>
      <point x="1035" y="745" type="curve" smooth="yes"/>
      <point x="812" y="745" type="line"/>
      <point x="812" y="1043" type="line"/>
      <point x="1035" y="1043" type="line" smooth="yes"/>
      <point x="1129" y="1043"/>
      <point x="1214" y="1009"/>
      <point x="1214" y="892" type="curve" smooth="yes"/>
      <point x="1214" y="777"/>
      <point x="1128" y="745"/>
    </contour>
  </outline>
</glyph>
<glyph name="macron" format="2">
  <advance width="903"/>
  <unicode hex="00AF"/>
  <outline>
    <contour>
      <point x="354" y="1252" type="line"/>
      <point x="897" y="1252" type="line"/>
      <point x="925" y="1369" type="line"/>
      <point x="382" y="1369" type="line"/>
    </contour>
  </outline>
</glyph>
<glyph name="degree" format="2">
  <advance width="787"/>
  <unicode hex="00B0"/>
  <outline>
    <contour>
      <point x="549" y="866" type="curve" smooth="yes"/>
      <point x="718" y="866"/>
      <point x="849" y="999"/>
      <point x="849" y="1169" type="curve" smooth="yes"/>
      <point x="849" y="1338"/>
      <point x="717" y="1470"/>
      <point x="549" y="1470" type="curve" smooth="yes"/>
      <point x="377" y="1470"/>
      <point x="243" y="1339"/>
      <point x="243" y="1169" type="curve" smooth="yes"/>
      <point x="243" y="994"/>
      <point x="373" y="866"/>
    </contour>
    <contour>
      <point x="549" y="922" type="curve" smooth="yes"/>
      <point x="410" y="922"/>
      <point x="301" y="1030"/>
      <point x="301" y="1169" type="curve" smooth="yes"/>
      <point x="301" y="1302"/>
      <point x="415" y="1416"/>
      <point x="549" y="1416" type="curve" smooth="yes"/>
      <point x="678" y="1416"/>
      <point x="790" y="1301"/>
      <point x="790" y="1169" type="curve" smooth="yes"/>
      <point x="790" y="1033"/>
      <point x="682" y="922"/>
    </contour>
  </outline>
</glyph>
<glyph name="plusminus" format="2">
  <advance width="1359"/>
  <unicode hex="00B1"/>
  <outline>
    <contour>
      <point x="713" y="109" type="line"/>
      <point x="713" y="606" type="line"/>
      <point x="1184" y="606" type="line"/>
      <point x="1184" y="676" type="line"/>
      <point x="713" y="676" type="line"/>
      <point x="713" y="1168" type="line"/>
      <point x="644" y="1168" type="line"/>
      <point x="644" y="676" type="line"/>
      <point x="175" y="676" type="line"/>
      <point x="175" y="606" type="line"/>
      <point x="644" y="606" type="line"/>
      <point x="644" y="109" type="line"/>
    </contour>
    <contour>
      <point x="1183" y="-74" type="line"/>
      <point x="1183" y="-4" type="line"/>
      <point x="174" y="-4" type="line"/>
      <point x="174" y="-74" type="line"/>
    </contour>
  </outline>
</glyph>
<glyph name="twosuperior" format="2">
  <advance width="837"/>
  <unicode hex="00B2"/>
  <outline>
    <contour>
      <point x="617" y="501" type="line"/>
      <point x="630" y="566" type="line"/>
      <point x="79" y="566" type="line"/>
      <point x="134" y="594"/>
      <point x="276" y="684"/>
      <point x="425" y="795"/>
      <point x="567" y="925"/>
      <point x="680" y="1066"/>
      <point x="748" y="1214"/>
      <point x="748" y="1288" type="qcurve" smooth="yes"/>
      <point x="748" y="1338"/>
      <point x="714" y="1413"/>
      <point x="653" y="1460"/>
      <point x="570" y="1484"/>
      <point x="523" y="1484" type="qcurve" smooth="yes"/>
      <point x="455" y="1484"/>
      <point x="340" y="1434"/>
      <point x="253" y="1350"/>
      <point x="193" y="1238"/>
      <point x="179" y="1174" type="qcurve"/>
      <point x="250" y="1163" type="line"/>
      <point x="262" y="1211"/>
      <point x="309" y="1301"/>
      <point x="376" y="1370"/>
      <point x="463" y="1412"/>
      <point x="516" y="1412" type="qcurve" smooth="yes"/>
      <point x="550" y="1412"/>
      <point x="603" y="1393"/>
      <point x="642" y="1359"/>
      <point x="661" y="1306"/>
      <point x="661" y="1272" type="qcurve" smooth="yes"/>
      <point x="661" y="1205"/>
      <point x="593" y="1068"/>
      <point x="479" y="936"/>
      <point x="337" y="810"/>
      <point x="189" y="701"/>
      <point x="49" y="613"/>
      <point x="-5" y="583" type="qcurve"/>
      <point x="-23" y="501" type="line"/>
    </contour>
  </outline>
</glyph>
<glyph name="threesuperior" format="2">
  <advance width="766"/>
  <unicode hex="00B3"/>
  <outline>
    <contour>
      <point x="379" y="483" type="curve" smooth="yes"/>
      <point x="483" y="483"/>
      <point x="579" y="519"/>
      <point x="652" y="581" type="curve" smooth="yes"/>
      <point x="724" y="642"/>
      <point x="770" y="731"/>
      <point x="770" y="840" type="curve" smooth="yes"/>
      <point x="770" y="931"/>
      <point x="728" y="992"/>
      <point x="640" y="1021" type="curve"/>
      <point x="693" y="1045"/>
      <point x="742" y="1084"/>
      <point x="775" y="1131" type="curve" smooth="yes"/>
      <point x="809" y="1178"/>
      <point x="829" y="1236"/>
      <point x="829" y="1299" type="curve" smooth="yes"/>
      <point x="829" y="1361"/>
      <point x="802" y="1408"/>
      <point x="761" y="1439" type="curve" smooth="yes"/>
      <point x="720" y="1471"/>
      <point x="663" y="1486"/>
      <point x="608" y="1486" type="curve" smooth="yes"/>
      <point x="532" y="1486"/>
      <point x="460" y="1464"/>
      <point x="404" y="1422" type="curve" smooth="yes"/>
      <point x="346" y="1379"/>
      <point x="301" y="1319"/>
      <point x="284" y="1243" type="curve"/>
      <point x="356" y="1228" type="line"/>
      <point x="368" y="1279"/>
      <point x="402" y="1324"/>
      <point x="446" y="1356" type="curve" smooth="yes"/>
      <point x="489" y="1387"/>
      <point x="543" y="1406"/>
      <point x="594" y="1406" type="curve" smooth="yes"/>
      <point x="633" y="1406"/>
      <point x="669" y="1395"/>
      <point x="697" y="1373" type="curve"/>
      <point x="724" y="1350"/>
      <point x="743" y="1318"/>
      <point x="743" y="1276" type="curve" smooth="yes"/>
      <point x="743" y="1202"/>
      <point x="714" y="1146"/>
      <point x="667" y="1110" type="curve" smooth="yes"/>
      <point x="620" y="1074"/>
      <point x="558" y="1057"/>
      <point x="491" y="1057" type="curve" smooth="yes"/>
      <point x="467" y="1057" type="line"/>
      <point x="450" y="973" type="line"/>
      <point x="516" y="973" type="line" smooth="yes"/>
      <point x="559" y="973"/>
      <point x="603" y="960"/>
      <point x="635" y="937" type="curve" smooth="yes"/>
      <point x="668" y="912"/>
      <point x="688" y="877"/>
      <point x="688" y="827" type="curve" smooth="yes"/>
      <point x="688" y="747"/>
      <point x="651" y="681"/>
      <point x="596" y="634" type="curve" smooth="yes"/>
      <point x="541" y="587"/>
      <point x="466" y="560"/>
      <point x="392" y="560" type="curve" smooth="yes"/>
      <point x="345" y="560"/>
      <point x="296" y="573"/>
      <point x="260" y="600" type="curve" smooth="yes"/>
      <point x="224" y="626"/>
      <point x="198" y="664"/>
      <point x="198" y="718" type="curve" smooth="yes"/>
      <point x="198" y="736"/>
      <point x="200" y="753"/>
      <point x="205" y="769" type="curve"/>
      <point x="122" y="765" type="line"/>
      <point x="116" y="740"/>
      <point x="113" y="717"/>
      <point x="113" y="692" type="curve" smooth="yes"/>
      <point x="113" y="615"/>
      <point x="147" y="563"/>
      <point x="198" y="530" type="curve" smooth="yes"/>
      <point x="248" y="497"/>
      <point x="316" y="483"/>
    </contour>
  </outline>
</glyph>
<glyph name="acute" format="2">
  <advance width="550"/>
  <unicode hex="00B4"/>
  <outline>
    <contour>
      <point x="349" y="1192" type="line"/>
      <point x="687" y="1485" type="line"/>
      <point x="514" y="1485" type="line"/>
      <point x="228" y="1192" type="line"/>
    </contour>
  </outline>
</glyph>
<glyph name="micro" format="2">
  <advance width="1386"/>
  <unicode hex="00B5"/>
  <outline>
    <contour>
      <point x="531" y="-24" type="curve" smooth="yes"/>
      <point x="605" y="-24"/>
      <point x="684" y="2"/>
      <point x="754" y="44" type="curve" smooth="yes"/>
      <point x="824" y="85"/>
      <point x="886" y="141"/>
      <point x="923" y="205" type="curve"/>
      <point x="873" y="0" type="line"/>
      <point x="1013" y="0" type="line"/>
      <point x="1258" y="1064" type="line"/>
      <point x="1118" y="1064" type="line"/>
      <point x="977" y="454" type="line" smooth="yes"/>
      <point x="957" y="366"/>
      <point x="898" y="276"/>
      <point x="822" y="210" type="curve" smooth="yes"/>
      <point x="745" y="142"/>
      <point x="650" y="94"/>
      <point x="558" y="94" type="curve" smooth="yes"/>
      <point x="498" y="94"/>
      <point x="454" y="111"/>
      <point x="427" y="140" type="curve" smooth="yes"/>
      <point x="399" y="169"/>
      <point x="385" y="213"/>
      <point x="385" y="274" type="curve" smooth="yes"/>
      <point x="385" y="324"/>
      <point x="395" y="369"/>
      <point x="405" y="417" type="curve" smooth="yes"/>
      <point x="551" y="1064" type="line"/>
      <point x="415" y="1064" type="line"/>
      <point x="104" y="-273" type="line"/>
      <point x="220" y="-273" type="line"/>
      <point x="325" y="41" type="line"/>
      <point x="385" y="-5"/>
      <point x="456" y="-24"/>
    </contour>
  </outline>
</glyph>
<glyph name="paragraph" format="2">
  <advance width="1421"/>
  <unicode hex="00B6"/>
  <outline>
    <contour>
      <point x="560" y="-254" type="line"/>
      <point x="952" y="1447" type="line"/>
      <point x="821" y="1447" type="line" smooth="yes"/>
      <point x="684" y="1447"/>
      <point x="543" y="1399"/>
      <point x="438" y="1312" type="curve" smooth="yes"/>
      <point x="333" y="1225"/>
      <point x="262" y="1103"/>
      <point x="262" y="955" type="curve" smooth="yes"/>
      <point x="262" y="850"/>
      <point x="311" y="770"/>
      <point x="383" y="717" type="curve" smooth="yes"/>
      <point x="456" y="665"/>
      <point x="552" y="639"/>
      <point x="648" y="639" type="curve"/>
      <point x="436" y="-254" type="line"/>
    </contour>
    <contour>
      <point x="943" y="-254" type="line"/>
      <point x="1335" y="1447" type="line"/>
      <point x="1212" y="1447" type="line"/>
      <point x="819" y="-254" type="line"/>
    </contour>
  </outline>
</glyph>
<glyph name="periodcentered" format="2">
  <advance width="678"/>
  <unicode hex="00B7"/>
  <outline>
    <contour>
      <point x="400" y="734" type="curve" smooth="yes"/>
      <point x="436" y="734"/>
      <point x="471" y="750"/>
      <point x="496" y="776" type="curve" smooth="yes"/>
      <point x="520" y="800"/>
      <point x="537" y="836"/>
      <point x="537" y="870" type="curve" smooth="yes"/>
      <point x="537" y="902"/>
      <point x="526" y="926"/>
      <point x="508" y="943" type="curve" smooth="yes"/>
      <point x="490" y="960"/>
      <point x="463" y="970"/>
      <point x="434" y="970" type="curve" smooth="yes"/>
      <point x="397" y="970"/>
      <point x="362" y="954"/>
      <point x="337" y="929" type="curve" smooth="yes"/>
      <point x="312" y="904"/>
      <point x="299" y="870"/>
      <point x="299" y="832" type="curve" smooth="yes"/>
      <point x="299" y="803"/>
      <point x="309" y="778"/>
      <point x="327" y="762" type="curve"/>
      <point x="346" y="744"/>
      <point x="370" y="734"/>
    </contour>
  </outline>
</glyph>
<glyph name="cedilla" format="2">
  <advance width="548"/>
  <unicode hex="00B8"/>
  <outline>
    <contour>
      <point x="48" y="-510" type="qcurve" smooth="yes"/>
      <point x="105" y="-510"/>
      <point x="190" y="-484"/>
      <point x="250" y="-431"/>
      <point x="278" y="-351"/>
      <point x="278" y="-296" type="qcurve" smooth="yes"/>
      <point x="278" y="-262"/>
      <point x="257" y="-206"/>
      <point x="215" y="-162"/>
      <point x="154" y="-136"/>
      <point x="114" y="-130" type="qcurve"/>
      <point x="229" y="0" type="line"/>
      <point x="120" y="0" type="line"/>
      <point x="-17" y="-174" type="line"/>
      <point x="1" y="-196" type="line"/>
      <point x="58" y="-196" type="line" smooth="yes"/>
      <point x="83" y="-196"/>
      <point x="131" y="-208"/>
      <point x="169" y="-235"/>
      <point x="192" y="-273"/>
      <point x="192" y="-296" type="qcurve" smooth="yes"/>
      <point x="192" y="-360"/>
      <point x="127" y="-425"/>
      <point x="60" y="-425" type="qcurve" smooth="yes"/>
      <point x="40" y="-425"/>
      <point x="4" y="-411"/>
      <point x="-25" y="-390"/>
      <point x="-46" y="-362"/>
      <point x="-49" y="-346" type="qcurve"/>
      <point x="-140" y="-383" type="line"/>
      <point x="-132" y="-408"/>
      <point x="-94" y="-453"/>
      <point x="-41" y="-489"/>
      <point x="19" y="-510"/>
    </contour>
  </outline>
</glyph>
<glyph name="onesuperior" format="2">
  <advance width="956"/>
  <unicode hex="00B9"/>
  <outline>
    <contour>
      <point x="471" y="501" type="line"/>
      <point x="705" y="1469" type="line"/>
      <point x="626" y="1469" type="line"/>
      <point x="618" y="1428"/>
      <point x="586" y="1372"/>
      <point x="537" y="1339"/>
      <point x="473" y="1326"/>
      <point x="433" y="1326" type="qcurve" smooth="yes"/>
      <point x="333" y="1326" type="line"/>
      <point x="315" y="1257" type="line"/>
      <point x="570" y="1257" type="line"/>
      <point x="390" y="501" type="line"/>
    </contour>
  </outline>
</glyph>
<glyph name="ordmasculine" format="2">
  <advance width="1020"/>
  <unicode hex="00BA"/>
  <outline>
    <contour>
      <point x="572" y="729" type="curve" smooth="yes"/>
      <point x="810" y="729"/>
      <point x="990" y="964"/>
      <point x="990" y="1188" type="curve" smooth="yes"/>
      <point x="990" y="1354"/>
      <point x="883" y="1468"/>
      <point x="722" y="1468" type="curve" smooth="yes"/>
      <point x="487" y="1468"/>
      <point x="303" y="1235"/>
      <point x="303" y="1012" type="curve" smooth="yes"/>
      <point x="303" y="843"/>
      <point x="407" y="729"/>
    </contour>
    <contour>
      <point x="572" y="814" type="curve" smooth="yes"/>
      <point x="464" y="814"/>
      <point x="403" y="878"/>
      <point x="403" y="990" type="curve" smooth="yes"/>
      <point x="403" y="1173"/>
      <point x="518" y="1382"/>
      <point x="725" y="1382" type="curve" smooth="yes"/>
      <point x="833" y="1382"/>
      <point x="886" y="1317"/>
      <point x="886" y="1206" type="curve" smooth="yes"/>
      <point x="886" y="1028"/>
      <point x="774" y="814"/>
    </contour>
  </outline>
</glyph>
<glyph name="guillemotright" format="2">
  <advance width="1004"/>
  <unicode hex="00BB"/>
  <outline>
    <contour>
      <point x="115" y="211" type="line"/>
      <point x="524" y="525" type="line"/>
      <point x="256" y="835" type="line"/>
      <point x="230" y="703" type="line"/>
      <point x="393" y="523" type="line"/>
      <point x="142" y="341" type="line"/>
    </contour>
    <contour>
      <point x="487" y="211" type="line"/>
      <point x="898" y="525" type="line"/>
      <point x="630" y="835" type="line"/>
      <point x="602" y="703" type="line"/>
      <point x="766" y="523" type="line"/>
      <point x="515" y="341" type="line"/>
    </contour>
  </outline>
</glyph>
<glyph name="questiondown" format="2">
  <advance width="1072"/>
  <unicode hex="00BF"/>
  <outline>
    <contour>
      <point x="527" y="677" type="line"/>
      <point x="492" y="499" type="line" smooth="yes"/>
      <point x="468" y="379"/>
      <point x="377" y="324"/>
      <point x="279" y="268" type="curve" smooth="yes"/>
      <point x="121" y="177"/>
      <point x="6" y="86"/>
      <point x="6" y="-125" type="curve" smooth="yes"/>
      <point x="6" y="-305"/>
      <point x="141" y="-404"/>
      <point x="358" y="-404" type="curve" smooth="yes"/>
      <point x="602" y="-404"/>
      <point x="795" y="-260"/>
      <point x="842" y="-27" type="curve"/>
      <point x="762" y="-27" type="line"/>
      <point x="723" y="-211"/>
      <point x="575" y="-328"/>
      <point x="373" y="-328" type="curve" smooth="yes"/>
      <point x="186" y="-328"/>
      <point x="88" y="-250"/>
      <point x="88" y="-113" type="curve" smooth="yes"/>
      <point x="88" y="59"/>
      <point x="186" y="135"/>
      <point x="332" y="217" type="curve"/>
      <point x="434" y="278"/>
      <point x="539" y="340"/>
      <point x="569" y="493" type="curve" smooth="yes"/>
      <point x="605" y="677" type="line"/>
    </contour>
    <contour>
      <point x="559" y="1064" type="line"/>
      <point x="524" y="912" type="line"/>
      <point x="680" y="912" type="line"/>
      <point x="715" y="1064" type="line"/>
    </contour>
  </outline>
</glyph>
<glyph name="AE" format="2">
  <advance width="1860"/>
  <unicode hex="00C6"/>
  <anchor x="1332" y="1620" name="top"/>
  <outline>
    <contour>
      <point x="1612" y="0" type="line"/>
      <point x="1633" y="86" type="line"/>
      <point x="866" y="86" type="line"/>
      <point x="1002" y="680" type="line"/>
      <point x="1681" y="680" type="line"/>
      <point x="1698" y="765" type="line"/>
      <point x="1022" y="765" type="line"/>
      <point x="1160" y="1369" type="line"/>
      <point x="1927" y="1369" type="line"/>
      <point x="1945" y="1448" type="line"/>
      <point x="841" y="1448" type="line"/>
      <point x="-12" y="0" type="line"/>
      <point x="101" y="0" type="line"/>
      <point x="287" y="314" type="line"/>
      <point x="810" y="314" type="line"/>
      <point x="737" y="0" type="line"/>
    </contour>
    <contour>
      <point x="834" y="421" type="line"/>
      <point x="341" y="421" type="line"/>
      <point x="896" y="1369" type="line"/>
      <point x="1053" y="1369" type="line"/>
    </contour>
  </outline>
  <guideline angle="90" name="vertical" x="1328" y="0"/>
</glyph>
<glyph name="Ccedilla" format="2">
  <advance width="1458"/>
  <unicode hex="00C7"/>
  <outline>
    <contour>
      <point x="523" y="-510" type="qcurve" smooth="yes"/>
      <point x="580" y="-510"/>
      <point x="665" y="-484"/>
      <point x="725" y="-431"/>
      <point x="753" y="-351"/>
      <point x="753" y="-296" type="qcurve" smooth="yes"/>
      <point x="753" y="-262"/>
      <point x="732" y="-206"/>
      <point x="690" y="-162"/>
      <point x="629" y="-136"/>
      <point x="589" y="-130" type="qcurve"/>
      <point x="688" y="-20" type="line"/>
      <point x="781" y="-13"/>
      <point x="952" y="46"/>
      <point x="1103" y="141"/>
      <point x="1232" y="270"/>
      <point x="1285" y="347" type="qcurve"/>
      <point x="1191" y="401" type="line"/>
      <point x="1101" y="251"/>
      <point x="833" y="93"/>
      <point x="656" y="93" type="qcurve" smooth="yes"/>
      <point x="556" y="93"/>
      <point x="410" y="144"/>
      <point x="311" y="246"/>
      <point x="264" y="397"/>
      <point x="264" y="494" type="qcurve" smooth="yes"/>
      <point x="264" y="592"/>
      <point x="303" y="796"/>
      <point x="379" y="989"/>
      <point x="493" y="1159"/>
      <point x="643" y="1286"/>
      <point x="830" y="1360"/>
      <point x="940" y="1360" type="qcurve" smooth="yes"/>
      <point x="1014" y="1360"/>
      <point x="1154" y="1328"/>
      <point x="1263" y="1254"/>
      <point x="1335" y="1139"/>
      <point x="1343" y="1057" type="qcurve"/>
      <point x="1445" y="1100" type="line"/>
      <point x="1428" y="1195"/>
      <point x="1341" y="1334"/>
      <point x="1213" y="1425"/>
      <point x="1049" y="1470"/>
      <point x="958" y="1470" type="qcurve" smooth="yes"/>
      <point x="828" y="1470"/>
      <point x="608" y="1389"/>
      <point x="427" y="1246"/>
      <point x="288" y="1056"/>
      <point x="193" y="837"/>
      <point x="145" y="602"/>
      <point x="145" y="488" type="qcurve" smooth="yes"/>
      <point x="145" y="376"/>
      <point x="201" y="197"/>
      <point x="312" y="67"/>
      <point x="474" y="-10"/>
      <point x="581" y="-19" type="qcurve"/>
      <point x="458" y="-174" type="line"/>
      <point x="476" y="-196" type="line"/>
      <point x="533" y="-196" type="line" smooth="yes"/>
      <point x="558" y="-196"/>
      <point x="606" y="-208"/>
      <point x="644" y="-235"/>
      <point x="667" y="-273"/>
      <point x="667" y="-296" type="qcurve" smooth="yes"/>
      <point x="667" y="-360"/>
      <point x="602" y="-425"/>
      <point x="535" y="-425" type="qcurve" smooth="yes"/>
      <point x="515" y="-425"/>
      <point x="480" y="-411"/>
      <point x="450" y="-390"/>
      <point x="429" y="-362"/>
      <point x="426" y="-346" type="qcurve"/>
      <point x="336" y="-383" type="line"/>
      <point x="344" y="-408"/>
      <point x="382" y="-453"/>
      <point x="435" y="-489"/>
      <point x="494" y="-510"/>
    </contour>
  </outline>
</glyph>
<glyph name="Eth" format="2">
  <advance width="1468"/>
  <unicode hex="00D0"/>
  <outline>
    <contour>
      <point x="200" y="771" type="line"/>
      <point x="178" y="688" type="line"/>
      <point x="812" y="688" type="line"/>
      <point x="834" y="771" type="line"/>
    </contour>
    <contour>
      <point x="483" y="0" type="line" smooth="yes"/>
      <point x="692" y="0"/>
      <point x="1029" y="146"/>
      <point x="1264" y="400"/>
      <point x="1390" y="743"/>
      <point x="1390" y="940" type="qcurve" smooth="yes"/>
      <point x="1390" y="1096"/>
      <point x="1285" y="1292"/>
      <point x="1108" y="1406"/>
      <point x="877" y="1447"/>
      <point x="753" y="1447" type="qcurve" smooth="yes"/>
      <point x="469" y="1447" type="line"/>
      <point x="136" y="0" type="line"/>
    </contour>
    <contour>
      <point x="473" y="104" type="qcurve" smooth="yes"/>
      <point x="275" y="104" type="line"/>
      <point x="562" y="1348" type="line"/>
      <point x="791" y="1348" type="line" smooth="yes"/>
      <point x="896" y="1348"/>
      <point x="1073" y="1302"/>
      <point x="1204" y="1202"/>
      <point x="1277" y="1041"/>
      <point x="1277" y="928" type="qcurve" smooth="yes"/>
      <point x="1277" y="759"/>
      <point x="1157" y="458"/>
      <point x="942" y="234"/>
      <point x="648" y="104"/>
    </contour>
  </outline>
</glyph>
<glyph name="multiply" format="2">
  <advance width="1139"/>
  <unicode hex="00D7"/>
  <outline>
    <contour>
      <point x="239" y="251" type="line"/>
      <point x="571" y="583" type="line"/>
      <point x="917" y="235" type="line"/>
      <point x="973" y="293" type="line"/>
      <point x="627" y="640" type="line"/>
      <point x="960" y="971" type="line"/>
      <point x="901" y="1027" type="line"/>
      <point x="571" y="695" type="line"/>
      <point x="222" y="1043" type="line"/>
      <point x="167" y="985" type="line"/>
      <point x="513" y="640" type="line"/>
      <point x="181" y="307" type="line"/>
    </contour>
  </outline>
</glyph>
<glyph name="Oslash" format="2">
  <advance width="1510"/>
  <unicode hex="00D8"/>
  <outline>
    <contour>
      <point x="641" y="-25" type="curve" smooth="yes"/>
      <point x="726" y="-25"/>
      <point x="805" y="-11"/>
      <point x="879" y="16" type="curve" smooth="yes"/>
      <point x="1026" y="70"/>
      <point x="1147" y="163"/>
      <point x="1244" y="288" type="curve" smooth="yes"/>
      <point x="1291" y="350"/>
      <point x="1332" y="417"/>
      <point x="1365" y="490" type="curve" smooth="yes"/>
      <point x="1431" y="634"/>
      <point x="1467" y="794"/>
      <point x="1467" y="951" type="curve" smooth="yes"/>
      <point x="1467" y="1020"/>
      <point x="1460" y="1090"/>
      <point x="1440" y="1155" type="curve" smooth="yes"/>
      <point x="1419" y="1220"/>
      <point x="1386" y="1281"/>
      <point x="1338" y="1333" type="curve"/>
      <point x="1426" y="1447" type="line"/>
      <point x="1314" y="1447" type="line"/>
      <point x="1269" y="1390" type="line"/>
      <point x="1178" y="1453"/>
      <point x="1070" y="1470"/>
      <point x="964" y="1470" type="curve" smooth="yes"/>
      <point x="880" y="1470"/>
      <point x="802" y="1457"/>
      <point x="729" y="1431" type="curve" smooth="yes"/>
      <point x="582" y="1379"/>
      <point x="459" y="1283"/>
      <point x="364" y="1159" type="curve" smooth="yes"/>
      <point x="317" y="1096"/>
      <point x="277" y="1029"/>
      <point x="243" y="957" type="curve" smooth="yes"/>
      <point x="178" y="813"/>
      <point x="142" y="652"/>
      <point x="142" y="495" type="curve" smooth="yes"/>
      <point x="142" y="428"/>
      <point x="151" y="359"/>
      <point x="171" y="295" type="curve" smooth="yes"/>
      <point x="192" y="230"/>
      <point x="223" y="168"/>
      <point x="270" y="117" type="curve"/>
      <point x="178" y="0" type="line"/>
      <point x="290" y="0" type="line"/>
      <point x="336" y="58" type="line"/>
      <point x="428" y="-4"/>
      <point x="535" y="-25"/>
    </contour>
    <contour>
      <point x="351" y="219" type="line"/>
      <point x="283" y="303"/>
      <point x="264" y="407"/>
      <point x="264" y="509" type="curve" smooth="yes"/>
      <point x="264" y="573"/>
      <point x="271" y="639"/>
      <point x="286" y="706" type="curve" smooth="yes"/>
      <point x="314" y="839"/>
      <point x="370" y="965"/>
      <point x="450" y="1073" type="curve" smooth="yes"/>
      <point x="490" y="1127"/>
      <point x="536" y="1174"/>
      <point x="588" y="1215" type="curve" smooth="yes"/>
      <point x="690" y="1296"/>
      <point x="814" y="1345"/>
      <point x="957" y="1345" type="curve" smooth="yes"/>
      <point x="1036" y="1345"/>
      <point x="1118" y="1333"/>
      <point x="1188" y="1288" type="curve"/>
    </contour>
    <contour>
      <point x="646" y="102" type="curve" smooth="yes"/>
      <point x="566" y="102"/>
      <point x="484" y="115"/>
      <point x="417" y="161" type="curve"/>
      <point x="1257" y="1230" type="line"/>
      <point x="1326" y="1144"/>
      <point x="1348" y="1043"/>
      <point x="1348" y="938" type="curve" smooth="yes"/>
      <point x="1348" y="872"/>
      <point x="1341" y="805"/>
      <point x="1326" y="739" type="curve" smooth="yes"/>
      <point x="1297" y="606"/>
      <point x="1240" y="482"/>
      <point x="1158" y="373" type="curve" smooth="yes"/>
      <point x="1117" y="319"/>
      <point x="1071" y="272"/>
      <point x="1019" y="231" type="curve" smooth="yes"/>
      <point x="915" y="150"/>
      <point x="789" y="102"/>
    </contour>
  </outline>
</glyph>
<glyph name="Thorn" format="2">
  <advance width="1184"/>
  <unicode hex="00DE"/>
  <outline>
    <contour>
      <point x="88" y="0" type="line"/>
      <point x="199" y="0" type="line"/>
      <point x="308" y="465" type="line"/>
      <point x="491" y="465" type="line" smooth="yes"/>
      <point x="802" y="465"/>
      <point x="1119" y="586"/>
      <point x="1119" y="938" type="curve" smooth="yes"/>
      <point x="1119" y="1162"/>
      <point x="923" y="1237"/>
      <point x="742" y="1237" type="curve" smooth="yes"/>
      <point x="485" y="1237" type="line"/>
      <point x="532" y="1448" type="line"/>
      <point x="423" y="1448" type="line"/>
    </contour>
    <contour>
      <point x="330" y="570" type="line"/>
      <point x="460" y="1137" type="line"/>
      <point x="736" y="1137" type="line" smooth="yes"/>
      <point x="849" y="1137"/>
      <point x="1005" y="1076"/>
      <point x="1005" y="915" type="curve" smooth="yes"/>
      <point x="1005" y="687"/>
      <point x="815" y="570"/>
      <point x="603" y="570" type="curve" smooth="yes"/>
    </contour>
  </outline>
</glyph>
<glyph name="germandbls" format="2">
  <advance width="1240"/>
  <unicode hex="00DF"/>
  <outline>
    <contour>
      <point x="641.872" y="-18.756" type="curve" smooth="yes"/>
      <point x="848.188" y="-18.756"/>
      <point x="1050.34" y="151.09"/>
      <point x="1050.34" y="364.7" type="curve" smooth="yes"/>
      <point x="1050.34" y="551.218"/>
      <point x="822.138" y="611.654"/>
      <point x="822.138" y="770.038" type="curve" smooth="yes"/>
      <point x="822.138" y="969.06"/>
      <point x="1151.41" y="927.38"/>
      <point x="1151.41" y="1198.3" type="curve" smooth="yes"/>
      <point x="1151.41" y="1367.1"/>
      <point x="980.522" y="1467.14"/>
      <point x="826.306" y="1467.14" type="curve" smooth="yes"/>
      <point x="515.79" y="1467.14"/>
      <point x="391.792" y="1320.21"/>
      <point x="285.508" y="863.818" type="curve" smooth="yes"/>
      <point x="80.234" y="0" type="line"/>
      <point x="174.014" y="0" type="line"/>
      <point x="377.204" y="866.944" type="line" smooth="yes"/>
      <point x="432.43" y="1097.23"/>
      <point x="542.882" y="1375.44"/>
      <point x="824.222" y="1375.44" type="curve" smooth="yes"/>
      <point x="903.414" y="1375.44"/>
      <point x="1052.42" y="1343.14"/>
      <point x="1052.42" y="1221.22" type="curve" smooth="yes"/>
      <point x="1052.42" y="958.64"/>
      <point x="715.854" y="968.018"/>
      <point x="715.854" y="754.408" type="curve" smooth="yes"/>
      <point x="715.854" y="571.016"/>
      <point x="951.346" y="526.21"/>
      <point x="951.346" y="348.028" type="curve" smooth="yes"/>
      <point x="951.346" y="204.232"/>
      <point x="784.626" y="86.486"/>
      <point x="650.208" y="86.486" type="curve" smooth="yes"/>
      <point x="566.848" y="86.486"/>
      <point x="475.152" y="112.536"/>
      <point x="403.254" y="161.51" type="curve"/>
      <point x="341.776" y="65.646" type="line"/>
      <point x="442.85" y="12.504"/>
      <point x="522.042" y="-18.756"/>
    </contour>
  </outline>
  <guideline angle="256.667" x="232" y="692"/>
</glyph>
<glyph name="ae" format="2">
  <advance width="1765"/>
  <unicode hex="00E6"/>
  <outline>
    <contour>
      <point x="296" y="834" type="line"/>
      <point x="327" y="869"/>
      <point x="404" y="928"/>
      <point x="491" y="971"/>
      <point x="585" y="997"/>
      <point x="632" y="997" type="qcurve" smooth="yes"/>
      <point x="690" y="997"/>
      <point x="774" y="966"/>
      <point x="827" y="907"/>
      <point x="855" y="818"/>
      <point x="855" y="759" type="qcurve" smooth="yes"/>
      <point x="855" y="714"/>
      <point x="843" y="634"/>
      <point x="833" y="594" type="qcurve"/>
      <point x="479" y="594" type="line" smooth="yes"/>
      <point x="400" y="594"/>
      <point x="243" y="548"/>
      <point x="117" y="458"/>
      <point x="39" y="325"/>
      <point x="39" y="236" type="qcurve" smooth="yes"/>
      <point x="39" y="173"/>
      <point x="77" y="77"/>
      <point x="147" y="14"/>
      <point x="245" y="-20"/>
      <point x="305" y="-20" type="qcurve" smooth="yes"/>
      <point x="395" y="-20"/>
      <point x="550" y="29"/>
      <point x="682" y="121"/>
      <point x="788" y="255"/>
      <point x="828" y="340" type="qcurve"/>
      <point x="795" y="349" type="line"/>
      <point x="792" y="255"/>
      <point x="841" y="119"/>
      <point x="934" y="30"/>
      <point x="1063" y="-12"/>
      <point x="1142" y="-12" type="qcurve" smooth="yes"/>
      <point x="1207" y="-12"/>
      <point x="1316" y="6"/>
      <point x="1418" y="42"/>
      <point x="1513" y="97"/>
      <point x="1564" y="137" type="qcurve"/>
      <point x="1499" y="194" type="line"/>
      <point x="1459" y="160"/>
      <point x="1378" y="116"/>
      <point x="1292" y="89"/>
      <point x="1201" y="78"/>
      <point x="1151" y="78" type="qcurve" smooth="yes"/>
      <point x="1089" y="78"/>
      <point x="992" y="117"/>
      <point x="929" y="189"/>
      <point x="896" y="290"/>
      <point x="896" y="351" type="qcurve" smooth="yes"/>
      <point x="896" y="390"/>
      <point x="905" y="463"/>
      <point x="914" y="497" type="qcurve"/>
      <point x="1656" y="497" type="line"/>
      <point x="1662" y="516"/>
      <point x="1675" y="583"/>
      <point x="1687" y="657"/>
      <point x="1696" y="726"/>
      <point x="1696" y="745" type="qcurve" smooth="yes"/>
      <point x="1696" y="915"/>
      <point x="1513" y="1077"/>
      <point x="1349" y="1077" type="qcurve" smooth="yes"/>
      <point x="1219" y="1077"/>
      <point x="1025" y="962"/>
      <point x="950" y="864" type="qcurve"/>
      <point x="941" y="929"/>
      <point x="884" y="1012"/>
      <point x="803" y="1061"/>
      <point x="703" y="1081"/>
      <point x="649" y="1081" type="qcurve" smooth="yes"/>
      <point x="516" y="1081"/>
      <point x="308" y="981"/>
      <point x="215" y="892" type="qcurve"/>
    </contour>
    <contour>
      <point x="934" y="596" type="line"/>
      <point x="951" y="669"/>
      <point x="1021" y="808"/>
      <point x="1124" y="914"/>
      <point x="1259" y="978"/>
      <point x="1340" y="978" type="qcurve" smooth="yes"/>
      <point x="1402" y="978"/>
      <point x="1496" y="948"/>
      <point x="1561" y="886"/>
      <point x="1595" y="794"/>
      <point x="1595" y="732" type="qcurve" smooth="yes"/>
      <point x="1595" y="698"/>
      <point x="1588" y="628"/>
      <point x="1579" y="596" type="qcurve"/>
    </contour>
    <contour>
      <point x="817" y="497" type="line"/>
      <point x="792" y="417"/>
      <point x="713" y="264"/>
      <point x="599" y="146"/>
      <point x="449" y="73"/>
      <point x="354" y="73" type="qcurve" smooth="yes"/>
      <point x="321" y="73"/>
      <point x="252" y="95"/>
      <point x="196" y="138"/>
      <point x="159" y="201"/>
      <point x="159" y="241" type="qcurve" smooth="yes"/>
      <point x="159" y="298"/>
      <point x="214" y="393"/>
      <point x="299" y="460"/>
      <point x="406" y="497"/>
      <point x="458" y="497" type="qcurve" smooth="yes"/>
    </contour>
  </outline>
</glyph>
<glyph name="ccedilla" format="2">
  <advance width="1020"/>
  <unicode hex="00E7"/>
  <outline>
    <contour>
      <point x="337" y="-512" type="curve" smooth="yes"/>
      <point x="412" y="-512"/>
      <point x="469" y="-495"/>
      <point x="509" y="-459" type="curve"/>
      <point x="548" y="-422"/>
      <point x="568" y="-369"/>
      <point x="568" y="-296" type="curve" smooth="yes"/>
      <point x="568" y="-251"/>
      <point x="553" y="-212"/>
      <point x="525" y="-183" type="curve" smooth="yes"/>
      <point x="497" y="-154"/>
      <point x="455" y="-136"/>
      <point x="403" y="-128" type="curve"/>
      <point x="501" y="-17" type="line"/>
      <point x="662" y="4"/>
      <point x="795" y="102"/>
      <point x="877" y="244" type="curve"/>
      <point x="784" y="298" type="line"/>
      <point x="755" y="238"/>
      <point x="704" y="184"/>
      <point x="646" y="145" type="curve" smooth="yes"/>
      <point x="588" y="106"/>
      <point x="517" y="82"/>
      <point x="449" y="82" type="curve" smooth="yes"/>
      <point x="360" y="82"/>
      <point x="302" y="113"/>
      <point x="266" y="164" type="curve" smooth="yes"/>
      <point x="229" y="216"/>
      <point x="214" y="286"/>
      <point x="214" y="365" type="curve" smooth="yes"/>
      <point x="214" y="406"/>
      <point x="218" y="450"/>
      <point x="227" y="497" type="curve" smooth="yes"/>
      <point x="244" y="589"/>
      <point x="275" y="681"/>
      <point x="325" y="764" type="curve" smooth="yes"/>
      <point x="350" y="805"/>
      <point x="378" y="841"/>
      <point x="411" y="873" type="curve" smooth="yes"/>
      <point x="475" y="936"/>
      <point x="556" y="977"/>
      <point x="653" y="977" type="curve" smooth="yes"/>
      <point x="716" y="977"/>
      <point x="773" y="956"/>
      <point x="815" y="920" type="curve" smooth="yes"/>
      <point x="856" y="884"/>
      <point x="884" y="831"/>
      <point x="888" y="768" type="curve"/>
      <point x="1007" y="816" type="line"/>
      <point x="984" y="904"/>
      <point x="943" y="970"/>
      <point x="885" y="1015" type="curve" smooth="yes"/>
      <point x="827" y="1059"/>
      <point x="752" y="1081"/>
      <point x="666" y="1081" type="curve" smooth="yes"/>
      <point x="606" y="1081"/>
      <point x="551" y="1071"/>
      <point x="500" y="1051" type="curve" smooth="yes"/>
      <point x="397" y="1011"/>
      <point x="313" y="939"/>
      <point x="247" y="845" type="curve" smooth="yes"/>
      <point x="214" y="798"/>
      <point x="187" y="748"/>
      <point x="164" y="695" type="curve" smooth="yes"/>
      <point x="118" y="591"/>
      <point x="95" y="476"/>
      <point x="95" y="370" type="curve" smooth="yes"/>
      <point x="95" y="269"/>
      <point x="118" y="177"/>
      <point x="166" y="108" type="curve" smooth="yes"/>
      <point x="214" y="39"/>
      <point x="287" y="-6"/>
      <point x="390" y="-18" type="curve"/>
      <point x="266" y="-174" type="line"/>
      <point x="283" y="-196" type="line"/>
      <point x="339" y="-196" type="line" smooth="yes"/>
      <point x="373" y="-196"/>
      <point x="409" y="-204"/>
      <point x="434" y="-222" type="curve" smooth="yes"/>
      <point x="459" y="-240"/>
      <point x="476" y="-265"/>
      <point x="476" y="-296" type="curve" smooth="yes"/>
      <point x="476" y="-379"/>
      <point x="432" y="-422"/>
      <point x="346" y="-422" type="curve" smooth="yes"/>
      <point x="320" y="-422"/>
      <point x="296" y="-413"/>
      <point x="278" y="-400" type="curve" smooth="yes"/>
      <point x="258" y="-386"/>
      <point x="244" y="-367"/>
      <point x="240" y="-347" type="curve"/>
      <point x="144" y="-384" type="line"/>
      <point x="155" y="-417"/>
      <point x="181" y="-449"/>
      <point x="218" y="-473" type="curve" smooth="yes"/>
      <point x="254" y="-497"/>
      <point x="295" y="-512"/>
    </contour>
  </outline>
</glyph>
<glyph name="eth" format="2">
  <advance width="1217"/>
  <unicode hex="00F0"/>
  <outline>
    <contour>
      <point x="493" y="-16" type="curve" smooth="yes"/>
      <point x="935" y="-16"/>
      <point x="1125" y="491"/>
      <point x="1125" y="865" type="curve" smooth="yes"/>
      <point x="1125" y="1091"/>
      <point x="1058" y="1274"/>
      <point x="884" y="1415" type="curve"/>
      <point x="975" y="1504" type="line"/>
      <point x="892" y="1556" type="line"/>
      <point x="805" y="1469" type="line"/>
      <point x="750" y="1506"/>
      <point x="690" y="1532"/>
      <point x="632" y="1550" type="curve"/>
      <point x="564" y="1489" type="line"/>
      <point x="624" y="1460"/>
      <point x="681" y="1433"/>
      <point x="739" y="1398" type="curve"/>
      <point x="591" y="1255" type="line"/>
      <point x="669" y="1206" type="line"/>
      <point x="811" y="1342" type="line"/>
      <point x="895" y="1267"/>
      <point x="991" y="1085"/>
      <point x="989" y="969" type="curve"/>
      <point x="943" y="1057"/>
      <point x="784" y="1085"/>
      <point x="702" y="1085" type="curve" smooth="yes"/>
      <point x="351" y="1085"/>
      <point x="108" y="722"/>
      <point x="108" y="398" type="curve" smooth="yes"/>
      <point x="108" y="160"/>
      <point x="238" y="-16"/>
    </contour>
    <contour>
      <point x="488" y="77" type="curve" smooth="yes"/>
      <point x="299" y="77"/>
      <point x="224" y="209"/>
      <point x="224" y="385" type="curve" smooth="yes"/>
      <point x="224" y="667"/>
      <point x="409" y="1008"/>
      <point x="726" y="1008" type="curve" smooth="yes"/>
      <point x="899" y="1008"/>
      <point x="990" y="881"/>
      <point x="990" y="717" type="curve" smooth="yes"/>
      <point x="990" y="445"/>
      <point x="798" y="77"/>
    </contour>
  </outline>
</glyph>
<glyph name="divide" format="2">
  <advance width="907"/>
  <unicode hex="00F7"/>
  <outline>
    <contour>
      <point x="534" y="950" type="line"/>
      <point x="534" y="1120" type="line"/>
      <point x="362" y="1120" type="line"/>
      <point x="362" y="950" type="line"/>
    </contour>
    <contour>
      <point x="736" y="598" type="line"/>
      <point x="736" y="687" type="line"/>
      <point x="158" y="687" type="line"/>
      <point x="158" y="598" type="line"/>
    </contour>
    <contour>
      <point x="534" y="145" type="line"/>
      <point x="534" y="316" type="line"/>
      <point x="362" y="316" type="line"/>
      <point x="362" y="145" type="line"/>
    </contour>
  </outline>
</glyph>
<glyph name="oslash" format="2">
  <advance width="1183"/>
  <unicode hex="00F8"/>
  <outline>
    <contour>
      <point x="474" y="-20" type="qcurve" smooth="yes"/>
      <point x="560" y="-20"/>
      <point x="719" y="37"/>
      <point x="855" y="135"/>
      <point x="966" y="267"/>
      <point x="1045" y="422"/>
      <point x="1088" y="587"/>
      <point x="1088" y="669" type="qcurve" smooth="yes"/>
      <point x="1088" y="751"/>
      <point x="1036" y="911"/>
      <point x="977" y="977" type="qcurve"/>
      <point x="1045" y="1063" type="line"/>
      <point x="972" y="1063" type="line"/>
      <point x="933" y="1014" type="line"/>
      <point x="880" y="1048"/>
      <point x="768" y="1077"/>
      <point x="708" y="1077" type="qcurve" smooth="yes"/>
      <point x="620" y="1077"/>
      <point x="462" y="1021"/>
      <point x="327" y="923"/>
      <point x="216" y="789"/>
      <point x="137" y="635"/>
      <point x="95" y="469"/>
      <point x="95" y="388" type="qcurve" smooth="yes"/>
      <point x="95" y="305"/>
      <point x="145" y="145"/>
      <point x="205" y="79" type="qcurve"/>
      <point x="144" y="2" type="line"/>
      <point x="218" y="2" type="line"/>
      <point x="250" y="41" type="line"/>
      <point x="303" y="7"/>
      <point x="414" y="-20"/>
    </contour>
    <contour>
      <point x="275" y="167" type="line"/>
      <point x="239" y="212"/>
      <point x="208" y="318"/>
      <point x="208" y="372" type="qcurve" smooth="yes"/>
      <point x="208" y="439"/>
      <point x="239" y="580"/>
      <point x="299" y="715"/>
      <point x="385" y="835"/>
      <point x="496" y="925"/>
      <point x="628" y="976"/>
      <point x="703" y="976" type="qcurve" smooth="yes"/>
      <point x="746" y="976"/>
      <point x="830" y="957"/>
      <point x="869" y="934" type="qcurve"/>
    </contour>
    <contour>
      <point x="478" y="79" type="qcurve" smooth="yes"/>
      <point x="436" y="79"/>
      <point x="353" y="100"/>
      <point x="317" y="125" type="qcurve"/>
      <point x="913" y="891" type="line"/>
      <point x="947" y="846"/>
      <point x="974" y="742"/>
      <point x="974" y="689" type="qcurve" smooth="yes"/>
      <point x="974" y="620"/>
      <point x="944" y="477"/>
      <point x="885" y="341"/>
      <point x="800" y="220"/>
      <point x="689" y="131"/>
      <point x="556" y="79"/>
    </contour>
  </outline>
</glyph>
<glyph name="thorn" format="2">
  <advance width="1212"/>
  <unicode hex="00FE"/>
  <outline>
    <contour>
      <point x="94" y="-451" type="line"/>
      <point x="253" y="194" type="line"/>
      <point x="275" y="116"/>
      <point x="317" y="63"/>
      <point x="372" y="29" type="curve" smooth="yes"/>
      <point x="427" y="-5"/>
      <point x="496" y="-20"/>
      <point x="570" y="-20" type="curve" smooth="yes"/>
      <point x="628" y="-20"/>
      <point x="681" y="-9"/>
      <point x="731" y="15" type="curve" smooth="yes"/>
      <point x="828" y="60"/>
      <point x="907" y="140"/>
      <point x="968" y="240" type="curve" smooth="yes"/>
      <point x="998" y="290"/>
      <point x="1024" y="343"/>
      <point x="1045" y="398" type="curve" smooth="yes"/>
      <point x="1085" y="507"/>
      <point x="1107" y="622"/>
      <point x="1107" y="721" type="curve" smooth="yes"/>
      <point x="1107" y="819"/>
      <point x="1086" y="912"/>
      <point x="1038" y="978" type="curve" smooth="yes"/>
      <point x="989" y="1045"/>
      <point x="912" y="1085"/>
      <point x="802" y="1085" type="curve" smooth="yes"/>
      <point x="632" y="1085"/>
      <point x="504" y="1016"/>
      <point x="404" y="882" type="curve"/>
      <point x="549" y="1447" type="line"/>
      <point x="430" y="1447" type="line"/>
      <point x="-27" y="-451" type="line"/>
    </contour>
    <contour>
      <point x="531" y="73" type="curve" smooth="yes"/>
      <point x="442" y="73"/>
      <point x="381" y="103"/>
      <point x="343" y="154" type="curve" smooth="yes"/>
      <point x="304" y="204"/>
      <point x="287" y="275"/>
      <point x="287" y="355" type="curve" smooth="yes"/>
      <point x="287" y="398"/>
      <point x="292" y="444"/>
      <point x="302" y="493" type="curve" smooth="yes"/>
      <point x="321" y="590"/>
      <point x="356" y="686"/>
      <point x="410" y="771" type="curve" smooth="yes"/>
      <point x="437" y="814"/>
      <point x="468" y="852"/>
      <point x="504" y="885" type="curve" smooth="yes"/>
      <point x="575" y="950"/>
      <point x="660" y="991"/>
      <point x="761" y="991" type="curve" smooth="yes"/>
      <point x="846" y="991"/>
      <point x="905" y="961"/>
      <point x="944" y="910" type="curve" smooth="yes"/>
      <point x="982" y="859"/>
      <point x="997" y="789"/>
      <point x="997" y="713" type="curve" smooth="yes"/>
      <point x="997" y="669"/>
      <point x="993" y="623"/>
      <point x="984" y="575" type="curve" smooth="yes"/>
      <point x="967" y="478"/>
      <point x="930" y="382"/>
      <point x="879" y="296" type="curve" smooth="yes"/>
      <point x="853" y="252"/>
      <point x="822" y="214"/>
      <point x="788" y="182" type="curve" smooth="yes"/>
      <point x="718" y="116"/>
      <point x="632" y="73"/>
    </contour>
  </outline>
</glyph>
<glyph name="dcaron" format="2">
  <advance width="1297"/>
  <unicode hex="010F"/>
  <outline>
    <contour>
      <point x="1343" y="1121" type="line"/>
      <point x="1637" y="1447" type="line"/>
      <point x="1439" y="1447" type="line"/>
      <point x="1248" y="1121" type="line"/>
    </contour>
    <contour>
      <point x="429" y="-20" type="curve" smooth="yes"/>
      <point x="583" y="-20"/>
      <point x="703" y="35"/>
      <point x="807" y="154" type="curve"/>
      <point x="772" y="0" type="line"/>
      <point x="871" y="0" type="line"/>
      <point x="1219" y="1448" type="line"/>
      <point x="1126" y="1448" type="line"/>
      <point x="975" y="890" type="line"/>
      <point x="917" y="1028"/>
      <point x="805" y="1085"/>
      <point x="661" y="1085" type="curve" smooth="yes"/>
      <point x="318" y="1085"/>
      <point x="118" y="648"/>
      <point x="118" y="350" type="curve" smooth="yes"/>
      <point x="118" y="151"/>
      <point x="205" y="-20"/>
    </contour>
    <contour>
      <point x="454" y="61" type="curve" smooth="yes"/>
      <point x="276" y="61"/>
      <point x="211" y="187"/>
      <point x="211" y="347" type="curve" smooth="yes"/>
      <point x="211" y="614"/>
      <point x="376" y="998"/>
      <point x="689" y="998" type="curve" smooth="yes"/>
      <point x="862" y="998"/>
      <point x="929" y="880"/>
      <point x="929" y="717" type="curve" smooth="yes"/>
      <point x="929" y="452"/>
      <point x="767" y="61"/>
    </contour>
  </outline>
</glyph>
<glyph name="dcroat" format="2">
  <advance width="1193"/>
  <unicode hex="0111"/>
  <outline>
    <contour>
      <point x="736" y="1310" type="line"/>
      <point x="716" y="1220" type="line"/>
      <point x="1386" y="1220" type="line"/>
      <point x="1410" y="1310" type="line"/>
    </contour>
    <contour>
      <point x="423" y="-20" type="curve" smooth="yes"/>
      <point x="575" y="-20"/>
      <point x="695" y="35"/>
      <point x="799" y="154" type="curve"/>
      <point x="764" y="0" type="line"/>
      <point x="863" y="0" type="line"/>
      <point x="1211" y="1447" type="line"/>
      <point x="1119" y="1447" type="line"/>
      <point x="967" y="890" type="line"/>
      <point x="909" y="1028"/>
      <point x="797" y="1085"/>
      <point x="655" y="1085" type="curve" smooth="yes"/>
      <point x="310" y="1085"/>
      <point x="111" y="648"/>
      <point x="111" y="350" type="curve" smooth="yes"/>
      <point x="111" y="151"/>
      <point x="197" y="-20"/>
    </contour>
    <contour>
      <point x="446" y="61" type="curve" smooth="yes"/>
      <point x="270" y="61"/>
      <point x="205" y="187"/>
      <point x="205" y="347" type="curve" smooth="yes"/>
      <point x="205" y="614"/>
      <point x="368" y="998"/>
      <point x="683" y="998" type="curve" smooth="yes"/>
      <point x="854" y="998"/>
      <point x="923" y="880"/>
      <point x="923" y="717" type="curve" smooth="yes"/>
      <point x="923" y="452"/>
      <point x="759" y="61"/>
    </contour>
  </outline>
</glyph>
<glyph name="Hbar" format="2">
  <advance width="1486"/>
  <unicode hex="0126"/>
  <outline>
    <contour>
      <point x="275" y="1202" type="line"/>
      <point x="258" y="1115" type="line"/>
      <point x="1503" y="1115" type="line"/>
      <point x="1521" y="1202" type="line"/>
    </contour>
    <contour>
      <point x="1125" y="0" type="line"/>
      <point x="1459" y="1448" type="line"/>
      <point x="1357" y="1448" type="line"/>
      <point x="1200" y="760" type="line"/>
      <point x="406" y="760" type="line"/>
      <point x="563" y="1448" type="line"/>
      <point x="461" y="1448" type="line"/>
      <point x="128" y="0" type="line"/>
      <point x="230" y="0" type="line"/>
      <point x="386" y="688" type="line"/>
      <point x="1180" y="688" type="line"/>
      <point x="1025" y="0" type="line"/>
    </contour>
  </outline>
  <guideline angle="258.408" x="258" y="1182"/>
  <guideline angle="78.4078" x="1516" y="1104"/>
</glyph>
<glyph name="hbar" format="2">
  <advance width="1175"/>
  <unicode hex="0127"/>
  <outline>
    <contour>
      <point x="168" y="1281" type="line"/>
      <point x="146" y="1195" type="line"/>
      <point x="820" y="1195" type="line"/>
      <point x="843" y="1281" type="line"/>
    </contour>
    <contour>
      <point x="775" y="0" type="line"/>
      <point x="873" y="0" type="line"/>
      <point x="1024" y="661" type="line"/>
      <point x="1034" y="708"/>
      <point x="1040" y="758"/>
      <point x="1040" y="803" type="curve" smooth="yes"/>
      <point x="1040" y="952"/>
      <point x="974" y="1084"/>
      <point x="773" y="1084" type="curve" smooth="yes"/>
      <point x="629" y="1084"/>
      <point x="478" y="965"/>
      <point x="375" y="852" type="curve"/>
      <point x="314" y="852" type="line"/>
      <point x="256" y="579" type="line"/>
      <point x="304" y="579" type="line"/>
      <point x="358" y="783"/>
      <point x="538" y="996"/>
      <point x="761" y="996" type="curve" smooth="yes"/>
      <point x="891" y="996"/>
      <point x="944" y="918"/>
      <point x="944" y="793" type="curve" smooth="yes"/>
      <point x="944" y="740"/>
      <point x="943" y="699"/>
      <point x="897" y="513" type="curve"/>
    </contour>
    <contour>
      <point x="74" y="0" type="line"/>
      <point x="165" y="0" type="line"/>
      <point x="512" y="1448" type="line"/>
      <point x="421" y="1448" type="line"/>
    </contour>
  </outline>
</glyph>
<glyph name="dotlessi" format="2">
  <advance width="484"/>
  <unicode hex="0131"/>
  <outline>
    <contour>
      <point x="174" y="0" type="line"/>
      <point x="424" y="1064" type="line"/>
      <point x="319" y="1064" type="line"/>
      <point x="69" y="0" type="line"/>
    </contour>
  </outline>
</glyph>
<glyph name="kgreenlandic" format="2">
  <advance width="1096"/>
  <unicode hex="0138"/>
  <outline>
    <contour>
      <point x="889" y="0" type="line"/>
      <point x="642" y="676" type="line"/>
      <point x="1063" y="1064" type="line"/>
      <point x="912" y="1064" type="line"/>
      <point x="275" y="474" type="line"/>
      <point x="411" y="1064" type="line"/>
      <point x="289" y="1064" type="line"/>
      <point x="44" y="0" type="line"/>
      <point x="167" y="0" type="line"/>
      <point x="240" y="310" type="line"/>
      <point x="548" y="577" type="line"/>
      <point x="746" y="0" type="line"/>
    </contour>
  </outline>
</glyph>
<glyph name="Lcaron" format="2">
  <advance width="1064"/>
  <unicode hex="013D"/>
  <outline>
    <contour>
      <point x="864" y="0" type="line"/>
      <point x="888" y="113" type="line"/>
      <point x="269" y="113" type="line"/>
      <point x="578" y="1448" type="line"/>
      <point x="450" y="1448" type="line"/>
      <point x="117" y="0" type="line"/>
    </contour>
    <contour>
      <point x="898" y="1074" type="line"/>
      <point x="1194" y="1448" type="line"/>
      <point x="990" y="1448" type="line"/>
      <point x="797" y="1074" type="line"/>
    </contour>
  </outline>
</glyph>
<glyph name="lcaron" format="2">
  <advance width="628"/>
  <unicode hex="013E"/>
  <outline>
    <contour>
      <point x="672" y="1073" type="line"/>
      <point x="970" y="1448" type="line"/>
      <point x="767" y="1448" type="line"/>
      <point x="574" y="1073" type="line"/>
    </contour>
    <contour>
      <point x="194" y="-20" type="qcurve" smooth="yes"/>
      <point x="226" y="-20"/>
      <point x="285" y="-11"/>
      <point x="312" y="-2" type="qcurve"/>
      <point x="328" y="82" type="line"/>
      <point x="305" y="75"/>
      <point x="254" y="66"/>
      <point x="224" y="66" type="qcurve" smooth="yes"/>
      <point x="216" y="66"/>
      <point x="202" y="71"/>
      <point x="190" y="81"/>
      <point x="183" y="97"/>
      <point x="183" y="106" type="qcurve"/>
      <point x="504" y="1448" type="line"/>
      <point x="393" y="1448" type="line"/>
      <point x="94" y="171" type="line" smooth="yes"/>
      <point x="89" y="150"/>
      <point x="80" y="106"/>
      <point x="80" y="82" type="qcurve" smooth="yes"/>
      <point x="80" y="51"/>
      <point x="95" y="11"/>
      <point x="126" y="-12"/>
      <point x="168" y="-20"/>
    </contour>
  </outline>
</glyph>
